<?xml version="1.0" encoding="UTF-8" standalone="no"?>
<!-- Created with Inkscape (http://www.inkscape.org/) -->

<svg
   xmlns:dc="http://purl.org/dc/elements/1.1/"
   xmlns:cc="http://creativecommons.org/ns#"
   xmlns:rdf="http://www.w3.org/1999/02/22-rdf-syntax-ns#"
   xmlns:svg="http://www.w3.org/2000/svg"
   xmlns="http://www.w3.org/2000/svg"
   version="1.1"
   width="90"
   height="90"
   id="svg6792">
  <defs
     id="defs6794" />
  <rect
     width="60"
     height="60"
     rx="0"
     ry="0"
     x="33.6395"
     y="-30"
     transform="matrix(0.707107,0.707107,-0.707107,0.707107,0,0)"
     id="rect6763"
     style="fill:#ffffff;stroke:#231f20;stroke-width:0.7" />
  <path
     d="M 87.4267,44.9996 45.0003,87.426 2.57387,44.9996"
     id="rect7107"
     style="fill:#e22739;stroke:#231f20;stroke-width:0.7" />
  <path
     d="M 45.3921,74 45.3921,72.4155 42.1694,72.4155 42.1694,71.0942 45.5854,66.0938 46.853,66.0938 46.853,71.0889 47.8306,71.0889 47.8306,72.4155 46.853,72.4155 46.853,74 z M 45.3921,71.0889 45.3921,68.3979 43.582,71.0889 z"
     id="path3097"
     style="fill:#231f20;stroke:none;" />
  <rect
     width="51.25"
     height="51.25"
     x="-25.6255"
     y="38.0155"
     transform="matrix(0.707107,-0.707107,0.707107,0.707107,0,0)"
     id="rect6769"
     style="fill:none;stroke:#231f20;stroke-width:0.7" />
  <path
     d="M 44.7829,14.125 C 44.7829,14.125 44.5887,14.1393 44.4704,14.2812 43.8954,14.9713 43.6374,16.0328 43.5954,16.9688 43.4604,18.2168 44.3734,19.1818 44.2204,20.4688 43.2844,19.4738 42.5467,18.938 41.3767,18.5 41.2477,18.447 41.1206,18.4067 41.0017,18.3438 41.1027,18.7948 41.3086,19.1333 41.6267,19.5312 42.7506,20.8833 41.5657,22.528 41.7517,24 41.3157,23.31 40.6769,22.8347 40.0329,22.3438 39.8964,22.2518 39.6786,22.1092 39.5017,22.2812 L 39.7829,22.8125 C 40.5159,23.8205 40.3382,25.386 39.9391,26.5 39.2861,25.877 38.7121,25.0267 37.8141,25.0938 38.7702,26.6187 38.5651,28.8238 39.3141,30.4688 39.9801,31.9268 41.4299,32.7835 42.9079,33.0625 43.4745,33.1385 44.6891,33.2188 44.6891,33.2188 L 44.6891,32.9375 C 42.8382,32.6325 42.9299,30.5435 41.5329,29.5625 L 41.4704,29.5 41.5329,29.4688 C 41.6078,29.4247 41.7043,29.468 41.8767,29.5 42.1137,29.548 42.4262,29.8545 42.5641,29.5625 42.2321,28.7795 42.3296,28.0537 42.3767,27.2188 L 42.4704,27.2188 C 43.1494,28.2257 43.0257,29.539 44.0017,30.375 44.0946,30.401 44.2491,30.5167 44.3141,30.3438 44.2841,28.9518 43.5082,27.6335 43.9391,26.1875 44.1052,26.6385 44.3252,27.2967 44.8141,27.4688 45.5432,26.7398 45.3526,25.4507 45.2517,24.4688 46.0556,25.5168 46.3267,27.2365 45.7517,28.5625 45.6957,28.7215 45.5141,28.8905 45.6891,29.0625 46.2451,28.8775 46.6587,28.2843 47.0017,27.7812 L 47.0641,27.6875 47.0954,27.7812 C 47.2064,28.2052 47.1096,28.6515 47.0017,29.0625 46.9467,29.4205 46.5314,29.6732 46.7204,30.0312 47.2874,29.8592 47.7017,29.3042 48.1267,28.9062 48.3427,30.5903 47.1567,32.1955 45.7517,32.9375 L 45.7829,33.1875 C 45.7829,33.1875 46.4402,33.1355 46.8767,33.0625 49.2037,32.7575 51.4154,30.821 51.9704,28.5 52.4084,27.28 52.0324,26.0985 52.0954,24.8125 L 52.0954,24.6562 52.0329,24.6875 C 51.4579,25.2975 51.4172,26.2258 51.0641,26.9688 50.9082,27.1807 50.7674,27.5798 50.4704,27.5938 50.4334,26.6388 50.8442,25.724 51.1891,24.875 51.5341,23.735 51.1587,22.553 50.5017,21.625 50.4685,21.585 50.4234,21.5493 50.3767,21.5312 50.3967,21.5813 50.4268,21.6235 50.4391,21.6875 50.6332,22.9745 49.9959,23.9582 49.0329,24.7812 48.8931,24.8862 48.7219,25.1642 48.5329,25.0312 48.9519,23.5593 49.3947,21.8218 48.3767,20.4688 48.2085,20.2127 47.9752,19.7398 47.5641,19.5938 47.5461,20.5487 47.5434,21.7527 46.8454,22.4688 46.8454,22.0177 46.9512,21.4988 46.9391,20.9688 47.0672,18.4088 44.2659,16.846 44.7829,14.125 z M 39.0329,33.6562 39.0329,34.9062 50.9704,34.9062 50.9704,33.6562 39.0329,33.6562 z"
     id="path1390"
     style="fill:#231f20;stroke:none" />
  <path
     d="M 22.6875,36.5312 C 22.2069,36.5312 21.8378,36.6636 21.5625,36.9062 21.2872,37.1489 21.1562,37.5054 21.1562,38 21.1562,38.2054 21.1674,38.4062 21.2188,38.5625 21.27,38.7188 21.359,38.8497 21.4688,38.9688 21.5785,39.0877 21.7117,39.1927 21.875,39.2812 22.0383,39.37 22.2447,39.4566 22.4688,39.5312 22.6369,39.5872 22.7608,39.6338 22.875,39.6875 22.9893,39.7412 23.0861,39.8097 23.1562,39.875 23.2262,39.9403 23.2822,40.0121 23.3125,40.0938 23.3427,40.1754 23.375,40.263 23.375,40.375 23.375,40.585 23.3112,40.7435 23.1875,40.8438 23.0639,40.9441 22.9041,41 22.75,41 22.6147,41 22.5215,40.9749 22.4375,40.9375 22.3536,40.9002 22.2701,40.8466 22.2188,40.7812 22.1674,40.7159 22.1437,40.627 22.125,40.5312 22.1062,40.4355 22.0938,40.3355 22.0938,40.2188 L 22.0938,40.0625 21.0938,40.0625 21.0938,40.2812 C 21.0938,40.7433 21.1925,41.0894 21.4375,41.3438 21.6826,41.5982 22.1183,41.75 22.6875,41.75 23.2335,41.75 23.6318,41.6223 23.9375,41.375 24.2432,41.1276 24.4062,40.7147 24.4062,40.1875 24.4062,40.0334 24.403,39.9073 24.375,39.7812 24.3469,39.6553 24.2909,39.5425 24.2188,39.4375 24.1464,39.3325 24.0612,39.2473 23.9375,39.1562 23.8138,39.0652 23.6555,38.959 23.4688,38.875 L 22.6875,38.5312 C 22.4729,38.4426 22.3154,38.3551 22.25,38.25 22.1846,38.145 22.1562,38.0289 22.1562,37.875 22.1562,37.8004 22.1711,37.7263 22.1875,37.6562 22.2039,37.5862 22.237,37.5224 22.2812,37.4688 22.3255,37.4151 22.3941,37.3764 22.4688,37.3438 22.5434,37.3111 22.6381,37.2812 22.75,37.2812 22.946,37.2812 23.0723,37.3404 23.1562,37.4688 23.2403,37.5971 23.2812,37.7933 23.2812,38.0312 L 24.25,38.0312 24.25,37.875 C 24.25,37.637 24.202,37.4517 24.125,37.2812 24.048,37.111 23.9502,36.9534 23.8125,36.8438 23.6748,36.734 23.5015,36.674 23.3125,36.625 23.1235,36.576 22.9115,36.5312 22.6875,36.5312 z M 30.1562,36.5312 C 29.7782,36.5312 29.474,36.6217 29.25,36.75 29.0261,36.8783 28.8378,37.0527 28.7188,37.2812 28.5998,37.51 28.5349,37.7741 28.5,38.0938 28.465,38.4135 28.4375,38.7471 28.4375,39.125 28.4375,39.503 28.465,39.8678 28.5,40.1875 28.5349,40.5071 28.5998,40.7713 28.7188,41 28.8378,41.2287 29.0261,41.4029 29.25,41.5312 29.474,41.6595 29.7782,41.75 30.1562,41.75 30.5343,41.75 30.8385,41.6595 31.0625,41.5312 31.2864,41.4029 31.4434,41.2287 31.5625,41 31.6816,40.7713 31.7776,40.5071 31.8125,40.1875 31.8475,39.8678 31.8438,39.503 31.8438,39.125 31.8438,38.7471 31.8475,38.4135 31.8125,38.0938 31.7776,37.7741 31.6816,37.51 31.5625,37.2812 31.4434,37.0527 31.2864,36.8783 31.0625,36.75 30.8385,36.6217 30.5343,36.5312 30.1562,36.5312 z M 52.7188,36.5312 C 52.3406,36.5312 52.0365,36.6217 51.8125,36.75 51.5886,36.8783 51.4003,37.0527 51.2812,37.2812 51.1623,37.51 51.0974,37.7741 51.0625,38.0938 51.0275,38.4135 51,38.7471 51,39.125 51,39.503 51.0275,39.8678 51.0625,40.1875 51.0974,40.5071 51.1623,40.7713 51.2812,41 51.4003,41.2287 51.5886,41.4029 51.8125,41.5312 52.0365,41.6595 52.3406,41.75 52.7188,41.75 53.0968,41.75 53.401,41.6595 53.625,41.5312 53.8489,41.4029 54.0059,41.2287 54.125,41 54.2441,40.7713 54.3088,40.5071 54.3438,40.1875 54.3788,39.8678 54.4062,39.503 54.4062,39.125 54.4062,38.7471 54.3788,38.4135 54.3438,38.0938 54.3088,37.7741 54.2441,37.51 54.125,37.2812 54.0059,37.0527 53.8489,36.8783 53.625,36.75 53.401,36.6217 53.0968,36.5312 52.7188,36.5312 z M 60.1875,36.5312 C 59.7068,36.5312 59.3378,36.6636 59.0625,36.9062 58.7872,37.1489 58.6562,37.5054 58.6562,38 58.6562,38.2054 58.6675,38.4062 58.7188,38.5625 58.77,38.7188 58.859,38.8497 58.9688,38.9688 59.0784,39.0877 59.2117,39.1927 59.375,39.2812 59.5382,39.37 59.7135,39.4566 59.9375,39.5312 60.1056,39.5872 60.2607,39.6338 60.375,39.6875 60.4893,39.7412 60.5861,39.8097 60.6562,39.875 60.7263,39.9403 60.7822,40.0121 60.8125,40.0938 60.8427,40.1754 60.8438,40.263 60.8438,40.375 60.8438,40.585 60.7799,40.7435 60.6562,40.8438 60.5327,40.9441 60.4041,41 60.25,41 60.1147,41 59.9901,40.9749 59.9062,40.9375 59.8222,40.9002 59.7702,40.8466 59.7188,40.7812 59.6675,40.7159 59.6125,40.627 59.5938,40.5312 59.5751,40.4355 59.5938,40.3355 59.5938,40.2188 L 59.5938,40.0625 58.5625,40.0625 58.5625,40.2812 C 58.5625,40.7433 58.6925,41.0894 58.9375,41.3438 59.1825,41.5982 59.587,41.75 60.1562,41.75 60.7022,41.75 61.1318,41.6223 61.4375,41.375 61.7432,41.1276 61.9062,40.7147 61.9062,40.1875 61.9062,40.0334 61.8719,39.9073 61.8438,39.7812 61.8158,39.6553 61.7911,39.5425 61.7188,39.4375 61.6466,39.3325 61.5299,39.2473 61.4062,39.1562 61.2825,39.0652 61.1242,38.959 60.9375,38.875 L 60.1562,38.5312 C 59.9416,38.4426 59.8153,38.3551 59.75,38.25 59.6846,38.145 59.6562,38.0289 59.6562,37.875 59.6562,37.8004 59.6711,37.7263 59.6875,37.6562 59.7039,37.5862 59.737,37.5224 59.7812,37.4688 59.8255,37.4151 59.8628,37.3764 59.9375,37.3438 60.0122,37.3111 60.1069,37.2812 60.2188,37.2812 60.4148,37.2812 60.5723,37.3404 60.6562,37.4688 60.7403,37.5971 60.7812,37.7933 60.7812,38.0312 L 61.75,38.0312 61.75,37.875 C 61.7499,37.637 61.702,37.4517 61.625,37.2812 61.548,37.111 61.4502,36.9534 61.3125,36.8438 61.1747,36.734 61.0015,36.674 60.8125,36.625 60.6235,36.576 60.4115,36.5312 60.1875,36.5312 z M 24.9062,36.625 24.9062,41.625 25.9375,41.625 25.9375,39.6562 26.4688,39.6562 C 26.7066,39.6562 26.9289,39.6231 27.125,39.5625 27.321,39.5018 27.4874,39.4027 27.625,39.2812 27.7626,39.16 27.8606,39.0014 27.9375,38.8125 28.0145,38.6235 28.0625,38.3863 28.0625,38.125 28.0625,37.9383 28.0155,37.7735 27.9688,37.5938 27.9222,37.4142 27.8573,37.2338 27.75,37.0938 27.6427,36.9537 27.5188,36.8676 27.3438,36.7812 27.1687,36.695 26.9441,36.625 26.6875,36.625 L 24.9062,36.625 z M 32.4375,36.625 32.4375,41.625 33.375,41.625 33.375,38.125 34.625,41.625 35.7812,41.625 35.7812,36.625 34.8438,36.625 34.8438,40.0625 33.625,36.625 32.4375,36.625 z M 36.2188,36.625 36.2188,37.4688 37.2812,37.4688 37.2812,41.625 38.3125,41.625 38.3125,37.4688 39.4062,37.4688 39.4062,36.625 36.2188,36.625 z M 40.8125,36.625 39.4688,41.625 40.5312,41.625 40.75,40.5938 42.0938,40.5938 42.3125,41.625 43.375,41.625 42.0625,36.625 40.8125,36.625 z M 43.7188,36.625 43.7188,41.625 44.6562,41.625 44.6562,38.125 45.9062,41.625 47.0625,41.625 47.0625,36.625 46.125,36.625 46.125,40.0625 44.9062,36.625 43.7188,36.625 z M 47.75,36.625 47.75,41.625 50.625,41.625 50.625,40.8125 48.75,40.8125 48.75,39.4688 50.4375,39.4688 50.4375,38.6562 48.75,38.6562 48.75,37.4688 50.5312,37.4688 50.5312,36.625 47.75,36.625 z M 54.9375,36.625 54.9375,40.125 C 54.9375,40.4609 55.005,40.7298 55.0938,40.9375 55.1825,41.1452 55.2882,41.3185 55.4375,41.4375 55.5869,41.5565 55.7462,41.6455 55.9375,41.6875 56.1289,41.7295 56.3259,41.75 56.5312,41.75 56.7365,41.75 56.9337,41.7052 57.125,41.6562 57.3163,41.6074 57.5069,41.5276 57.6562,41.4062 57.8056,41.2849 57.9113,41.1139 58,40.9062 58.0886,40.6985 58.125,40.4423 58.125,40.125 L 58.125,36.625 57.125,36.625 57.125,40.125 C 57.125,40.251 57.1101,40.3638 57.0938,40.4688 57.0774,40.5737 57.0444,40.6729 57,40.75 56.9556,40.827 56.9207,40.8932 56.8438,40.9375 56.7667,40.9818 56.6479,41 56.5312,41 56.4099,41 56.3247,40.9818 56.25,40.9375 56.1753,40.8932 56.1069,40.827 56.0625,40.75 56.0182,40.6729 55.9851,40.5737 55.9688,40.4688 55.9524,40.3638 55.9688,40.251 55.9688,40.125 L 55.9688,36.625 54.9375,36.625 z M 62.4062,36.625 62.4062,41.625 65.1875,41.625 65.1875,40.8125 63.4062,40.8125 63.4062,36.625 62.4062,36.625 z M 65.3125,36.625 66.625,39.6562 66.625,41.625 67.625,41.625 67.625,39.6562 68.9062,36.625 67.8125,36.625 67.125,38.5625 67.0938,38.5625 66.4375,36.625 65.3125,36.625 z M 30.1562,37.2812 C 30.3056,37.2812 30.409,37.3073 30.5,37.375 30.591,37.4427 30.6698,37.5694 30.7188,37.7188 30.7677,37.8681 30.7962,38.0479 30.8125,38.2812 30.8289,38.5146 30.8438,38.7891 30.8438,39.125 30.8438,39.461 30.8289,39.7643 30.8125,40 30.7962,40.2357 30.7677,40.4155 30.7188,40.5625 30.6698,40.7095 30.591,40.8387 30.5,40.9062 30.409,40.974 30.3056,41 30.1562,41 30.0069,41 29.8723,40.974 29.7812,40.9062 29.6902,40.8387 29.6427,40.7095 29.5938,40.5625 29.5448,40.4155 29.4852,40.2357 29.4688,40 29.4523,39.7643 29.4688,39.461 29.4688,39.125 29.4688,38.7891 29.4523,38.5146 29.4688,38.2812 29.4852,38.0479 29.5448,37.8681 29.5938,37.7188 29.6427,37.5694 29.6902,37.4427 29.7812,37.375 29.8723,37.3073 30.0069,37.2812 30.1562,37.2812 z M 52.7188,37.2812 C 52.868,37.2812 52.9715,37.3073 53.0625,37.375 53.1535,37.4427 53.2323,37.5694 53.2812,37.7188 53.3302,37.8681 53.3587,38.0479 53.375,38.2812 53.3914,38.5146 53.4062,38.7891 53.4062,39.125 53.4062,39.461 53.3914,39.7643 53.375,40 53.3587,40.2357 53.3302,40.4155 53.2812,40.5625 53.2323,40.7095 53.1535,40.8387 53.0625,40.9062 52.9715,40.974 52.868,41 52.7188,41 52.5694,41 52.4348,40.974 52.3438,40.9062 52.2527,40.8387 52.174,40.7095 52.125,40.5625 52.076,40.4155 52.0477,40.2357 52.0312,40 52.0149,39.7643 52.0312,39.461 52.0312,39.125 52.0312,38.7891 52.0149,38.5146 52.0312,38.2812 52.0477,38.0479 52.076,37.8681 52.125,37.7188 52.174,37.5694 52.2527,37.4427 52.3438,37.375 52.4348,37.3073 52.5694,37.2812 52.7188,37.2812 z M 25.9375,37.375 26.3438,37.375 C 26.5958,37.375 26.7676,37.4318 26.875,37.5625 26.9823,37.6931 27.0312,37.9042 27.0312,38.1562 27.0312,38.4128 26.9987,38.5975 26.875,38.7188 26.7513,38.8402 26.5756,38.9062 26.375,38.9062 L 25.9375,38.9062 25.9375,37.375 z M 41.4375,37.5 41.9062,39.75 40.9375,39.75 41.4375,37.5 z"
     id="path3123"
     style="fill:#231f20;stroke:none;" />
  <path
     d="M 19.2812,43.3125 C 18.741,43.3125 18.32,43.4105 18,43.5938 17.6801,43.7771 17.4201,44.0484 17.25,44.375 17.0799,44.7017 16.9874,45.0745 16.9375,45.5312 16.8875,45.9879 16.8438,46.4913 16.8438,47.0312 16.8438,47.5712 16.8875,48.0746 16.9375,48.5312 16.9874,48.9879 17.0799,49.392 17.25,49.7188 17.4201,50.0455 17.6801,50.2855 18,50.4688 18.32,50.6521 18.741,50.75 19.2812,50.75 19.7544,50.75 20.1408,50.6534 20.4375,50.5 20.7341,50.3466 20.9616,50.1382 21.125,49.875 21.2883,49.6117 21.4087,49.3153 21.4688,48.9688 21.5288,48.6221 21.5625,48.2618 21.5625,47.875 L 20.125,47.875 C 20.125,48.2618 20.078,48.5758 20.0312,48.8125 19.9845,49.0491 19.9238,49.2137 19.8438,49.3438 19.7639,49.4738 19.6725,49.5817 19.5625,49.625 19.4526,49.6683 19.3454,49.6875 19.2188,49.6875 19.0653,49.6875 18.9291,49.657 18.8125,49.5938 18.6959,49.5305 18.6079,49.4021 18.5312,49.2188 18.4546,49.0355 18.3804,48.7709 18.3438,48.4375 18.307,48.1042 18.2812,47.6649 18.2812,47.125 18.2812,46.6182 18.317,46.1938 18.3438,45.8438 18.3706,45.4937 18.4021,45.2166 18.4688,45 18.5354,44.7834 18.6334,44.6281 18.75,44.5312 18.8667,44.4346 19.0075,44.375 19.1875,44.375 19.5141,44.375 19.7516,44.5133 19.875,44.75 19.9984,44.9867 20.0625,45.355 20.0625,45.875 L 21.5,45.875 C 21.5,45.615 21.4741,45.3279 21.4375,45.0312 21.4009,44.7344 21.3028,44.4753 21.1562,44.2188 21.0096,43.962 20.7966,43.7291 20.5,43.5625 20.2033,43.3959 19.7945,43.3125 19.2812,43.3125 z M 24.6562,43.3125 C 24.1161,43.3125 23.695,43.4105 23.375,43.5938 23.0551,43.7771 22.7951,44.0484 22.625,44.375 22.4549,44.7017 22.3624,45.0745 22.3125,45.5312 22.2625,45.9879 22.2188,46.4913 22.2188,47.0312 22.2188,47.5712 22.2625,48.0746 22.3125,48.5312 22.3624,48.9879 22.4549,49.392 22.625,49.7188 22.7951,50.0455 23.0551,50.2855 23.375,50.4688 23.695,50.6521 24.1161,50.75 24.6562,50.75 25.1961,50.75 25.6176,50.6521 25.9375,50.4688 26.2574,50.2855 26.5174,50.0455 26.6875,49.7188 26.8576,49.392 26.95,48.9879 27,48.5312 27.0499,48.0746 27.0938,47.5712 27.0938,47.0312 27.0938,46.4913 27.0499,45.9879 27,45.5312 26.95,45.0745 26.8576,44.7017 26.6875,44.375 26.5174,44.0484 26.2574,43.7771 25.9375,43.5938 25.6176,43.4105 25.1961,43.3125 24.6562,43.3125 z M 48.3125,43.3125 C 47.6258,43.3125 47.0808,43.4971 46.6875,43.8438 46.2942,44.1904 46.0938,44.731 46.0938,45.4375 46.0938,45.7309 46.1454,45.9643 46.2188,46.1875 46.2919,46.4108 46.4057,46.6111 46.5625,46.7812 46.7192,46.9513 46.923,47.0922 47.1562,47.2188 47.3895,47.3454 47.6487,47.4871 47.9688,47.5938 48.2088,47.6737 48.3992,47.7358 48.5625,47.8125 48.7258,47.8892 48.8687,47.9693 48.9688,48.0625 49.0689,48.1558 49.1442,48.2583 49.1875,48.375 49.2307,48.4917 49.25,48.6524 49.25,48.8125 49.25,49.1124 49.1766,49.3255 49,49.4688 48.8234,49.6121 48.6264,49.6875 48.4062,49.6875 48.2129,49.6875 48.0574,49.6471 47.9375,49.5938 47.8176,49.5404 47.6983,49.4682 47.625,49.375 47.5516,49.2817 47.4956,49.1679 47.4688,49.0312 47.4421,48.8944 47.4375,48.7605 47.4375,48.5938 L 47.4375,48.375 46,48.375 46,48.6562 C 46,49.3162 46.1813,49.8242 46.5312,50.1875 46.8814,50.5509 47.468,50.75 48.2812,50.75 49.0613,50.75 49.6571,50.5722 50.0938,50.2188 50.5305,49.8653 50.7499,49.3157 50.75,48.5625 50.7499,48.3424 50.7276,48.1487 50.6875,47.9688 50.6474,47.7888 50.5721,47.6189 50.4688,47.4688 50.3656,47.3188 50.2392,47.1613 50.0625,47.0312 49.8858,46.9012 49.6729,46.7762 49.4062,46.6562 L 48.2812,46.1875 C 47.9746,46.0608 47.7809,45.9313 47.6875,45.7812 47.5941,45.6312 47.5312,45.4387 47.5312,45.2188 47.5312,45.1121 47.5391,45.0063 47.5625,44.9062 47.5859,44.8062 47.6555,44.7017 47.7188,44.625 47.7821,44.5483 47.8621,44.5155 47.9688,44.4688 48.0755,44.4222 48.2151,44.375 48.375,44.375 48.655,44.375 48.8488,44.4729 48.9688,44.6562 49.0888,44.8396 49.1562,45.0975 49.1562,45.4375 L 50.5312,45.4375 50.5312,45.25 C 50.5311,44.91 50.4537,44.6183 50.3438,44.375 50.2337,44.1316 50.1029,43.9378 49.9062,43.7812 49.7094,43.6245 49.4575,43.5075 49.1875,43.4375 48.9175,43.3675 48.6325,43.3125 48.3125,43.3125 z M 27.9688,43.4688 27.9688,50.5938 29.2812,50.5938 29.2812,44.9062 29.3125,44.9062 30.5938,50.5938 31.6875,50.5938 32.9688,44.9062 33,44.9062 33,50.5938 34.3125,50.5938 34.3125,43.4688 32.1875,43.4688 31.1562,48.5 31.125,48.5 30.125,43.4688 27.9688,43.4688 z M 35.3438,43.4688 35.3438,50.5938 37.7812,50.5938 C 38.2011,50.5938 38.5603,50.5508 38.8438,50.4375 39.1271,50.3242 39.3546,50.1587 39.5312,49.9688 39.7079,49.7788 39.8329,49.5658 39.9062,49.3125 39.9795,49.0592 40,48.7801 40,48.5 40,48.02 39.8894,47.6617 39.6562,47.375 39.423,47.0884 39.1189,46.8971 38.7188,46.8438 39.0789,46.7439 39.3201,46.5579 39.5,46.2812 39.68,46.0046 39.7812,45.6679 39.7812,45.2812 39.7812,44.9411 39.725,44.6394 39.625,44.4062 39.525,44.173 39.3987,43.9838 39.2188,43.8438 39.0388,43.7036 38.8126,43.6224 38.5625,43.5625 38.3125,43.5026 38.0434,43.4688 37.75,43.4688 L 35.3438,43.4688 z M 40.8125,43.4688 40.8125,48.4375 C 40.8125,48.9174 40.8733,49.2969 41,49.5938 41.1268,49.8904 41.3179,50.1426 41.5312,50.3125 41.7447,50.4825 41.9767,50.5962 42.25,50.6562 42.5234,50.7163 42.8003,50.75 43.0938,50.75 43.3869,50.75 43.6641,50.695 43.9375,50.625 44.2108,50.555 44.4741,50.4546 44.6875,50.2812 44.9009,50.108 45.0608,49.8592 45.1875,49.5625 45.3141,49.2658 45.375,48.8908 45.375,48.4375 L 45.375,43.4688 43.9375,43.4688 43.9375,48.4375 C 43.9375,48.6175 43.9295,48.7875 43.9062,48.9375 43.883,49.0874 43.8447,49.2336 43.7812,49.3438 43.7179,49.4537 43.6412,49.5305 43.5312,49.5938 43.4213,49.657 43.2603,49.6875 43.0938,49.6875 42.9203,49.6875 42.7942,49.657 42.6875,49.5938 42.5808,49.5305 42.5009,49.4537 42.4375,49.3438 42.3741,49.2336 42.3046,49.0874 42.2812,48.9375 42.258,48.7875 42.25,48.6175 42.25,48.4375 L 42.25,43.4688 40.8125,43.4688 z M 51.0938,43.4688 51.0938,44.6562 52.6562,44.6562 52.6562,50.5938 54.0938,50.5938 54.0938,44.6562 55.6562,44.6562 55.6562,43.4688 51.0938,43.4688 z M 56.3438,43.4688 56.3438,50.5938 57.7812,50.5938 57.7812,43.4688 56.3438,43.4688 z M 58.875,43.4688 58.875,50.5938 61.2812,50.5938 C 61.7011,50.5938 62.0603,50.5508 62.3438,50.4375 62.6272,50.3242 62.8547,50.1587 63.0312,49.9688 63.2079,49.7788 63.3329,49.5658 63.4062,49.3125 63.4795,49.0592 63.5312,48.7801 63.5312,48.5 63.5312,48.02 63.3895,47.6617 63.1562,47.375 62.923,47.0884 62.6189,46.8971 62.2188,46.8438 62.5789,46.7439 62.8514,46.5579 63.0312,46.2812 63.2112,46.0046 63.3125,45.6679 63.3125,45.2812 63.3125,44.9411 63.2562,44.6394 63.1562,44.4062 63.0562,44.173 62.8987,43.9838 62.7188,43.8438 62.5388,43.7036 62.3438,43.6224 62.0938,43.5625 61.8436,43.5026 61.5747,43.4688 61.2812,43.4688 L 58.875,43.4688 z M 64.4375,43.4688 64.4375,50.5938 68.4062,50.5938 68.4062,49.4375 65.875,49.4375 65.875,43.4688 64.4375,43.4688 z M 69.0625,43.4688 69.0625,50.5938 73.1562,50.5938 73.1562,49.4375 70.5,49.4375 70.5,47.5 72.9062,47.5 72.9062,46.3125 70.5,46.3125 70.5,44.6562 73.0312,44.6562 73.0312,43.4688 69.0625,43.4688 z M 24.6562,44.375 C 24.8695,44.375 25.0263,44.4346 25.1562,44.5312 25.2862,44.6281 25.3987,44.7867 25.4688,45 25.5388,45.2133 25.6016,45.4792 25.625,45.8125 25.6483,46.1459 25.6562,46.5513 25.6562,47.0312 25.6562,47.5112 25.6483,47.9133 25.625,48.25 25.6016,48.5867 25.5388,48.8838 25.4688,49.0938 25.3987,49.3038 25.2862,49.4346 25.1562,49.5312 25.0263,49.6279 24.8695,49.6875 24.6562,49.6875 24.4428,49.6875 24.255,49.6279 24.125,49.5312 23.995,49.4346 23.9138,49.3038 23.8438,49.0938 23.7738,48.8838 23.7109,48.5867 23.6875,48.25 23.6641,47.9133 23.6562,47.5112 23.6562,47.0312 23.6562,46.5513 23.6641,46.1459 23.6875,45.8125 23.7109,45.4792 23.7738,45.2133 23.8438,45 23.9138,44.7867 23.995,44.6281 24.125,44.5312 24.255,44.4346 24.4428,44.375 24.6562,44.375 z M 36.7812,44.5312 37.3125,44.5312 C 37.6724,44.5312 37.9271,44.5789 38.0938,44.7188 38.2606,44.8588 38.3438,45.1288 38.3438,45.4688 38.3438,45.8088 38.2458,46.0442 38.0625,46.1875 37.8791,46.3308 37.5877,46.4062 37.1875,46.4062 L 36.7812,46.4062 36.7812,44.5312 z M 60.3125,44.5312 60.8125,44.5312 C 61.1724,44.5312 61.4582,44.5789 61.625,44.7188 61.7917,44.8588 61.875,45.1288 61.875,45.4688 61.875,45.8088 61.7771,46.0442 61.5938,46.1875 61.4105,46.3308 61.1189,46.4062 60.7188,46.4062 L 60.3125,46.4062 60.3125,44.5312 z M 36.7812,47.4062 37.4062,47.4062 C 37.5662,47.4062 37.7103,47.4041 37.8438,47.4375 37.977,47.4709 38.0908,47.5417 38.1875,47.625 38.2841,47.7083 38.3496,47.8008 38.4062,47.9375 38.4629,48.0742 38.5,48.262 38.5,48.4688 38.5,48.8819 38.4008,49.1591 38.1875,49.3125 37.9741,49.4659 37.6904,49.5312 37.3438,49.5312 L 36.7812,49.5312 36.7812,47.4062 z M 60.3125,47.4062 60.9062,47.4062 C 61.0662,47.4062 61.2417,47.4041 61.375,47.4375 61.5084,47.4709 61.6222,47.5417 61.7188,47.625 61.8154,47.7083 61.8808,47.8008 61.9375,47.9375 61.9941,48.0742 62.0312,48.262 62.0312,48.4688 62.0312,48.8819 61.9008,49.1591 61.6875,49.3125 61.4742,49.4659 61.2217,49.5312 60.875,49.5312 L 60.3125,49.5312 60.3125,47.4062 z"
     id="path3100"
     style="fill:#231f20;stroke:none;" />
</svg>
