<?xml version="1.0" encoding="UTF-8" standalone="no"?>
<!-- Created with Inkscape (http://www.inkscape.org/) -->

<svg
   xmlns:dc="http://purl.org/dc/elements/1.1/"
   xmlns:cc="http://creativecommons.org/ns#"
   xmlns:rdf="http://www.w3.org/1999/02/22-rdf-syntax-ns#"
   xmlns:svg="http://www.w3.org/2000/svg"
   xmlns="http://www.w3.org/2000/svg"
   version="1.1"
   width="90"
   height="90"
   id="svg6792">
  <defs
     id="defs6794" />
  <rect
     width="60"
     height="60"
     rx="0"
     ry="0"
     x="33.6395"
     y="-30"
     transform="matrix(0.707107,0.707107,-0.707107,0.707107,0,0)"
     id="rect6763"
     style="fill:#e0393e;stroke:#231f20;stroke-width:0.7" />
  <rect
     width="51.25"
     height="51.25"
     x="-25.6255"
     y="38.0155"
     transform="matrix(0.707107,-0.707107,0.707107,0.707107,0,0)"
     id="rect6769"
     style="fill:none;stroke:#ffffff;stroke-width:0.7" />
  <path
     d="M 47.6453,72.5981 47.6453,74 42.3547,74 C 42.412,73.4701 42.5839,72.9679 42.8704,72.4934 43.1568,72.019 43.7226,71.3897 44.5676,70.6055 45.248,69.9717 45.6651,69.542 45.8191,69.3164 46.0268,69.0049 46.1306,68.6969 46.1306,68.3926 46.1306,68.056 46.0402,67.7973 45.8594,67.6165 45.6785,67.4356 45.4288,67.3452 45.1101,67.3452 44.795,67.3452 44.5443,67.4401 44.3582,67.6299 44.172,67.8197 44.0645,68.1348 44.0359,68.5752 L 42.532,68.4248 C 42.6215,67.5941 42.9026,66.9979 43.3752,66.6362 43.8479,66.2746 44.4387,66.0938 45.1477,66.0938 45.9247,66.0938 46.5352,66.3032 46.9792,66.7222 47.4233,67.1411 47.6453,67.6621 47.6453,68.2852 47.6453,68.6397 47.5817,68.9771 47.4546,69.2976 47.3275,69.6181 47.1261,69.9538 46.8503,70.3047 46.6677,70.5374 46.3383,70.8722 45.8621,71.3091 45.3858,71.7459 45.0841,72.036 44.957,72.1792 44.8299,72.3224 44.727,72.4621 44.6482,72.5981 z"
     id="path3276"
     style="fill:#ffffff;stroke:none;" />
  <path
     d="M 44.7721,14.125 C 44.7721,14.125 44.5779,14.1393 44.4596,14.2812 43.8846,14.9713 43.6266,16.0328 43.5846,16.9688 43.4496,18.2168 44.3626,19.1818 44.2096,20.4688 43.2736,19.4738 42.5359,18.938 41.3659,18.5 41.2369,18.447 41.1098,18.4067 40.9909,18.3438 41.0918,18.7948 41.2979,19.1333 41.6159,19.5312 42.7399,20.8833 41.5549,22.528 41.7409,24 41.3049,23.31 40.6661,22.8347 40.0221,22.3438 39.8973,22.2477 39.7382,22.2302 39.4909,22.2812 L 39.8033,22.8125 C 40.5363,23.8205 40.3274,25.386 39.9283,26.5 39.2754,25.877 38.7014,25.0267 37.8033,25.0938 38.7594,26.6187 38.5856,28.8238 39.3346,30.4688 40.0006,31.9268 41.4191,32.7835 42.8971,33.0625 43.4637,33.1385 44.6783,33.2188 44.6783,33.2188 L 44.6783,32.9375 C 42.8274,32.6325 42.9191,30.5435 41.5221,29.5625 L 41.4596,29.5 41.5221,29.4688 C 41.597,29.4247 41.6935,29.468 41.8659,29.5 42.1029,29.548 42.4154,29.8545 42.5533,29.5625 42.2213,28.7795 42.3188,28.0537 42.3659,27.2188 L 42.4909,27.2188 C 43.1699,28.2257 43.0461,29.539 44.0221,30.375 44.1151,30.401 44.2696,30.5167 44.3346,30.3438 44.3046,28.9518 43.4974,27.6335 43.9283,26.1875 44.0944,26.6385 44.3143,27.2967 44.8033,27.4688 45.5323,26.7398 45.3418,25.4507 45.2409,24.4688 46.0449,25.5168 46.3159,27.2365 45.7409,28.5625 45.6849,28.7215 45.5034,28.8905 45.6783,29.0625 46.2343,28.8775 46.6791,28.2843 47.0221,27.7812 L 47.0533,27.6875 47.0846,27.7812 C 47.1956,28.2052 47.1301,28.6515 47.0221,29.0625 46.9671,29.4205 46.5518,29.6732 46.7409,30.0312 47.3079,29.8592 47.7221,29.3042 48.1471,28.9062 48.3631,30.5903 47.1771,32.1955 45.7721,32.9375 L 45.7721,33.1875 C 45.7721,33.1875 46.4294,33.1355 46.8659,33.0625 49.1929,32.7575 51.4359,30.821 51.9909,28.5 52.4289,27.28 52.0216,26.0985 52.0846,24.8125 L 52.0846,24.6562 52.0221,24.6875 C 51.4471,25.2975 51.4064,26.2258 51.0533,26.9688 50.8974,27.1807 50.7566,27.5798 50.4596,27.5938 50.4226,26.6388 50.8334,25.724 51.1783,24.875 51.5233,23.735 51.1478,22.553 50.4909,21.625 50.4576,21.585 50.4127,21.5493 50.3659,21.5312 50.3859,21.5813 50.416,21.6235 50.4283,21.6875 50.6223,22.9745 49.9851,23.9582 49.0221,24.7812 48.8823,24.8862 48.7111,25.1642 48.5221,25.0312 48.9411,23.5593 49.3839,21.8218 48.3659,20.4688 48.1977,20.2127 47.9644,19.7398 47.5533,19.5938 47.5353,20.5487 47.5639,21.7527 46.8659,22.4688 46.8659,22.0177 46.9404,21.4988 46.9283,20.9688 47.0564,18.4088 44.2551,16.846 44.7721,14.125 z M 39.0221,33.6562 39.0221,34.9062 50.9909,34.9062 50.9909,33.6562 39.0221,33.6562 z"
     id="path1390"
     style="fill:#ffffff;stroke:none" />
  <path
     d="M 20.25,41.4375 20.25,48.5625 21.6875,48.5625 21.6875,45.4688 24.0938,45.4688 24.0938,44.2812 21.6875,44.2812 21.6875,42.625 24.25,42.625 24.25,41.4375 20.25,41.4375 z M 24.875,41.4375 24.875,48.5625 28.875,48.5625 28.875,47.375 26.3438,47.375 26.3438,41.4375 24.875,41.4375 z M 30.9062,41.4375 29.0312,48.5625 30.5312,48.5625 30.8438,47.0625 32.75,47.0625 33.0625,48.5625 34.5625,48.5625 32.6875,41.4375 30.9062,41.4375 z M 35.125,41.4375 35.125,48.5625 36.4375,48.5625 36.4375,42.875 36.4688,42.875 37.7188,48.5625 38.8438,48.5625 40.125,42.875 40.125,48.5625 41.4688,48.5625 41.4688,41.4375 39.3125,41.4375 38.2812,46.4688 37.25,41.4375 35.125,41.4375 z M 42.5312,41.4375 42.5312,48.5625 43.8438,48.5625 43.8438,42.875 45.125,48.5625 46.25,48.5625 47.5312,42.875 47.5312,48.5625 48.8438,48.5625 48.8438,41.4375 46.7188,41.4375 45.6875,46.4688 44.6562,41.4375 42.5312,41.4375 z M 51.2812,41.4375 49.375,48.5625 50.875,48.5625 51.2188,47.0625 53.125,47.0625 53.4375,48.5625 54.9375,48.5625 53.0625,41.4375 51.2812,41.4375 z M 55.4688,41.4375 55.4688,48.5625 57.875,48.5625 C 58.2949,48.5625 58.6541,48.5196 58.9375,48.4062 59.2209,48.2929 59.4484,48.1276 59.625,47.9375 59.8016,47.7475 59.9266,47.5345 60,47.2812 60.0733,47.0279 60.125,46.749 60.125,46.4688 60.125,45.9888 59.9833,45.6304 59.75,45.3438 59.5168,45.057 59.2127,44.8659 58.8125,44.8125 59.1727,44.7126 59.4451,44.5267 59.625,44.25 59.805,43.9733 59.9062,43.6365 59.9062,43.25 59.9062,42.9098 59.85,42.6083 59.75,42.375 59.65,42.1418 59.4924,41.9526 59.3125,41.8125 59.1325,41.6724 58.9375,41.5913 58.6875,41.5312 58.4374,41.4714 58.1684,41.4375 57.875,41.4375 L 55.4688,41.4375 z M 61.0312,41.4375 61.0312,48.5625 65,48.5625 65,47.375 62.4688,47.375 62.4688,41.4375 61.0312,41.4375 z M 65.6562,41.4375 65.6562,48.5625 69.75,48.5625 69.75,47.375 67.0938,47.375 67.0938,45.4688 69.5,45.4688 69.5,44.2812 67.0938,44.2812 67.0938,42.625 69.625,42.625 69.625,41.4375 65.6562,41.4375 z M 56.9062,42.5 57.4062,42.5 C 57.7662,42.5 58.052,42.5475 58.2188,42.6875 58.3854,42.8275 58.4688,43.0662 58.4688,43.4062 58.4688,43.7464 58.3708,44.0129 58.1875,44.1562 58.0042,44.2996 57.7127,44.3751 57.3125,44.375 L 56.9062,44.375 56.9062,42.5 z M 31.7812,42.6562 31.8125,42.6562 32.5,45.875 31.0938,45.875 31.7812,42.6562 z M 52.1562,42.6562 52.1875,42.6562 52.875,45.875 51.4688,45.875 52.1562,42.6562 z M 56.9062,45.375 57.5,45.375 C 57.6599,45.375 57.8355,45.3728 57.9688,45.4062 58.1022,45.4395 58.2159,45.5105 58.3125,45.5938 58.4092,45.6771 58.4746,45.7695 58.5312,45.9062 58.5878,46.0429 58.625,46.2308 58.625,46.4375 58.625,46.8507 58.4945,47.1279 58.2812,47.2812 58.0679,47.4346 57.8154,47.5 57.4688,47.5 L 56.9062,47.5 56.9062,45.375 z"
     id="path3286"
     style="fill:#ffffff;stroke:none;" />
  <path
     d="M 39.5625,51.7812 C 39.1025,51.7812 38.7129,51.8467 38.4062,52 38.0997,52.1533 37.8742,52.3842 37.6875,52.6875 37.5009,52.9909 37.358,53.3591 37.2812,53.8125 37.2046,54.2659 37.1562,54.8063 37.1562,55.4062 37.1562,56.0262 37.1967,56.5612 37.25,57.0312 37.3033,57.5012 37.4059,57.8987 37.5625,58.2188 37.7192,58.5388 37.9421,58.7741 38.2188,58.9375 38.4954,59.1008 38.8411,59.1875 39.2812,59.1875 39.6213,59.1875 39.913,59.1266 40.1562,59 40.3997,58.8733 40.608,58.6863 40.7812,58.4062 L 40.8125,58.4062 40.8125,59.0625 41.875,59.0625 41.875,55.1875 39.5312,55.1875 39.5312,56.25 40.4688,56.25 40.4688,57 C 40.4686,57.1933 40.4662,57.3567 40.4062,57.5 40.3462,57.6434 40.2462,57.7504 40.1562,57.8438 40.0662,57.9372 39.9783,58.0159 39.875,58.0625 39.7718,58.1091 39.6804,58.125 39.5938,58.125 39.3871,58.125 39.2238,58.0675 39.0938,57.9375 38.9637,57.8075 38.8513,57.6184 38.7812,57.375 38.7112,57.1317 38.6829,56.8433 38.6562,56.5 38.6296,56.1566 38.5938,55.7771 38.5938,55.3438 38.5938,54.4504 38.6905,53.7929 38.8438,53.4062 38.9971,53.0196 39.2471,52.8438 39.5938,52.8438 39.7405,52.8438 39.8655,52.8608 39.9688,52.9375 40.0722,53.0142 40.1521,53.1333 40.2188,53.25 40.2854,53.3667 40.3137,53.4817 40.3438,53.625 40.3737,53.7683 40.4062,53.9047 40.4062,54.0312 L 41.7812,54.0312 C 41.7812,53.3048 41.5967,52.7338 41.25,52.3438 40.9033,51.9537 40.3493,51.7812 39.5625,51.7812 z M 50.4062,51.7812 C 49.7196,51.7812 49.1745,51.9345 48.7812,52.2812 48.3879,52.6279 48.1875,53.1684 48.1875,53.875 48.1875,54.1684 48.208,54.4329 48.2812,54.6562 48.3544,54.8795 48.4995,55.0799 48.6562,55.25 48.813,55.42 48.9855,55.5608 49.2188,55.6875 49.452,55.8141 49.7425,55.9246 50.0625,56.0312 50.3026,56.1112 50.493,56.2045 50.6562,56.2812 50.8195,56.358 50.9624,56.438 51.0625,56.5312 51.1626,56.6245 51.2379,56.7272 51.2812,56.8438 51.3244,56.9605 51.3438,57.0899 51.3438,57.25 51.3438,57.5499 51.2391,57.7629 51.0625,57.9062 50.8859,58.0496 50.6889,58.125 50.4688,58.125 50.2754,58.125 50.1199,58.1158 50,58.0625 49.8801,58.0092 49.792,57.937 49.7188,57.8438 49.6453,57.7505 49.5893,57.6367 49.5625,57.5 49.5358,57.3633 49.5312,57.1979 49.5312,57.0312 L 49.5312,56.8125 48.0938,56.8125 48.0938,57.125 C 48.0938,57.7849 48.2749,58.2929 48.625,58.6562 48.975,59.0196 49.5306,59.1875 50.3438,59.1875 51.1238,59.1875 51.7508,59.0096 52.1875,58.6562 52.6242,58.3028 52.8438,57.7532 52.8438,57 52.8438,56.7799 52.8214,56.5861 52.7812,56.4062 52.7413,56.2263 52.6658,56.0563 52.5625,55.9062 52.4593,55.7562 52.333,55.63 52.1562,55.5 51.9796,55.37 51.7355,55.2451 51.4688,55.125 L 50.375,54.625 C 50.0684,54.4982 49.8747,54.3688 49.7812,54.2188 49.6879,54.0687 49.625,53.8762 49.625,53.6562 49.625,53.5496 49.6328,53.4438 49.6562,53.3438 49.6797,53.2438 49.7179,53.1705 49.7812,53.0938 49.8445,53.0171 49.9246,52.953 50.0312,52.9062 50.138,52.8595 50.2776,52.8438 50.4375,52.8438 50.7175,52.8438 50.9112,52.9104 51.0312,53.0938 51.1512,53.2771 51.2188,53.5663 51.2188,53.9062 L 52.5938,53.9062 52.5938,53.6875 C 52.5936,53.3476 52.5475,53.0558 52.4375,52.8125 52.3275,52.5692 52.1654,52.3754 51.9688,52.2188 51.7719,52.0621 51.5512,51.945 51.2812,51.875 51.0112,51.805 50.7263,51.7812 50.4062,51.7812 z M 44.1875,51.9062 42.3125,59.0625 43.8125,59.0625 44.125,57.5312 46.0312,57.5312 46.375,59.0625 47.875,59.0625 45.9688,51.9062 44.1875,51.9062 z M 45.0625,53.1562 45.0938,53.1562 45.7812,56.375 44.375,56.375 45.0625,53.1562 z"
     id="path3279"
     style="fill:#ffffff;stroke:none;" />
</svg>
