<?xml version="1.0" encoding="UTF-8" standalone="no"?>
<!-- Created with Inkscape (http://www.inkscape.org/) -->

<svg
   xmlns:dc="http://purl.org/dc/elements/1.1/"
   xmlns:cc="http://creativecommons.org/ns#"
   xmlns:rdf="http://www.w3.org/1999/02/22-rdf-syntax-ns#"
   xmlns:svg="http://www.w3.org/2000/svg"
   xmlns="http://www.w3.org/2000/svg"
   xmlns:sodipodi="http://sodipodi.sourceforge.net/DTD/sodipodi-0.dtd"
   xmlns:inkscape="http://www.inkscape.org/namespaces/inkscape"
   version="1.0"
   width="435.71201"
   height="435.71201"
   viewBox="0 0 435.712 435.71199"
   id="Layer_3"
   xml:space="preserve"
   inkscape:version="0.91 r13725"
   sodipodi:docname="Dangclass9A.svg"><metadata
   id="metadata3898"><rdf:RDF><cc:Work
       rdf:about=""><dc:format>image/svg+xml</dc:format><dc:type
         rdf:resource="http://purl.org/dc/dcmitype/StillImage" /><dc:title></dc:title></cc:Work></rdf:RDF></metadata><sodipodi:namedview
   pagecolor="#ffffff"
   bordercolor="#666666"
   borderopacity="1"
   objecttolerance="10"
   gridtolerance="10"
   guidetolerance="10"
   inkscape:pageopacity="0"
   inkscape:pageshadow="2"
   inkscape:window-width="1920"
   inkscape:window-height="1137"
   id="namedview3896"
   showgrid="false"
   inkscape:zoom="2.1344374"
   inkscape:cx="217.856"
   inkscape:cy="217.856"
   inkscape:window-x="-4"
   inkscape:window-y="-4"
   inkscape:window-maximized="1"
   inkscape:current-layer="layer1" /><defs
   id="defs34"><clipPath
     clipPathUnits="userSpaceOnUse"
     id="clipPath3616"><path
       d="m 0,0 225.29,0 0,226.32 L 0,226.32 0,0 Z"
       id="path3618"
       inkscape:connector-curvature="0" /></clipPath></defs>






<g
   inkscape:groupmode="layer"
   id="layer1"
   inkscape:label="Layer 1"
   style="display:inline;opacity:1"
   transform="translate(0,-616.83805)"><g
     id="g4641"
     transform="translate(8.0172781e-4,0.00208744)"><rect
       id="rect3"
       style="fill:#ffffff;stroke:#000000;stroke-width:2"
       transform="matrix(0.70710678,-0.70710678,0.70710678,0.70710678,0,0)"
       y="591.2157"
       x="-589.21698"
       height="306.09506"
       width="306.09506" /><g
       transform="translate(0,616.83506)"
       id="g5">
	<polygon
   id="polygon7"
   style="fill:#ff683f"
   points="1.415,217.857 1.414,217.857 1.414,217.857 1.415,217.857 " />
	<polygon
   id="polygon9"
   points="401.002,184.558 401.002,217.857 401.002,217.857 434.302,217.857 " />
	<polygon
   id="polygon11"
   points="367.704,217.857 367.704,151.26 334.404,117.96 334.404,117.96 334.404,217.857 " />
	<polygon
   id="polygon13"
   points="301.105,217.857 301.105,84.662 267.806,51.362 267.806,51.362 267.806,217.857 " />
	<polygon
   id="polygon15"
   points="234.508,18.064 217.858,1.414 217.858,1.414 201.209,18.063 201.209,217.857 234.508,217.857 " />
	<polygon
   id="polygon17"
   points="167.91,217.857 167.91,51.362 134.611,84.661 134.611,84.661 134.611,217.857 " />
	<polygon
   id="polygon19"
   points="101.312,217.857 101.312,117.959 68.013,151.259 68.013,151.259 68.013,217.857 " />
	<polygon
   id="polygon21"
   points="1.415,217.857 34.713,217.857 34.713,184.558 34.713,184.558 1.415,217.857 " />
</g><rect
       id="rect23"
       style="fill:none;stroke:#000000;stroke-width:3"
       transform="matrix(0.70710678,-0.70710678,0.70710678,0.70710678,0,0)"
       y="609.91425"
       x="-570.51733"
       height="268.69745"
       width="268.69644" /><line
       style="fill:none;stroke:#000000;stroke-width:2"
       id="line25"
       y2="834.69202"
       x2="434.30301"
       y1="834.69202"
       x1="1.414" /><g
       transform="translate(0,616.83506)"
       id="g27">
	<path
   inkscape:connector-curvature="0"
   id="path29"
   d="m 206.372,370.154 6.77,-0.747 c 0.165,1.377 0.597,2.397 1.294,3.061 0.696,0.665 1.618,0.996 2.763,0.996 1.443,0 2.671,-0.663 3.684,-1.99 1.012,-1.328 1.658,-4.083 1.941,-8.264 -1.76,2.04 -3.958,3.061 -6.597,3.061 -2.871,0 -5.347,-1.107 -7.429,-3.322 -2.083,-2.215 -3.124,-5.099 -3.124,-8.648 0,-3.701 1.099,-6.684 3.297,-8.949 2.199,-2.265 5,-3.396 8.401,-3.396 3.701,0 6.737,1.431 9.11,4.294 2.372,2.861 3.56,7.57 3.56,14.124 0,6.67 -1.236,11.482 -3.709,14.436 -2.473,2.954 -5.691,4.431 -9.658,4.431 -2.854,0 -5.161,-0.759 -6.919,-2.277 -1.758,-1.518 -2.887,-3.791 -3.384,-6.81 z m 15.829,-15.282 c 0,-2.257 -0.519,-4.008 -1.555,-5.253 -1.037,-1.243 -2.237,-1.866 -3.598,-1.866 -1.294,0 -2.369,0.51 -3.223,1.531 -0.854,1.021 -1.281,2.691 -1.281,5.016 0,2.356 0.464,4.085 1.394,5.188 0.929,1.104 2.091,1.655 3.484,1.655 1.344,0 2.477,-0.531 3.397,-1.593 0.922,-1.061 1.382,-2.621 1.382,-4.678 z" />
</g><line
       style="fill:none;stroke:#000000;stroke-width:0.80000001"
       id="line31"
       y2="1002.108"
       x2="227.479"
       y1="1002.108"
       x1="208.23599" /></g></g><g
   inkscape:groupmode="layer"
   id="layer2"
   inkscape:label="Layer 2"
   style="display:inline"
   transform="translate(0,-616.83805)"><path
     inkscape:connector-curvature="0"
     id="path3642"
     style="fill:#000000;fill-opacity:1;fill-rule:evenodd;stroke:#000000;stroke-width:0.27000085;stroke-linecap:butt;stroke-linejoin:round;stroke-miterlimit:10;stroke-dasharray:none;stroke-opacity:1"
     d="m 175.83796,857.97458 33.63159,0 0,14.02786 0,13.89098 0,14.16282 0,14.66601 -0.27008,1.72939 -0.94531,1.45754 -1.46618,1.32065 -1.94849,1.04689 -2.27644,0.82131 -2.50795,0.63623 -2.91308,0.41065 -2.91308,0.13689 -2.91501,0 -2.91307,-0.27377 -2.91308,-0.40873 -2.63914,-0.63816 -2.23207,-0.81938 -2.0025,-1.04881 -1.45654,-1.32066 -1.04562,-1.45754 -0.27395,-1.5925 0,-56.74767 z" /><path
     inkscape:connector-curvature="0"
     id="path3644"
     style="fill:none;stroke:#ffffff;stroke-width:1.09213412;stroke-linecap:butt;stroke-linejoin:round;stroke-miterlimit:10;stroke-dasharray:none;stroke-opacity:1"
     d="m 175.58717,857.72394 33.63159,0 0,14.02786 0,13.89098 0,14.16282 0,14.66602 -0.27009,1.72938 -0.9453,1.45754 -1.46619,1.32066 -1.94848,1.04881 -2.27645,0.81938 -2.50794,0.63623 -2.91308,0.41066 -2.91308,0.13688 -2.91308,0 -2.91501,-0.27377 -2.91308,-0.40873 -2.63913,-0.63815 -2.23015,-0.81939 -2.00443,-1.04881 -1.45654,-1.32065 -1.04562,-1.45754 -0.27394,-1.5925 0,-56.74768" /><path
     inkscape:connector-curvature="0"
     id="path3646"
     style="fill:#000000;fill-opacity:1;fill-rule:evenodd;stroke:#000000;stroke-width:0.27000085;stroke-linecap:butt;stroke-linejoin:round;stroke-miterlimit:10;stroke-dasharray:none;stroke-opacity:1"
     d="m 271.80173,922.00803 0,-33.61019 -10.7456,0 -10.57197,0 -10.74559,0 -11.09285,0 -3.04813,0.27377 -2.64299,0.91 -2.3729,1.32065 -2.00636,1.73132 -1.71698,2.14004 -1.33114,2.36753 -1.04177,2.50636 -0.54017,2.77819 -0.2315,2.7782 0,2.77819 0.50159,2.64131 0.9453,2.64131 1.1961,2.41381 1.58193,2.09377 2.10282,1.73131 2.50795,1.32066 2.75875,0.91 3.3375,0.27377 43.15601,0 z" /><path
     inkscape:connector-curvature="0"
     id="path3648"
     style="fill:none;stroke:#ffffff;stroke-width:1.09213412;stroke-linecap:butt;stroke-linejoin:round;stroke-miterlimit:10;stroke-dasharray:none;stroke-opacity:1"
     d="m 271.55093,921.75739 0,-33.61019 -10.74559,0 -10.57197,0 -10.7456,0 -11.09285,0 -3.04812,0.27378 -2.64299,0.90999 -2.37291,1.32066 -2.00636,1.73131 -1.71698,2.14004 -1.33114,2.36947 -1.04176,2.50442 -0.54018,2.7782 -0.2315,2.77819 0,2.7782 0.50159,2.64131 0.9453,2.64131 1.1961,2.41381 1.58194,2.09377 2.10282,1.73131 2.50795,1.32065 2.77803,0.91 3.31821,0.27377 43.15601,0" /><path
     inkscape:connector-curvature="0"
     id="path3650"
     style="fill:#000000;fill-opacity:1;fill-rule:evenodd;stroke:#000000;stroke-width:0.27000085;stroke-linecap:butt;stroke-linejoin:round;stroke-miterlimit:10;stroke-dasharray:none;stroke-opacity:1"
     d="m 279.20982,905.2039 -0.27008,-3.82701 -0.40513,-3.46069 -0.77168,-3.0057 -1.09964,-2.64131 -1.17681,-2.00315 -1.33114,-1.1857 -1.44689,-0.54561 -1.60123,0.54561 -1.31185,1.1857 -1.1961,2.00315 -0.90672,2.64131 -0.81026,3.0057 -0.50159,3.46069 -0.13504,3.82701 0.13504,3.82508 0.50159,3.59758 0.81026,3.05196 0.90672,2.64131 1.1961,1.82193 1.31185,1.32065 1.60123,0.40873 1.44689,-0.40873 1.33114,-1.32065 1.17681,-1.82193 1.09964,-2.64131 0.77168,-3.05196 0.40513,-3.59758 0.27008,-3.82508 z" /><path
     inkscape:connector-curvature="0"
     id="path3652"
     style="fill:none;stroke:#ffffff;stroke-width:1.09213412;stroke-linecap:butt;stroke-linejoin:round;stroke-miterlimit:10;stroke-dasharray:none;stroke-opacity:1"
     d="m 278.95903,904.95326 -0.27009,-3.827 -0.40513,-3.4607 -0.77168,-3.00569 -1.09963,-2.64131 -1.17681,-2.00316 -1.33114,-1.1857 -1.4469,-0.54561 -1.60123,0.54561 -1.31185,1.1857 -1.19609,2.00316 -0.90672,2.64131 -0.81026,3.00569 -0.50159,3.4607 -0.13505,3.827 0.13505,3.82508 0.50159,3.59758 0.81026,3.05197 0.90672,2.64131 1.19609,1.82192 1.31185,1.32066 1.60123,0.40873 1.4469,-0.40873 1.33114,-1.32066 1.17681,-1.82192 1.09963,-2.64131 0.77168,-3.05197 0.40513,-3.59758 0.27009,-3.82508" /><path
     inkscape:connector-curvature="0"
     id="path3654"
     style="fill:#000000;fill-opacity:1;fill-rule:evenodd;stroke:#000000;stroke-width:0.27000085;stroke-linecap:butt;stroke-linejoin:round;stroke-miterlimit:10;stroke-dasharray:none;stroke-opacity:1"
     d="m 200.59527,930.75327 0,-40.48723 28.45558,-1.73131 0,39.44034 0,0.36439 0,0.27184 -0.13505,0.27377 -0.27008,0.13689 -17.61352,7.15082 -1.1961,0.27184 -1.04176,-0.40873 -8.19907,-5.28262 z" /><path
     inkscape:connector-curvature="0"
     id="path3656"
     style="fill:none;stroke:#ffffff;stroke-width:1.09213412;stroke-linecap:butt;stroke-linejoin:round;stroke-miterlimit:10;stroke-dasharray:none;stroke-opacity:1"
     d="m 200.34448,930.50264 0,-40.48724 28.45557,-1.73131 0,39.44035 0,0.36438 0,0.27185 -0.13504,0.27377 -0.27009,0.13688 -17.61352,7.15082 -1.19609,0.27184 -1.04177,-0.40872 -8.19906,-5.28262" /><path
     inkscape:connector-curvature="0"
     id="path3658"
     style="fill:#000000;fill-opacity:1;fill-rule:evenodd;stroke:#000000;stroke-width:0.27000085;stroke-linecap:butt;stroke-linejoin:round;stroke-miterlimit:10;stroke-dasharray:none;stroke-opacity:1"
     d="m 192.49846,851.78581 3.87188,0.13496 3.54972,0.36631 3.04812,0.67479 2.64299,0.90614 2.00636,0.96399 1.17681,1.17605 0.40513,1.19534 -0.40513,1.31102 -1.17681,1.19533 -2.00636,0.90615 -2.64299,0.96398 -3.04812,0.50127 -3.54972,0.53983 -3.87188,0.13496 -3.68669,-0.13496 -3.55164,-0.53983 -3.05005,-0.50127 -2.63913,-0.96398 -2.0025,-0.90615 -1.18453,-1.19533 -0.40899,-1.31102 0.40899,-1.19534 1.18453,-1.17605 2.0025,-0.96399 2.63913,-0.90614 3.05005,-0.67479 3.55164,-0.36631 3.68669,-0.13496 z" /><path
     inkscape:connector-curvature="0"
     id="path3660"
     style="fill:none;stroke:#ffffff;stroke-width:1.09213412;stroke-linecap:butt;stroke-linejoin:round;stroke-miterlimit:10;stroke-dasharray:none;stroke-opacity:1"
     d="m 192.24766,851.53518 3.87189,0.13496 3.54971,0.36631 3.04812,0.67479 2.643,0.90614 2.00636,0.96398 1.1768,1.17606 0.40513,1.19534 -0.40513,1.31101 -1.1768,1.19534 -2.00636,0.90614 -2.643,0.96398 -3.04812,0.50127 -3.54971,0.53983 -3.87189,0.13496 -3.68668,-0.13496 -3.55164,-0.53983 -3.04813,-0.50127 -2.64106,-0.96398 -2.0025,-0.90614 -1.18452,-1.19534 -0.40899,-1.31101 0.40899,-1.19534 1.18452,-1.17606 2.0025,-0.96398 2.64106,-0.90614 3.04813,-0.67479 3.55164,-0.36631 3.68668,-0.13496" /><path
     inkscape:connector-curvature="0"
     id="path3662"
     style="fill:#ffffff;fill-opacity:1;fill-rule:evenodd;stroke:#ffffff;stroke-width:0.27000085;stroke-linecap:butt;stroke-linejoin:round;stroke-miterlimit:10;stroke-dasharray:none;stroke-opacity:1"
     d="m 188.12884,854.02225 9.01318,0 0,3.3161 -0.40513,0.50127 -1.06105,0.40487 -1.4469,0.13496 -1.59351,0.13496 -1.68418,-0.13496 -1.45654,-0.13496 -1.09385,-0.40487 -0.27202,-0.50127 0,-3.3161 z" /><path
     inkscape:connector-curvature="0"
     id="path3664"
     style="fill:none;stroke:#ffffff;stroke-width:1.09213412;stroke-linecap:butt;stroke-linejoin:round;stroke-miterlimit:10;stroke-dasharray:none;stroke-opacity:1"
     d="m 187.87804,853.77162 9.01319,0 0,3.31609 -0.40513,0.50127 -1.06106,0.40488 -1.44689,0.13495 -1.59351,0.13496 -1.68419,-0.13496 -1.45654,-0.13495 -1.09385,-0.40488 -0.27202,-0.50127 0,-3.31609" /><path
     inkscape:connector-curvature="0"
     id="path3666"
     style="fill:#ffffff;fill-opacity:1;fill-rule:evenodd;stroke:#ffffff;stroke-width:0.27000085;stroke-linecap:butt;stroke-linejoin:round;stroke-miterlimit:10;stroke-dasharray:none;stroke-opacity:1"
     d="m 192.63543,852.05573 1.8636,0.0964 1.46618,0.40487 1.04177,0.40487 0.27008,0.63623 -0.27008,0.69407 -1.04177,0.40487 -1.46618,0.36631 -1.8636,0.13496 -1.95813,-0.13496 -1.45654,-0.36631 -1.09192,-0.40487 -0.22765,-0.69407 0.22765,-0.63623 1.09192,-0.40487 1.45654,-0.40487 1.95813,-0.0964 z" /><path
     inkscape:connector-curvature="0"
     id="path3668"
     style="fill:#000000;fill-opacity:1;fill-rule:evenodd;stroke:#000000;stroke-width:0.27000085;stroke-linecap:butt;stroke-linejoin:round;stroke-miterlimit:10;stroke-dasharray:none;stroke-opacity:1"
     d="m 192.63543,852.557 1.59351,0.13496 1.31185,0.26991 0.82955,0.40487 0.36655,0.50127 -0.36655,0.55911 -0.82955,0.40488 -1.31185,0.36631 -1.59351,0 -1.68418,0 -1.23083,-0.36631 -0.90865,-0.40488 -0.41091,-0.55911 0.41091,-0.50127 0.90865,-0.40487 1.23083,-0.26991 1.68418,-0.13496 z" /><path
     inkscape:connector-curvature="0"
     id="path3670"
     style="fill:none;stroke:#000000;stroke-width:1.09213412;stroke-linecap:butt;stroke-linejoin:round;stroke-miterlimit:10;stroke-dasharray:none;stroke-opacity:1"
     d="m 192.38464,852.30636 1.59351,0.13496 1.31185,0.26992 0.82955,0.40487 0.36655,0.50127 -0.36655,0.55911 -0.82955,0.40487 -1.31185,0.36631 -1.59351,0 -1.68419,0 -1.22889,-0.36631 -0.91058,-0.40487 -0.41092,-0.55911 0.41092,-0.50127 0.91058,-0.40487 1.22889,-0.26992 1.68419,-0.13496" /><path
     inkscape:connector-curvature="0"
     id="path3672"
     style="fill:#000000;fill-opacity:1;fill-rule:evenodd;stroke:#000000;stroke-width:0.27000085;stroke-linecap:butt;stroke-linejoin:round;stroke-miterlimit:10;stroke-dasharray:none;stroke-opacity:1"
     d="m 181.93806,886.80341 14.79883,0 0,10.9759 0,11.02217 0,10.97589 0,11.47524 -0.50159,1.1857 -1.06105,0.95627 -1.4469,0.63623 -1.73048,0.54754 -2.0025,0.13689 -1.95813,0 -1.86553,-0.13689 -1.73048,-0.54754 -1.31957,-0.63623 -0.77361,-0.95627 -0.40899,-1.1857 0,-44.4492 z" /><path
     inkscape:connector-curvature="0"
     id="path3674"
     style="fill:none;stroke:#ffffff;stroke-width:1.09213412;stroke-linecap:butt;stroke-linejoin:round;stroke-miterlimit:10;stroke-dasharray:none;stroke-opacity:1"
     d="m 181.68727,886.55278 14.79883,0 0,10.9759 0,11.02216 0,10.9759 0,11.47524 -0.50159,1.1857 -1.04177,0.95627 -1.46618,0.63622 -1.73049,0.54754 -2.0025,0.13689 -1.9562,0 -1.86746,-0.13689 -1.72855,-0.54754 -1.3215,-0.63622 -0.7736,-0.95627 -0.40899,-1.1857 0,-44.4492" /><path
     inkscape:connector-curvature="0"
     id="path3676"
     style="fill:#000000;fill-opacity:1;fill-rule:evenodd;stroke:#000000;stroke-width:0.27000085;stroke-linecap:butt;stroke-linejoin:round;stroke-miterlimit:10;stroke-dasharray:none;stroke-opacity:1"
     d="m 189.35773,884.1621 2.23015,0 2.00443,0.41066 1.58194,0.54561 1.06105,0.63816 0.40513,0.81938 -0.40513,0.63816 -1.06105,0.6825 -1.58194,0.50127 -2.00443,0.41066 -2.23015,0.13688 -2.27644,-0.13688 -2.09317,-0.41066 -1.59352,-0.50127 -0.95688,-0.6825 -0.36461,-0.63816 0.36461,-0.81938 0.95688,-0.63816 1.59352,-0.54561 2.09317,-0.41066 2.27644,0 z" /><path
     inkscape:connector-curvature="0"
     id="path3678"
     style="fill:none;stroke:#ffffff;stroke-width:1.09213412;stroke-linecap:butt;stroke-linejoin:round;stroke-miterlimit:10;stroke-dasharray:none;stroke-opacity:1"
     d="m 189.10694,883.91147 2.23014,0 2.00251,0.41066 1.60315,0.54561 1.04177,0.63815 0.40513,0.81939 -0.40513,0.63816 -1.04177,0.68249 -1.60315,0.50127 -2.00251,0.41066 -2.23014,0.13689 -2.27645,-0.13689 -2.09317,-0.41066 -1.59351,-0.50127 -0.95688,-0.68249 -0.36269,-0.63816 0.36269,-0.81939 0.95688,-0.63815 1.59351,-0.54561 2.09317,-0.41066 2.27645,0" /><path
     inkscape:connector-curvature="0"
     id="path3680"
     style="fill:#ffffff;fill-opacity:1;fill-rule:evenodd;stroke:#ffffff;stroke-width:0.27000085;stroke-linecap:butt;stroke-linejoin:round;stroke-miterlimit:10;stroke-dasharray:none;stroke-opacity:1"
     d="m 187.35523,885.11837 3.9587,0 0,1.45754 -0.27201,0.2275 -0.77361,0.13689 -0.91058,0.13689 -0.95687,-0.13689 -0.77361,-0.13689 -0.27202,-0.2275 0,-1.45754 z" /><path
     inkscape:connector-curvature="0"
     id="path3682"
     style="fill:none;stroke:#ffffff;stroke-width:1.09213412;stroke-linecap:butt;stroke-linejoin:round;stroke-miterlimit:10;stroke-dasharray:none;stroke-opacity:1"
     d="m 187.10444,884.86774 3.96063,0 0,1.45754 -0.27395,0.2275 -0.7736,0.13688 -0.91058,0.13689 -0.95688,-0.13689 -0.77361,-0.13688 -0.27201,-0.2275 0,-1.45754" /><path
     inkscape:connector-curvature="0"
     id="path3684"
     style="fill:#ffffff;fill-opacity:1;fill-rule:evenodd;stroke:#ffffff;stroke-width:0.27000085;stroke-linecap:butt;stroke-linejoin:round;stroke-miterlimit:10;stroke-dasharray:none;stroke-opacity:1"
     d="m 189.35773,884.1621 0.63664,0.13689 0.54596,0 0.50159,0.27377 0.27201,0.13689 0.13698,0.27184 -0.13698,0.13688 -0.27201,0.2275 -0.50159,0.13689 -0.54596,0.13688 -0.63664,0 -0.68293,0 -0.54596,-0.13688 -0.50159,-0.13689 -0.27202,-0.2275 -0.13697,-0.13688 0.13697,-0.27184 0.27202,-0.13689 0.50159,-0.27377 0.54596,0 0.68293,-0.13689 z" /><path
     inkscape:connector-curvature="0"
     id="path3686"
     style="fill:#000000;fill-opacity:1;fill-rule:evenodd;stroke:#000000;stroke-width:0.27000085;stroke-linecap:butt;stroke-linejoin:round;stroke-miterlimit:10;stroke-dasharray:none;stroke-opacity:1"
     d="m 189.35773,884.43588 0.49966,0 0.54597,0.13688 0.41091,0.13689 0.22765,0.13688 0.13697,0.27184 -0.13697,0.13689 -0.22765,0.0906 -0.41091,0.13689 -0.54597,0.13688 -0.49966,0 -0.54596,0 -0.54789,-0.13688 -0.36269,-0.13689 -0.27394,-0.0906 -0.13697,-0.13689 0.13697,-0.27184 0.27394,-0.13688 0.36269,-0.13689 0.54789,-0.13688 0.54596,0 z" /><path
     inkscape:connector-curvature="0"
     id="path3688"
     style="fill:none;stroke:#000000;stroke-width:1.09213412;stroke-linecap:butt;stroke-linejoin:round;stroke-miterlimit:10;stroke-dasharray:none;stroke-opacity:1"
     d="m 189.10694,884.18524 0.49966,0 0.54789,0.13689 0.40899,0.13688 0.22764,0.13689 0.13698,0.27184 -0.13698,0.13688 -0.22764,0.0906 -0.40899,0.13688 -0.54789,0.13689 -0.49966,0 -0.54596,0 -0.54596,-0.13689 -0.36462,-0.13688 -0.27395,-0.0906 -0.13504,-0.13688 0.13504,-0.27184 0.27395,-0.13689 0.36462,-0.13688 0.54596,-0.13689 0.54596,0" /><path
     inkscape:connector-curvature="0"
     id="path3690"
     style="fill:#000000;fill-opacity:1;fill-rule:evenodd;stroke:#000000;stroke-width:0.27000085;stroke-linecap:butt;stroke-linejoin:round;stroke-miterlimit:10;stroke-dasharray:none;stroke-opacity:1"
     d="m 169.73786,885.25526 9.42217,0 0,9.65524 0,9.79213 0,9.74585 0,10.20086 -0.54596,0.91192 -0.91058,0.6825 -1.1826,0.54562 -1.45654,0.0925 -1.59351,0.13689 -1.31956,-0.22943 -1.18453,-0.40873 -0.95495,-0.81939 -0.27394,-0.91192 0,-39.39408 z" /><path
     inkscape:connector-curvature="0"
     id="path3692"
     style="fill:none;stroke:#ffffff;stroke-width:1.09213412;stroke-linecap:butt;stroke-linejoin:round;stroke-miterlimit:10;stroke-dasharray:none;stroke-opacity:1"
     d="m 169.48706,885.00462 9.4241,0 0,9.65525 0,9.79212 0,9.74586 0,10.20085 -0.54789,0.91193 -0.90865,0.6825 -1.18452,0.54754 -1.45654,0.0906 -1.59351,0.13689 -1.31957,-0.2275 -1.18452,-0.41066 -0.95495,-0.81938 -0.27395,-0.91193 0,-39.39408" /><path
     inkscape:connector-curvature="0"
     id="path3694"
     style="fill:#000000;fill-opacity:1;fill-rule:evenodd;stroke:#000000;stroke-width:0.27000085;stroke-linecap:butt;stroke-linejoin:round;stroke-miterlimit:10;stroke-dasharray:none;stroke-opacity:1"
     d="m 174.38142,883.38899 1.86553,0.13496 1.45654,0.41065 1.04755,0.36439 0.40899,0.6825 -0.40899,0.63815 -1.04755,0.41066 -1.45654,0.40873 -1.86553,0.13688 -1.86746,-0.13688 -1.45654,-0.40873 -0.90864,-0.41066 -0.41092,-0.63815 0.41092,-0.6825 0.90864,-0.36439 1.45654,-0.41065 1.86746,-0.13496 z" /><path
     inkscape:connector-curvature="0"
     id="path3696"
     style="fill:none;stroke:#ffffff;stroke-width:1.09213412;stroke-linecap:butt;stroke-linejoin:round;stroke-miterlimit:10;stroke-dasharray:none;stroke-opacity:1"
     d="m 174.13063,883.13836 1.86745,0.13688 1.45654,0.40873 1.04562,0.36438 0.41092,0.6825 -0.41092,0.63816 -1.04562,0.41066 -1.45654,0.40872 -1.86745,0.13689 -1.86553,-0.13689 -1.45654,-0.40872 -0.91058,-0.41066 -0.41092,-0.63816 0.41092,-0.6825 0.91058,-0.36438 1.45654,-0.40873 1.86553,-0.13688" /><path
     inkscape:connector-curvature="0"
     id="path3698"
     style="fill:#ffffff;fill-opacity:1;fill-rule:evenodd;stroke:#ffffff;stroke-width:0.27000085;stroke-linecap:butt;stroke-linejoin:round;stroke-miterlimit:10;stroke-dasharray:none;stroke-opacity:1"
     d="m 173.1969,884.02522 2.50409,0 0,0.95627 -0.27202,0.27377 -0.63856,0.0906 -0.68293,0 -0.63664,-0.0906 -0.27394,-0.27377 0,-0.95627 z" /><path
     inkscape:connector-curvature="0"
     id="path3700"
     style="fill:none;stroke:#ffffff;stroke-width:1.09213412;stroke-linecap:butt;stroke-linejoin:round;stroke-miterlimit:10;stroke-dasharray:none;stroke-opacity:1"
     d="m 172.94803,883.77458 2.50216,0 0,0.95627 -0.27201,0.27377 -0.63857,0.0906 -0.681,0 -0.63856,-0.0906 -0.27202,-0.27377 0,-0.95627" /><path
     inkscape:connector-curvature="0"
     id="path3702"
     style="fill:#ffffff;fill-opacity:1;fill-rule:evenodd;stroke:#ffffff;stroke-width:0.27000085;stroke-linecap:butt;stroke-linejoin:round;stroke-miterlimit:10;stroke-dasharray:none;stroke-opacity:1"
     d="m 174.38142,883.52395 0.54596,0 0.50159,0.13688 0.27202,0.13689 0,0.13688 0,0.2275 -0.27202,0.13689 -0.50159,0 -0.54596,0.13689 -0.50159,-0.13689 -0.40899,0 -0.27394,-0.13689 -0.13505,-0.2275 0.13505,-0.13688 0.27394,-0.13689 0.40899,-0.13688 0.50159,0 z" /><path
     inkscape:connector-curvature="0"
     id="path3704"
     style="fill:#000000;fill-opacity:1;fill-rule:evenodd;stroke:#000000;stroke-width:0.27000085;stroke-linecap:butt;stroke-linejoin:round;stroke-miterlimit:10;stroke-dasharray:none;stroke-opacity:1"
     d="m 174.38142,883.66083 0.54596,0 0.40899,0.13689 0.22765,0.13688 0,0.0906 0,0.13688 -0.22765,0.13689 -0.40899,0.13689 -0.54596,0 -0.40899,0 -0.36461,-0.13689 -0.27395,-0.13689 0,-0.13688 0,-0.0906 0.27395,-0.13688 0.36461,-0.13689 0.40899,0 z" /><path
     inkscape:connector-curvature="0"
     id="path3706"
     style="fill:none;stroke:#000000;stroke-width:1.09213412;stroke-linecap:butt;stroke-linejoin:round;stroke-miterlimit:10;stroke-dasharray:none;stroke-opacity:1"
     d="m 174.13063,883.4102 0.54596,0 0.41092,0.13688 0.22764,0.13689 0,0.0906 0,0.13689 -0.22764,0.13688 -0.41092,0.13689 -0.54596,0 -0.40899,0 -0.36462,-0.13689 -0.27394,-0.13688 0,-0.13689 0,-0.0906 0.27394,-0.13689 0.36462,-0.13688 0.40899,0" /><path
     inkscape:connector-curvature="0"
     id="path3708"
     style="fill:#000000;fill-opacity:1;fill-rule:evenodd;stroke:#000000;stroke-width:0.27000085;stroke-linecap:butt;stroke-linejoin:round;stroke-miterlimit:10;stroke-dasharray:none;stroke-opacity:1"
     d="m 201.65633,889.58161 16.91901,-6.60328 0.42442,-0.13688 0.40513,0 0.36655,0.13688 0.54017,0.27378 8.60419,4.50757 0.13505,0.13689 0,0.2275 -0.13505,0.27377 -0.13504,0.27377 -0.13504,0.13689 -0.27009,0.27184 -17.07334,7.2877 -0.36655,0.0906 -0.40513,0 -0.55947,0 -0.40513,-0.0906 -0.36654,-0.13688 -8.10261,-5.3289 -0.13504,-0.0906 0,-0.27377 0,-0.27184 0.27009,-0.27377 0.13504,-0.13689 0.28938,-0.27377 z" /><path
     inkscape:connector-curvature="0"
     id="path3710"
     style="fill:none;stroke:#ffffff;stroke-width:1.09213412;stroke-linecap:butt;stroke-linejoin:round;stroke-miterlimit:10;stroke-dasharray:none;stroke-opacity:1"
     d="m 201.40553,889.33097 16.91901,-6.60327 0.42442,-0.13689 0.40514,0 0.36654,0.13689 0.54018,0.27377 8.60419,4.50758 0.13504,0.13688 0,0.2275 -0.13504,0.27377 -0.13504,0.27378 -0.13505,0.13688 -0.27008,0.27184 -17.07335,7.28771 -0.36655,0.0906 -0.40513,0 -0.55946,0 -0.40513,-0.0906 -0.36655,-0.13689 -8.1026,-5.32889 -0.13504,-0.0906 0,-0.27378 0,-0.27184 0.27008,-0.27377 0.13505,-0.13688 0.28937,-0.27378" /><path
     inkscape:connector-curvature="0"
     id="path3712"
     style="fill:#ffffff;fill-opacity:1;fill-rule:evenodd;stroke:#ffffff;stroke-width:0.27000085;stroke-linecap:butt;stroke-linejoin:round;stroke-miterlimit:10;stroke-dasharray:none;stroke-opacity:1"
     d="m 207.05807,889.35411 6.25058,0 0,2.23258 -0.42443,0.40873 -0.77167,0.27377 -1.17681,0.0906 -1.36973,0 -1.1768,-0.0906 -0.90672,-0.27377 -0.42442,-0.40873 0,-2.23258 z" /><path
     inkscape:connector-curvature="0"
     id="path3714"
     style="fill:none;stroke:#ffffff;stroke-width:1.09213412;stroke-linecap:butt;stroke-linejoin:round;stroke-miterlimit:10;stroke-dasharray:none;stroke-opacity:1"
     d="m 206.80727,889.10347 6.25058,0 0,2.23259 -0.42442,0.40872 -0.77168,0.27378 -1.17681,0.0906 -1.36972,0 -1.17681,-0.0906 -0.90672,-0.27378 -0.42442,-0.40872 0,-2.23259" /><path
     inkscape:connector-curvature="0"
     id="path3716"
     style="fill:#ffffff;fill-opacity:1;fill-rule:evenodd;stroke:#ffffff;stroke-width:0.27000085;stroke-linecap:butt;stroke-linejoin:round;stroke-miterlimit:10;stroke-dasharray:none;stroke-opacity:1"
     d="m 210.24123,888.03346 1.60123,0.0906 1.17681,0.41066 0.42442,0.54561 -0.42442,0.50127 -1.17681,0.41066 -1.60123,0.13688 -1.71698,-0.13688 -1.1961,-0.41066 -0.40513,-0.50127 0.40513,-0.54561 1.1961,-0.41066 1.71698,-0.0906 z" /><path
     inkscape:connector-curvature="0"
     id="path3718"
     style="fill:#000000;fill-opacity:1;fill-rule:evenodd;stroke:#000000;stroke-width:0.27000085;stroke-linecap:butt;stroke-linejoin:round;stroke-miterlimit:10;stroke-dasharray:none;stroke-opacity:1"
     d="m 210.24123,888.39784 1.46619,0.13689 0.90672,0.27377 0.40513,0.54561 -0.40513,0.36439 -0.90672,0.41065 -1.46619,0.13689 -1.44689,-0.13689 -1.04177,-0.41065 -0.42442,-0.36439 0.42442,-0.54561 1.04177,-0.27377 1.44689,-0.13689 z" /><path
     inkscape:connector-curvature="0"
     id="path3720"
     style="fill:none;stroke:#000000;stroke-width:1.09213412;stroke-linecap:butt;stroke-linejoin:round;stroke-miterlimit:10;stroke-dasharray:none;stroke-opacity:1"
     d="m 210.00973,888.1472 1.44689,0.13689 0.90672,0.27377 0.40513,0.54561 -0.40513,0.36439 -0.90672,0.41066 -1.44689,0.13688 -1.46619,-0.13688 -1.04176,-0.41066 -0.40513,-0.36439 0.40513,-0.54561 1.04176,-0.27377 1.46619,-0.13689" /><path
     inkscape:connector-curvature="0"
     id="path3722"
     style="fill:#ffffff;fill-opacity:1;fill-rule:evenodd;stroke:#ffffff;stroke-width:0.27000085;stroke-linecap:butt;stroke-linejoin:round;stroke-miterlimit:10;stroke-dasharray:none;stroke-opacity:1"
     d="m 215.66226,885.89342 6.25058,0 0,2.23065 -0.42442,0.41066 -0.77168,0.27377 -1.23468,0.13688 -1.31185,0 -1.17681,-0.13688 -0.90672,-0.27377 -0.42442,-0.41066 0,-2.23065 z" /><path
     inkscape:connector-curvature="0"
     id="path3724"
     style="fill:none;stroke:#ffffff;stroke-width:1.09213412;stroke-linecap:butt;stroke-linejoin:round;stroke-miterlimit:10;stroke-dasharray:none;stroke-opacity:1"
     d="m 215.41146,885.64278 6.25058,0 0,2.23065 -0.42442,0.41066 -0.77167,0.27377 -1.23469,0.13689 -1.31185,0 -1.1768,-0.13689 -0.90672,-0.27377 -0.42443,-0.41066 0,-2.23065" /><path
     inkscape:connector-curvature="0"
     id="path3726"
     style="fill:#ffffff;fill-opacity:1;fill-rule:evenodd;stroke:#ffffff;stroke-width:0.27000085;stroke-linecap:butt;stroke-linejoin:round;stroke-miterlimit:10;stroke-dasharray:none;stroke-opacity:1"
     d="m 218.84542,884.57276 1.60123,0.13689 1.17681,0.40872 0.42442,0.50127 -0.42442,0.54755 -1.17681,0.40872 -1.60123,0.13689 -1.71698,-0.13689 -1.19609,-0.40872 -0.40513,-0.54755 0.40513,-0.50127 1.19609,-0.40872 1.71698,-0.13689 z" /><path
     inkscape:connector-curvature="0"
     id="path3728"
     style="fill:#000000;fill-opacity:1;fill-rule:evenodd;stroke:#000000;stroke-width:0.27000085;stroke-linecap:butt;stroke-linejoin:round;stroke-miterlimit:10;stroke-dasharray:none;stroke-opacity:1"
     d="m 218.84542,884.98149 1.46619,0.13688 0.90672,0.2275 0.40513,0.54755 -0.40513,0.40872 -0.90672,0.41066 -1.46619,0.0906 -1.44689,-0.0906 -1.04176,-0.41066 -0.42442,-0.40872 0.42442,-0.54755 1.04176,-0.2275 1.44689,-0.13688 z" /><path
     inkscape:connector-curvature="0"
     id="path3730"
     style="fill:none;stroke:#000000;stroke-width:1.09213412;stroke-linecap:butt;stroke-linejoin:round;stroke-miterlimit:10;stroke-dasharray:none;stroke-opacity:1"
     d="m 218.59463,884.73085 1.46619,0.13689 0.90672,0.2275 0.40513,0.54754 -0.40513,0.41066 -0.90672,0.40872 -1.46619,0.0906 -1.44689,-0.0906 -1.04177,-0.40872 -0.42442,-0.41066 0.42442,-0.54754 1.04177,-0.2275 1.44689,-0.13689" /><path
     inkscape:connector-curvature="0"
     id="path3732"
     style="fill:#000000;fill-opacity:1;fill-rule:evenodd;stroke:#000000;stroke-width:0.27000085;stroke-linecap:butt;stroke-linejoin:round;stroke-miterlimit:10;stroke-dasharray:none;stroke-opacity:1"
     d="m 251.54522,870.5449 0.90672,-0.40873 0.54017,-0.77504 0.27009,-1.04689 0.13504,-1.04881 0,-1.32065 1.06106,2.36946 0.54017,2.23066 0.0965,2.27692 -0.2315,2.36947 1.31185,-0.91193 0.63663,-1.09315 0.55947,-1.32066 0.27008,-1.59442 0.50159,1.45754 0.40513,1.32065 0,1.32066 -0.13504,1.45754 -0.63663,1.45754 -1.09964,1.73131 1.09964,-0.27377 0.77167,-0.63816 0.54018,-0.81938 0.50159,-0.91 0.40513,-0.77504 -0.27009,2.36947 -0.40513,2.23065 -0.63663,2.14004 -0.90672,1.68504 -1.23469,1.59442 -1.67839,1.18377 -2.00636,0.68443 -2.37291,0.27184 1.46619,-0.95627 1.17681,-1.32065 0.63663,-1.45754 0.69451,-1.54816 -0.92601,0.50127 -0.67522,0.27378 -0.67522,0.13688 -0.63663,0.13496 0.63663,-1.45561 0.40513,-0.91193 0.27009,-0.54561 0,-0.41066 -0.67522,0.54754 -0.77167,0.63623 -0.69451,0.81938 0.13504,-2.14004 0,-1.68504 0,-1.45754 -0.13504,-1.59249 -0.50159,-1.73132 -0.27009,0.91 -0.13504,1.32066 -0.27009,1.32065 -0.2315,1.32066 -0.54018,0.9582 -0.69451,-0.68443 -0.50159,-0.77311 -0.54017,-0.82132 -0.54017,-1.04688 -0.23151,1.18377 0.13505,1.32065 0.2315,1.32066 0.27009,1.73131 0,2.14004 -1.04177,-0.95627 -0.82955,-1.18377 -0.50159,-1.32066 -0.54017,-1.45754 -0.50159,-1.45754 -0.13504,1.59443 0.13504,1.32065 0.2315,1.18377 -0.0965,0 -0.13504,0 -0.13504,0 -0.13505,-0.13688 0,0 -0.13504,0 -0.13504,-0.13689 -0.28938,-0.2275 -0.40513,-0.27184 -0.36655,-0.27377 0.63663,1.59443 0.55947,1.45561 0.54017,1.1857 0.63664,1.18377 0.77167,0.81938 1.23468,0.63816 1.58194,0.40872 -2.91308,-0.27184 -2.41149,-0.54754 -1.81344,-0.77311 -1.36972,-1.04882 -1.04177,-1.18377 -0.77167,-1.23004 -0.40513,-1.45754 -0.42443,-1.45754 -0.21221,-1.41127 -0.15433,-1.45754 -0.27009,-1.32065 -0.40513,-1.32066 1.33114,0.0906 0.81026,0.13688 0.77168,0.13689 0.77168,0.41065 1.23468,0.63816 -0.40513,-1.1857 -0.13504,-0.77311 0,-0.54754 0.13504,-0.50127 0,-0.6825 -0.13504,-1.04689 -0.42443,-1.32065 0.82956,0.40873 0.50159,0.63815 0.54017,0.54755 0.54017,0.49934 0.79097,0.54754 0.40513,-2.00508 0.27009,-1.45562 0,-1.55008 -0.27009,-1.5925 -0.40513,-2.00508 1.4469,0.54754 0.90672,0.77312 0.82955,1.04881 0.50159,1.32065 0.67521,1.365 0.40513,-1.86627 0,-1.45754 -0.27008,-1.45754 -0.54018,-1.18569 -0.36654,-1.31102 -0.27009,-1.33029 0,-1.46526 1.04176,-2.27499 0.13505,1.09894 0.40513,1.46525 0.50159,1.17606 0.27008,0.90614 0.92602,1.33029 0.81026,1.17606 0.77167,1.18955 0.55947,1.22812 0.40513,1.41319 0,1.45754 -0.40513,1.72939 z" /><path
     inkscape:connector-curvature="0"
     id="path3734"
     style="fill:none;stroke:#000000;stroke-width:1.09213412;stroke-linecap:butt;stroke-linejoin:round;stroke-miterlimit:10;stroke-dasharray:none;stroke-opacity:1"
     d="m 251.29442,870.29426 0.90672,-0.40873 0.54018,-0.77504 0.27008,-1.04688 0.13505,-1.04688 0,-1.32259 1.06105,2.36947 0.54018,2.23065 0.0965,2.27693 -0.23151,2.36947 1.31185,-0.91193 0.63664,-1.09316 0.55946,-1.32065 0.27009,-1.5925 0.50159,1.45561 0.40513,1.32259 0,1.32065 -0.13504,1.45561 -0.63664,1.45754 -1.09964,1.73131 1.09964,-0.27377 0.77168,-0.63622 0.54017,-0.82132 0.50159,-0.91 0.40513,-0.77504 -0.27008,2.36947 -0.40513,2.23065 -0.63664,2.14004 -0.90672,1.68504 -1.23468,1.59443 -1.6784,1.18377 -2.00636,0.68443 -2.3729,0.27184 1.46618,-0.95627 1.17681,-1.32066 0.63663,-1.45754 0.69451,-1.54815 -0.92601,0.50127 -0.67522,0.27377 -0.67521,0.13689 -0.63664,0.13688 0.63664,-1.45754 0.40513,-0.91193 0.27008,-0.54561 0,-0.41066 -0.67521,0.54755 -0.77168,0.63622 -0.69451,0.82132 0.13504,-2.14197 0,-1.68504 0,-1.45754 -0.13504,-1.5925 -0.50159,-1.73131 -0.27009,0.91 -0.13504,1.32065 -0.27009,1.32066 -0.2315,1.32258 -0.54017,0.95627 -0.69451,-0.68443 -0.50159,-0.77311 -0.54017,-0.82131 -0.54018,-1.04689 -0.2315,1.18377 0.13504,1.32066 0.23151,1.32065 0.27008,1.73131 0,2.14004 -1.04176,-0.95627 -0.82955,-1.18377 -0.50159,-1.32065 -0.54018,-1.45754 -0.50159,-1.45754 -0.13504,1.59442 0.13504,1.32066 0.23151,1.18377 -0.0965,0 -0.13505,0 -0.13504,0 -0.13504,-0.13689 0,0 -0.13505,0 -0.13504,-0.13688 -0.28938,-0.2275 -0.40513,-0.27184 -0.36655,-0.27377 0.63664,1.59442 0.55946,1.45754 0.54018,1.18377 0.63663,1.18377 0.77168,0.81938 1.23468,0.63816 1.58194,0.40873 -2.91308,-0.27184 -2.41149,-0.54755 -1.81344,-0.77311 -1.36973,-1.04881 -1.04176,-1.18377 -0.77168,-1.23004 -0.40513,-1.45754 -0.42442,-1.45561 -0.21221,-1.4132 -0.13504,-1.45754 -0.28938,-1.32066 -0.40513,-1.32065 1.33114,0.0925 0.81026,0.13496 0.77168,0.13688 0.77167,0.41066 1.23468,0.63816 -0.40513,-1.1857 -0.13504,-0.77312 0,-0.54754 0.13504,-0.49934 0,-0.68443 -0.13504,-1.04688 -0.42442,-1.32066 0.82955,0.40873 0.50159,0.63816 0.54017,0.54754 0.54018,0.49934 0.79097,0.54754 0.40513,-2.00315 0.27008,-1.45754 0,-1.54815 -0.27008,-1.59443 -0.40513,-2.01087 1.44689,0.55333 0.90672,0.77311 0.82955,1.04881 0.50159,1.32066 0.67522,1.365 0.40513,-1.86627 0,-1.45754 -0.27009,-1.45754 -0.54017,-1.1857 -0.36655,-1.31101 -0.27008,-1.3303 0,-1.46525 1.04176,-2.275 0.13504,1.09894 0.40513,1.46525 0.50159,1.17606 0.28938,0.90614 0.90672,1.3303 0.81026,1.17606 0.77168,1.18955 0.55946,1.22811 0.40513,1.4132 0,1.45754 -0.40513,1.72938" /><path
     inkscape:connector-curvature="0"
     id="path3736"
     style="fill:#ffffff;fill-opacity:1;fill-rule:evenodd;stroke:#ffffff;stroke-width:0.27000085;stroke-linecap:butt;stroke-linejoin:round;stroke-miterlimit:10;stroke-dasharray:none;stroke-opacity:1"
     d="m 249.30736,887.6228 -1.46619,0.27377 1.69769,7.78897 -4.10918,4.3707 2.77804,1.73131 -2.64299,5.28262 5.42102,-6.51266 -2.77803,-1.18377 5.55607,-5.00885 1.09964,8.33266 2.91308,-1.72939 1.67839,7.28578 -0.36654,-9.7902 -3.04813,1.5925 -1.04176,-8.74332 -3.87767,2.91508 -1.81344,-6.6052 z" /><path
     inkscape:connector-curvature="0"
     id="path3738"
     style="fill:none;stroke:#ffffff;stroke-width:1.09213412;stroke-linecap:butt;stroke-linejoin:round;stroke-miterlimit:10;stroke-dasharray:none;stroke-opacity:1"
     d="m 209.85539,896.75556 0,38.89281" /><path
     inkscape:connector-curvature="0"
     id="path3740"
     style="fill:#ffffff;fill-opacity:1;fill-rule:evenodd;stroke:#ffffff;stroke-width:0.27000085;stroke-linecap:butt;stroke-linejoin:round;stroke-miterlimit:10;stroke-dasharray:none;stroke-opacity:1"
     d="m 277.06842,910.48652 0,-11.11278 -3.54971,0 -0.54017,0.41065 -0.40514,1.04689 -0.27008,1.45754 -0.15434,1.72938 0,1.8682 0.15434,1.68504 0.27008,1.45754 0.40514,1.09315 0.54017,0.36439 3.54971,0 z" /><path
     inkscape:connector-curvature="0"
     id="path3742"
     style="fill:none;stroke:#ffffff;stroke-width:1.09213412;stroke-linecap:butt;stroke-linejoin:round;stroke-miterlimit:10;stroke-dasharray:none;stroke-opacity:1"
     d="m 276.81763,910.23588 0,-11.11278 -3.54972,0 -0.54017,0.41066 -0.40513,1.04688 -0.27009,1.45754 -0.15433,1.72939 0,1.86819 0.15433,1.68504 0.27009,1.45754 0.40513,1.09316 0.54017,0.36438 3.54972,0" /><path
     inkscape:connector-curvature="0"
     id="path3744"
     style="fill:#ffffff;fill-opacity:1;fill-rule:evenodd;stroke:#ffffff;stroke-width:0.27000085;stroke-linecap:butt;stroke-linejoin:round;stroke-miterlimit:10;stroke-dasharray:none;stroke-opacity:1"
     d="m 279.20982,904.93013 -0.13504,-2.23258 -0.40513,-1.86627 -0.54017,-1.18377 -0.63664,-0.50127 -0.69451,0.50127 -0.50159,1.18377 -0.40513,1.86627 -0.13504,2.23258 0.13504,2.27692 0.40513,1.82193 0.50159,1.32065 0.69451,0.40873 0.63664,-0.40873 0.54017,-1.32065 0.40513,-1.82193 0.13504,-2.27692 z" /><path
     inkscape:connector-curvature="0"
     id="path3746"
     style="fill:#000000;fill-opacity:1;fill-rule:evenodd;stroke:#000000;stroke-width:0.27000085;stroke-linecap:butt;stroke-linejoin:round;stroke-miterlimit:10;stroke-dasharray:none;stroke-opacity:1"
     d="m 278.66965,904.93013 -0.13504,-1.95881 -0.27009,-1.59443 -0.50159,-1.04688 -0.55947,-0.41066 -0.67521,0.41066 -0.36655,1.04688 -0.27009,1.59443 -0.13504,1.95881 0.13504,2.00315 0.27009,1.59443 0.36655,1.04688 0.67521,0.41066 0.55947,-0.41066 0.50159,-1.04688 0.27009,-1.59443 0.13504,-2.00315 z" /><path
     inkscape:connector-curvature="0"
     id="path3748"
     style="fill:none;stroke:#000000;stroke-width:1.09213412;stroke-linecap:butt;stroke-linejoin:round;stroke-miterlimit:10;stroke-dasharray:none;stroke-opacity:1"
     d="m 278.41885,904.67949 -0.13504,-1.95881 -0.27009,-1.59442 -0.50159,-1.04689 -0.55946,-0.40873 -0.67522,0.40873 -0.36654,1.04689 -0.27009,1.59442 -0.13504,1.95881 0.13504,2.00316 0.27009,1.59442 0.36654,1.04689 0.67522,0.41065 0.55946,-0.41065 0.50159,-1.04689 0.27009,-1.59442 0.13504,-2.00316" /></g></svg>