<?xml version="1.0" encoding="UTF-8" standalone="no"?>
<!-- Created with Inkscape (http://www.inkscape.org/) -->

<svg
   xmlns:dc="http://purl.org/dc/elements/1.1/"
   xmlns:cc="http://creativecommons.org/ns#"
   xmlns:rdf="http://www.w3.org/1999/02/22-rdf-syntax-ns#"
   xmlns:svg="http://www.w3.org/2000/svg"
   xmlns="http://www.w3.org/2000/svg"
   version="1.1"
   width="90"
   height="90"
   id="svg6792">
  <defs
     id="defs6794" />
  <rect
     width="60"
     height="60"
     rx="0"
     ry="0"
     x="33.6395"
     y="-30"
     transform="matrix(0.707107,0.707107,-0.707107,0.707107,0,0)"
     id="rect6763"
     style="fill:#ffdd00;stroke:#231f20;stroke-width:0.7" />
  <rect
     width="51.25"
     height="51.25"
     x="-25.6255"
     y="38.0155"
     transform="matrix(0.707107,-0.707107,0.707107,0.707107,0,0)"
     id="rect6769"
     style="fill:none;stroke:#231f20;stroke-width:0.7" />
  <path
     d="M 49.5312,65.9688 C 49.3593,66.4485 49.0556,66.8589 48.5938,67.2188 48.1319,67.5787 47.7064,67.8086 47.3125,67.9375 L 47.3125,69.3125 C 48.0609,69.0654 48.6986,68.7032 49.25,68.1875 L 49.25,73.875 50.75,73.875 50.75,65.9688 49.5312,65.9688 z M 40.1875,66.0938 39.4375,70.1875 40.6562,70.375 C 41,69.9919 41.3792,69.8125 41.8125,69.8125 42.1598,69.8125 42.4397,69.9145 42.6562,70.1562 42.873,70.3979 43,70.7666 43,71.25 43,71.7656 42.8747,72.1502 42.6562,72.4062 42.4378,72.6623 42.1588,72.7812 41.8438,72.7812 41.568,72.7812 41.3362,72.6987 41.125,72.5 40.9137,72.3013 40.793,72.0276 40.75,71.6875 L 39.25,71.8438 C 39.3395,72.5027 39.6042,73.016 40.0625,73.4062 40.5208,73.7966 41.1168,74 41.8438,74 42.7533,74 43.4567,73.6634 43.9688,72.9688 44.3447,72.4603 44.5312,71.867 44.5312,71.2188 44.5312,70.4417 44.3092,69.7995 43.8438,69.3125 43.3783,68.8256 42.7946,68.5938 42.125,68.5938 41.7741,68.5938 41.4304,68.6754 41.0938,68.8438 L 41.3438,67.5 44.1875,67.5 44.1875,66.0938 40.1875,66.0938 z M 44.9062,72.3438 44.9062,73.875 46.4375,73.875 46.4375,72.3438 44.9062,72.3438 z"
     id="path3589"
     style="fill:#231f20;stroke:none;" />
  <path
     d="M 19.75,39.0625 C 18.8857,39.0625 18.1994,39.2067 17.6875,39.5 17.1756,39.7933 16.7721,40.1961 16.5,40.7188 16.2278,41.2413 16.0487,41.8629 15.9688,42.5938 15.8888,43.3246 15.8438,44.1361 15.8438,45 15.8438,45.8639 15.8888,46.6756 15.9688,47.4062 16.0487,48.1369 16.2278,48.7585 16.5,49.2812 16.7721,49.8041 17.1756,50.2067 17.6875,50.5 18.1994,50.7933 18.8857,50.9375 19.75,50.9375 20.6139,50.9375 21.3006,50.7933 21.8125,50.5 22.3244,50.2067 22.6966,49.8041 22.9688,49.2812 23.2409,48.7585 23.4201,48.1369 23.5,47.4062 23.5799,46.6756 23.625,45.8639 23.625,45 23.625,44.1361 23.5799,43.3246 23.5,42.5938 23.4201,41.8629 23.2409,41.2413 22.9688,40.7188 22.6966,40.1961 22.3244,39.7933 21.8125,39.5 21.3006,39.2067 20.6139,39.0625 19.75,39.0625 z M 24.5312,39.2812 27.1562,44.9375 24.2812,50.7188 26.8125,50.7188 28.4688,46.8438 30.0938,50.7188 32.6875,50.7188 29.8438,44.9375 32.5,39.2812 30,39.2812 28.5312,42.9688 27.0625,39.2812 24.5312,39.2812 z M 33.7188,39.2812 33.7188,50.7188 36,50.7188 36,39.2812 33.7188,39.2812 z M 37.8438,39.2812 37.8438,50.7188 41.4688,50.7188 C 42.2366,50.7188 42.8736,50.6097 43.375,50.375 43.8765,50.1403 44.2639,49.7613 44.5625,49.2812 44.8612,48.8013 45.0649,48.2047 45.1875,47.4688 45.31,46.7327 45.375,45.8572 45.375,44.8438 45.375,44.0011 45.346,43.2451 45.25,42.5625 45.1539,41.8798 44.9594,41.2979 44.6875,40.8125 44.4155,40.3272 44.0218,39.9488 43.5312,39.6875 43.0406,39.4263 42.3939,39.2812 41.5938,39.2812 L 37.8438,39.2812 z M 47.0312,39.2812 47.0312,50.7188 49.3125,50.7188 49.3125,39.2812 47.0312,39.2812 z M 50.9062,39.2812 50.9062,41.1875 54.8125,41.1875 50.625,49.0312 50.625,50.7188 57.5312,50.7188 57.5312,48.8125 53.2188,48.8125 57.4688,41.0312 57.4688,39.2812 50.9062,39.2812 z M 58.7188,39.2812 58.7188,50.7188 65.25,50.7188 65.25,48.8125 61.0312,48.8125 61.0312,45.75 64.875,45.75 64.875,43.875 61.0312,43.875 61.0312,41.1875 65.0938,41.1875 65.0938,39.2812 58.7188,39.2812 z M 66.4062,39.2812 66.4062,50.7188 68.7188,50.7188 68.7188,45.875 69.9375,45.875 C 70.4176,45.875 70.7661,45.994 70.9688,46.25 71.1714,46.506 71.2914,46.8646 71.3125,47.3125 L 71.375,49.5 C 71.3858,49.7243 71.4055,49.9485 71.4375,50.1562 71.4696,50.3642 71.539,50.5587 71.6562,50.7188 L 74.1562,50.7188 74.1562,50.625 C 73.943,50.5078 73.8088,50.2886 73.75,49.9688 73.6913,49.6487 73.6354,49.1705 73.625,48.5625 73.6142,47.9544 73.6105,47.4474 73.5625,47.0312 73.5145,46.6152 73.4094,46.2719 73.2812,46 73.1531,45.728 72.9846,45.5189 72.75,45.375 72.5155,45.2311 72.1762,45.1471 71.7812,45.0938 L 71.7812,45.0625 C 72.4321,44.9238 72.9406,44.6104 73.25,44.125 73.5594,43.6397 73.6875,42.9866 73.6875,42.2188 73.6875,41.2269 73.4395,40.5166 72.9062,40.0312 72.3728,39.5459 71.6163,39.2812 70.6562,39.2812 L 66.4062,39.2812 z M 19.75,40.75 C 20.0911,40.75 20.3545,40.8453 20.5625,41 20.7705,41.1548 20.9192,41.4087 21.0312,41.75 21.1432,42.0913 21.2438,42.5291 21.2812,43.0625 21.3187,43.5959 21.3125,44.2321 21.3125,45 21.3125,45.7679 21.3187,46.4299 21.2812,46.9688 21.2438,47.5074 21.1432,47.9453 21.0312,48.2812 20.9192,48.6172 20.7705,48.8454 20.5625,49 20.3545,49.1546 20.0911,49.25 19.75,49.25 19.4085,49.25 19.1142,49.1546 18.9062,49 18.6982,48.8454 18.5495,48.6172 18.4375,48.2812 18.3255,47.9453 18.2561,47.5074 18.2188,46.9688 18.1812,46.4299 18.1562,45.7679 18.1562,45 18.1562,44.2321 18.1812,43.5959 18.2188,43.0625 18.2561,42.5291 18.3255,42.0913 18.4375,41.75 18.5495,41.4087 18.6982,41.1548 18.9062,41 19.1142,40.8453 19.4085,40.75 19.75,40.75 z M 40.125,40.9688 41.0938,40.9688 C 41.5312,40.9688 41.895,41.0534 42.1562,41.2188 42.4175,41.3841 42.6165,41.6382 42.75,41.9688 42.8834,42.2993 42.9574,42.7022 43,43.1875 43.0427,43.6729 43.0625,44.2556 43.0625,44.9062 43.0625,45.685 43.048,46.3209 43,46.8438 42.952,47.3665 42.8627,47.805 42.7188,48.125 42.5746,48.445 42.3756,48.6738 42.125,48.8125 41.8743,48.9512 41.5508,49.0312 41.1562,49.0312 L 40.125,49.0312 40.125,40.9688 z M 68.7188,40.9688 69.7812,40.9688 C 70.8481,40.9688 71.4062,41.5065 71.4062,42.5625 71.4062,43.1813 71.2362,43.6138 70.9375,43.875 70.6389,44.1363 70.2109,44.2812 69.6562,44.2812 L 68.7188,44.2812 68.7188,40.9688 z"
     id="path3572"
     style="fill:#231f20;stroke:none;" />
  <path
     d="M 44.8875,11.5308 44.3805,12.0879 C 42.9815,13.821 44.9635,15.7606 44.1025,17.529 43.7205,16.67 42.8535,15.7297 41.8995,15.6812 L 41.8995,15.8083 C 41.9325,15.7906 41.9425,15.8171 41.9765,15.8339 42.9305,17.25 42.3585,19.1164 41.4695,20.3895 41.1175,19.9287 40.6545,19.2277 40.0525,19.1491 L 40.0525,19.2762 C 40.8145,20.2624 40.4385,21.6644 39.9265,22.6673 39.7205,23.0629 39.7875,23.627 39.5465,24.0084 39.1655,23.77 38.7465,23.4628 38.2045,23.4769 L 38.2045,23.6288 C 39.4155,25.0935 38.1855,26.9033 38.4075,28.5896 38.5475,28.9975 38.7015,29.6385 39.1925,29.7029 39.3665,31.7026 40.5485,33.4233 42.2295,34.3327 L 38.1545,34.3327 38.1545,36.0278 51.8455,36.0278 51.8455,34.3327 47.7975,34.3327 C 49.5415,33.3968 50.7485,31.5896 50.8595,29.5007 50.9275,29.5025 50.9915,29.5007 51.0615,29.5007 52.6695,27.4631 49.9625,25.0687 51.7455,23.0973 51.3485,23.0178 50.9725,23.2068 50.6065,23.3507 L 50.5305,23.2747 C 50.6865,22.5896 50.8235,21.9204 50.8085,21.1735 50.6785,19.9949 50.3945,18.8639 49.8215,17.9087 49.7585,18.4516 49.8195,19.0396 49.5175,19.4528 49.6615,17.8945 48.8585,16.5058 47.5695,15.6317 47.5065,16.1244 47.9375,16.6647 47.6205,17.175 47.5245,16.6479 47.2175,16.2197 46.9615,15.758 46.2125,14.6932 44.8715,13.8386 44.8875,12.3916 44.8385,12.072 45.0145,11.7701 44.8875,11.5308 z M 45.7215,18.238 C 46.2295,19.2259 45.4145,20.1856 45.6205,21.2494 45.9215,21.9354 46.5185,22.655 46.2785,23.4513 46.2755,23.4619 46.2805,23.4672 46.2785,23.4769 45.8725,23.3877 45.4465,23.3251 45.0135,23.3251 44.9045,23.3251 44.7915,23.3445 44.6845,23.3507 L 44.7605,22.8942 C 43.4865,21.2724 44.9085,19.6214 45.7215,18.238 z M 42.9375,21.7562 C 43.0975,22.3769 43.5245,22.866 43.6215,23.5016 43.2685,23.5882 42.9325,23.6844 42.6085,23.8318 42.8025,23.341 42.7185,22.6947 42.6845,22.1606 42.7685,22.0334 42.7165,21.803 42.9375,21.7562 z M 47.6205,21.8321 C 48.1435,22.3098 48.0545,23.2942 47.8475,23.9325 47.8285,23.9669 47.8315,24.0005 47.8225,24.034 47.5315,23.8733 47.2295,23.7382 46.9115,23.6288 46.9175,23.6111 46.9325,23.5988 46.9365,23.5784 47.1275,22.9905 47.4915,22.4519 47.6205,21.8321 z M 41.0905,23.2995 C 41.2815,23.665 41.2995,24.1664 41.6975,24.388 41.4085,24.5893 41.1345,24.7968 40.8875,25.0467 40.8845,24.4145 40.7075,23.8495 41.0905,23.2995 z M 49.3155,23.7047 C 49.3455,23.7091 49.3855,23.7294 49.4165,23.7806 L 49.3415,25.1729 C 49.3425,25.1941 49.3405,25.2268 49.3415,25.2488 49.0905,24.9751 48.8035,24.7368 48.5055,24.5143 48.5325,24.4984 48.5595,24.4887 48.5815,24.464 48.8185,24.3042 48.8555,24.049 49.0625,23.8566 49.1465,23.8336 49.2255,23.6906 49.3155,23.7047 z M 45.0135,24.8939 C 47.3835,24.8939 49.3155,26.8256 49.3155,29.197 49.3155,31.5649 47.3835,33.4763 45.0135,33.4763 42.6425,33.4763 40.7355,31.5649 40.7355,29.197 40.7355,26.8256 42.6425,24.8939 45.0135,24.8939 z M 39.5465,25.9313 C 39.7555,25.9472 39.7425,26.2368 39.9515,26.2862 39.8395,26.4813 39.7305,26.68 39.6345,26.8839 L 39.6225,26.8689 C 39.5425,26.567 39.4675,26.25 39.5465,25.9313 z"
     id="path1360-4"
     style="fill:#231f20;stroke:none" />
</svg>
