<?xml version="1.0" encoding="UTF-8" standalone="no"?>
<!-- Created with Inkscape (http://www.inkscape.org/) -->

<svg
   xmlns:dc="http://purl.org/dc/elements/1.1/"
   xmlns:cc="http://creativecommons.org/ns#"
   xmlns:rdf="http://www.w3.org/1999/02/22-rdf-syntax-ns#"
   xmlns:svg="http://www.w3.org/2000/svg"
   xmlns="http://www.w3.org/2000/svg"
   version="1.1"
   width="90"
   height="90"
   id="svg6792">
  <defs
     id="defs6794" />
  <rect
     width="60"
     height="60"
     rx="0"
     ry="0"
     x="33.6395"
     y="-30"
     transform="matrix(0.707107,0.707107,-0.707107,0.707107,0,0)"
     id="rect6763"
     style="fill:#ffffff;stroke:#231f20;stroke-width:0.7" />
  <path
     d="M 45,2.5625 42.2188,5.34375 42.2188,84.6562 45,87.4375 47.7812,84.6562 47.7812,5.34375 45,2.5625 z M 36.6875,10.875 31.1562,16.4062 31.1562,73.5938 36.6875,79.125 36.6875,10.875 z M 53.4062,10.9688 53.4062,79.0312 58.9688,73.4688 58.9688,16.5312 53.4062,10.9688 z M 25.625,21.9375 20.0625,27.5 20.0625,62.5 25.625,68.0625 25.625,21.9375 z M 64.5312,22.0938 64.5312,67.9062 70.0625,62.375 70.0625,27.625 64.5312,22.0938 z M 14.5625,33 9,38.5625 9,51.4375 14.5625,57 14.5625,33 z M 75.625,33.1875 75.625,56.8125 81.1875,51.25 81.1875,38.75 75.625,33.1875 z"
     id="rect3103"
     style="fill:#e22739;stroke:none" />
  <path
     d="M 45.3921,74 45.3921,72.4155 42.1694,72.4155 42.1694,71.0942 45.5854,66.0938 46.853,66.0938 46.853,71.0889 47.8306,71.0889 47.8306,72.4155 46.853,72.4155 46.853,74 z M 45.3921,71.0889 45.3921,68.3979 43.582,71.0889 z"
     id="path3086"
     style="fill:#231f20;stroke:none;" />
  <rect
     width="60"
     height="60"
     rx="0"
     ry="0"
     x="33.6395"
     y="-30"
     transform="matrix(0.707107,0.707107,-0.707107,0.707107,0,0)"
     id="rect3920"
     style="fill:none;stroke:#231f20;stroke-width:0.7" />
  <rect
     width="51.25"
     height="51.25"
     x="-25.6255"
     y="38.0155"
     transform="matrix(0.707107,-0.707107,0.707107,0.707107,0,0)"
     id="rect6769"
     style="fill:none;stroke:#231f20;stroke-width:0.7" />
  <path
     d="M 44.7878,14.125 C 44.7878,14.125 44.5624,14.1393 44.444,14.2812 43.8691,14.9713 43.6423,16.0328 43.6003,16.9688 43.4653,18.2168 44.3783,19.1818 44.2253,20.4688 43.2893,19.4738 42.5515,18.938 41.3816,18.5 41.2525,18.447 41.1255,18.4067 41.0066,18.3438 41.1075,18.7948 41.3136,19.1333 41.6316,19.5312 42.7556,20.8833 41.5393,22.528 41.7253,24 41.2893,23.31 40.6505,22.8347 40.0066,22.3438 39.87,22.2518 39.6523,22.1092 39.4753,22.2812 L 39.7878,22.8125 C 40.5208,23.8205 40.3431,25.386 39.944,26.5 39.2911,25.877 38.717,25.0267 37.819,25.0938 38.775,26.6187 38.57,28.8238 39.319,30.4688 39.985,31.9268 41.4348,32.7835 42.9128,33.0625 43.4794,33.1385 44.6628,33.2188 44.6628,33.2188 L 44.6628,32.9375 C 42.8118,32.6325 42.9348,30.5435 41.5378,29.5625 L 41.4753,29.5 41.5066,29.4688 C 41.5814,29.4247 41.7091,29.468 41.8816,29.5 42.1185,29.548 42.3998,29.8545 42.5378,29.5625 42.2058,28.7795 42.3346,28.0537 42.3816,27.2188 L 42.4753,27.2188 C 43.1543,28.2257 43.0306,29.539 44.0066,30.375 44.0996,30.401 44.2541,30.5167 44.319,30.3438 44.289,28.9518 43.4818,27.6335 43.9128,26.1875 44.0788,26.6385 44.3301,27.2967 44.819,27.4688 45.548,26.7398 45.3575,25.4507 45.2566,24.4688 46.0606,25.5168 46.3003,27.2365 45.7253,28.5625 45.6693,28.7215 45.4878,28.8905 45.6628,29.0625 46.2188,28.8775 46.6635,28.2843 47.0066,27.7812 L 47.069,27.6875 47.1003,27.7812 C 47.2113,28.2052 47.1145,28.6515 47.0066,29.0625 46.9516,29.4205 46.5363,29.6732 46.7253,30.0312 47.2923,29.8592 47.7066,29.3042 48.1316,28.9062 48.3476,30.5903 47.1616,32.1955 45.7566,32.9375 L 45.7566,33.1875 C 45.7566,33.1875 46.4138,33.1355 46.8503,33.0625 49.1773,32.7575 51.4203,30.821 51.9753,28.5 52.4133,27.28 52.006,26.0985 52.069,24.8125 L 52.1003,24.6562 52.0066,24.6875 C 51.4315,25.2975 51.422,26.2258 51.069,26.9688 50.9131,27.1807 50.7411,27.5798 50.444,27.5938 50.4071,26.6388 50.8178,25.724 51.1628,24.875 51.5078,23.735 51.1323,22.553 50.4753,21.625 50.4421,21.585 50.4283,21.5493 50.3816,21.5312 50.4015,21.5813 50.4004,21.6235 50.4128,21.6875 50.6068,22.9745 49.9696,23.9582 49.0066,24.7812 48.8667,24.8862 48.7268,25.1642 48.5378,25.0312 48.9568,23.5593 49.3683,21.8218 48.3503,20.4688 48.1821,20.2127 47.98,19.7398 47.569,19.5938 47.551,20.5487 47.5483,21.7527 46.8503,22.4688 46.8503,22.0177 46.9248,21.4988 46.9128,20.9688 47.0408,18.4088 44.2708,16.846 44.7878,14.125 z M 39.0066,33.6562 39.0066,34.9062 50.9753,34.9062 50.9753,33.6562 39.0066,33.6562 z"
     id="path1390"
     style="fill:#231f20;stroke:none" />
  <path
     d="M 17.7812,41.0625 17.7812,48.9375 19.375,48.9375 19.375,45.5312 22,45.5312 22,44.2188 19.375,44.2188 19.375,42.375 22.1875,42.375 22.1875,41.0625 17.7812,41.0625 z M 22.875,41.0625 22.875,48.9375 27.2812,48.9375 27.2812,47.625 24.4688,47.625 24.4688,41.0625 22.875,41.0625 z M 29.5,41.0625 27.4062,48.9375 29.0625,48.9375 29.4375,47.2812 31.5312,47.2812 31.875,48.9375 33.5312,48.9375 31.4688,41.0625 29.5,41.0625 z M 34.125,41.0625 34.125,48.9375 35.5625,48.9375 35.5625,42.6562 35.5938,42.6562 37,48.9375 38.2188,48.9375 39.625,42.6562 39.6562,42.6562 39.6562,48.9375 41.0938,48.9375 41.0938,41.0625 38.75,41.0625 37.625,46.625 37.5938,46.625 36.4688,41.0625 34.125,41.0625 z M 42.2812,41.0625 42.2812,48.9375 43.7188,48.9375 43.7188,42.6562 43.75,42.6562 45.125,48.9375 46.375,48.9375 47.7812,42.6562 47.7812,48.9375 49.25,48.9375 49.25,41.0625 46.9062,41.0625 45.7812,46.625 45.75,46.625 44.625,41.0625 42.2812,41.0625 z M 51.9062,41.0625 49.8125,48.9375 51.4688,48.9375 51.8438,47.2812 53.9375,47.2812 54.2812,48.9375 55.9375,48.9375 53.875,41.0625 51.9062,41.0625 z M 56.5,41.0625 56.5,48.9375 59.1875,48.9375 C 59.6494,48.9375 60.0319,48.8746 60.3438,48.75 60.6554,48.6253 60.8994,48.4591 61.0938,48.25 61.2879,48.041 61.4193,47.7786 61.5,47.5 61.5806,47.2213 61.625,46.9331 61.625,46.625 61.625,46.097 61.5066,45.6903 61.25,45.375 60.9934,45.0597 60.6277,44.8712 60.1875,44.8125 L 60.1875,44.7812 C 60.5836,44.6713 60.8958,44.4607 61.0938,44.1562 61.2918,43.852 61.3749,43.4877 61.375,43.0625 61.3749,42.6883 61.3287,42.3816 61.2188,42.125 61.1088,41.8684 60.948,41.6541 60.75,41.5 60.5521,41.3459 60.3375,41.2534 60.0625,41.1875 59.7874,41.1216 59.4789,41.0625 59.1562,41.0625 L 56.5,41.0625 z M 62.625,41.0625 62.625,48.9375 67,48.9375 67,47.625 64.2188,47.625 64.2188,41.0625 62.625,41.0625 z M 67.7188,41.0625 67.7188,48.9375 72.2188,48.9375 72.2188,47.625 69.3125,47.625 69.3125,45.5312 71.9375,45.5312 71.9375,44.2188 69.3125,44.2188 69.3125,42.375 72.0938,42.375 72.0938,41.0625 67.7188,41.0625 z M 58.0938,42.25 58.6562,42.25 C 59.0521,42.25 59.3477,42.3147 59.5312,42.4688 59.7145,42.6227 59.8124,42.876 59.8125,43.25 59.8124,43.6242 59.7016,43.9048 59.5,44.0625 59.2983,44.2201 58.9714,44.2812 58.5312,44.2812 L 58.0938,44.2812 58.0938,42.25 z M 30.4688,42.4375 30.5,42.4375 31.25,45.9688 29.7188,45.9688 30.4688,42.4375 z M 52.875,42.4375 52.9062,42.4375 53.6562,45.9688 52.125,45.9688 52.875,42.4375 z M 58.0938,45.4062 58.7812,45.4062 C 58.9572,45.4062 59.1033,45.4008 59.25,45.4375 59.3967,45.4742 59.5187,45.5645 59.625,45.6562 59.7313,45.7478 59.8126,45.8496 59.875,46 59.9373,46.1504 59.9688,46.3351 59.9688,46.5625 59.9688,47.017 59.8596,47.3312 59.625,47.5 59.3903,47.6687 59.0688,47.75 58.6875,47.75 L 58.0938,47.75 58.0938,45.4062 z"
     id="path3100"
     style="fill:#231f20;stroke:none;" />
  <path
     d="M 36.7188,51.4688 C 36.1007,51.4688 35.604,51.6255 35.25,51.9375 34.8961,52.2496 34.7188,52.7079 34.7188,53.3438 34.7188,53.6078 34.7466,53.8616 34.8125,54.0625 34.8784,54.2635 34.9839,54.4406 35.125,54.5938 35.2661,54.7469 35.4464,54.8548 35.6562,54.9688 35.8661,55.0828 36.1182,55.2165 36.4062,55.3125 36.6223,55.3844 36.7906,55.4309 36.9375,55.5 37.0845,55.569 37.2224,55.6661 37.3125,55.75 37.4026,55.834 37.4611,55.9262 37.5,56.0312 37.5389,56.1362 37.5625,56.2621 37.5625,56.4062 37.5625,56.6761 37.4715,56.871 37.3125,57 37.1536,57.129 36.9794,57.1875 36.7812,57.1875 36.6073,57.1875 36.483,57.173 36.375,57.125 36.2671,57.0771 36.1598,56.9901 36.0938,56.9062 36.0278,56.8222 35.9928,56.7169 35.9688,56.5938 35.9447,56.4708 35.9375,56.3375 35.9375,56.1875 L 35.9375,56 34.625,56 34.625,56.2812 C 34.625,56.8753 34.7786,57.3292 35.0938,57.6562 35.4087,57.9833 35.9556,58.1562 36.6875,58.1562 37.3895,58.1562 37.9195,57.9742 38.3125,57.6562 38.7055,57.3381 38.9062,56.8654 38.9062,56.1875 38.9062,55.9894 38.8798,55.787 38.8438,55.625 38.8077,55.463 38.7492,55.3225 38.6562,55.1875 38.5633,55.0525 38.4404,54.9295 38.2812,54.8125 38.1223,54.6955 37.9276,54.5767 37.6875,54.4688 L 36.6875,54.0312 C 36.4115,53.9173 36.2404,53.7914 36.1562,53.6562 36.0723,53.5213 36.0312,53.3541 36.0312,53.1562 36.0312,53.0602 36.0415,52.965 36.0625,52.875 36.0836,52.785 36.0994,52.7253 36.1562,52.6562 36.2133,52.5873 36.3103,52.5108 36.4062,52.4688 36.5023,52.4267 36.6061,52.4062 36.75,52.4062 37.002,52.4062 37.1732,52.4913 37.2812,52.6562 37.3894,52.8214 37.4688,53.069 37.4688,53.375 L 38.6875,53.375 38.6875,53.1875 C 38.6875,52.8815 38.6615,52.6252 38.5625,52.4062 38.4636,52.1872 38.302,52.016 38.125,51.875 37.9479,51.734 37.743,51.6255 37.5,51.5625 37.257,51.4995 37.0067,51.4688 36.7188,51.4688 z M 41.625,51.4688 C 41.1389,51.4688 40.7254,51.5538 40.4375,51.7188 40.1496,51.8837 39.9342,52.1123 39.7812,52.4062 39.6281,52.7002 39.545,53.0577 39.5,53.4688 39.4551,53.8798 39.4375,54.3266 39.4375,54.8125 39.4375,55.2985 39.4551,55.7452 39.5,56.1562 39.545,56.5671 39.6281,56.9248 39.7812,57.2188 39.9342,57.5129 40.1496,57.7413 40.4375,57.9062 40.7254,58.0712 41.1389,58.1562 41.625,58.1562 42.111,58.1562 42.4933,58.0712 42.7812,57.9062 43.0693,57.7413 43.2844,57.5129 43.4375,57.2188 43.5905,56.9248 43.6737,56.5671 43.7188,56.1562 43.7637,55.7452 43.8125,55.2985 43.8125,54.8125 43.8125,54.3266 43.7637,53.8798 43.7188,53.4688 43.6737,53.0577 43.5905,52.7002 43.4375,52.4062 43.2844,52.1123 43.0693,51.8837 42.7812,51.7188 42.4933,51.5538 42.111,51.4688 41.625,51.4688 z M 44.5625,51.5938 44.5625,58.0312 48.1562,58.0312 48.1562,56.9688 45.875,56.9688 45.875,51.5938 44.5625,51.5938 z M 48.8125,51.5938 48.8125,58.0312 50.0938,58.0312 50.0938,51.5938 48.8125,51.5938 z M 51.125,51.5938 51.125,58.0312 53.1562,58.0312 C 53.5883,58.0312 53.9367,57.9445 54.2188,57.8125 54.5008,57.6804 54.7383,57.4886 54.9062,57.2188 55.0742,56.9487 55.181,56.6015 55.25,56.1875 55.3189,55.7735 55.375,55.2888 55.375,54.7188 55.375,54.2447 55.3353,53.8215 55.2812,53.4375 55.2272,53.0535 55.1216,52.7106 54.9688,52.4375 54.8157,52.1645 54.6197,51.9595 54.3438,51.8125 54.0677,51.6656 53.7,51.5938 53.25,51.5938 L 51.125,51.5938 z M 41.625,52.4062 C 41.8169,52.4062 41.9454,52.4755 42.0625,52.5625 42.1795,52.6496 42.2808,52.7767 42.3438,52.9688 42.4068,53.1608 42.4477,53.4188 42.4688,53.7188 42.4899,54.0188 42.5,54.3806 42.5,54.8125 42.5,55.2445 42.4899,55.6033 42.4688,55.9062 42.4477,56.2094 42.4068,56.4674 42.3438,56.6562 42.2808,56.8453 42.1795,56.9756 42.0625,57.0625 41.9454,57.1495 41.8169,57.1875 41.625,57.1875 41.4329,57.1875 41.2733,57.1495 41.1562,57.0625 41.0393,56.9756 40.938,56.8453 40.875,56.6562 40.812,56.4674 40.7711,56.2094 40.75,55.9062 40.729,55.6033 40.7188,55.2445 40.7188,54.8125 40.7188,54.3806 40.729,54.0188 40.75,53.7188 40.7711,53.4188 40.812,53.1608 40.875,52.9688 40.938,52.7767 41.0393,52.6496 41.1562,52.5625 41.2733,52.4755 41.4329,52.4062 41.625,52.4062 z M 52.4062,52.5312 52.9688,52.5312 C 53.2149,52.5312 53.4155,52.5945 53.5625,52.6875 53.7094,52.7805 53.7999,52.9079 53.875,53.0938 53.95,53.2797 54.0072,53.5082 54.0312,53.7812 54.0553,54.0542 54.0625,54.384 54.0625,54.75 54.0625,55.188 54.0583,55.5498 54.0312,55.8438 54.0042,56.1379 53.956,56.3825 53.875,56.5625 53.794,56.7425 53.6722,56.8595 53.5312,56.9375 53.3903,57.0155 53.2219,57.0625 53,57.0625 L 52.4062,57.0625 52.4062,52.5312 z"
     id="path3089"
     style="fill:#231f20;stroke:none;" />
</svg>
