<?xml version="1.0" encoding="utf-8"?>
<!-- Generator: Adobe Illustrator 16.0.3, SVG Export Plug-In . SVG Version: 6.00 Build 0)  -->
<!DOCTYPE svg PUBLIC "-//W3C//DTD SVG 1.1//EN" "http://www.w3.org/Graphics/SVG/1.1/DTD/svg11.dtd">
<svg version="1.1"
	 id="svg2211" xmlns:dc="http://purl.org/dc/elements/1.1/" xmlns:cc="http://creativecommons.org/ns#" xmlns:rdf="http://www.w3.org/1999/02/22-rdf-syntax-ns#" xmlns:svg="http://www.w3.org/2000/svg" xmlns:sodipodi="http://sodipodi.sourceforge.net/DTD/sodipodi-0.dtd" xmlns:inkscape="http://www.inkscape.org/namespaces/inkscape" sodipodi:version="0.32" inkscape:version="0.48.5 r10040" sodipodi:docname="Dangclass6_2.svg" inkscape:output_extension="org.inkscape.output.svg.inkscape"
	 xmlns="http://www.w3.org/2000/svg" xmlns:xlink="http://www.w3.org/1999/xlink" x="0px" y="0px" width="432px" height="432px"
	 viewBox="0 0 432 432" enable-background="new 0 0 432 432" xml:space="preserve">
<sodipodi:namedview  showgrid="false" inkscape:cy="115.91274" inkscape:cx="214.95391" inkscape:zoom="1.2979786" pagecolor="#ffffff" bordercolor="#666666" guidetolerance="10.0" objecttolerance="10.0" gridtolerance="10.0" borderopacity="1.0" id="base" inkscape:window-height="1018" inkscape:window-width="1920" inkscape:pageshadow="2" inkscape:current-layer="svg2211" inkscape:window-x="-8" inkscape:window-y="-8" inkscape:window-maximized="1" inkscape:pageopacity="0.0">
	</sodipodi:namedview>
<path id="Outer_Diamond" sodipodi:nodetypes="ccccc" fill="#FFFFFF" stroke="#000000" d="M1.074,215.274l215.175,216.571
	l215.123-216.491L215.971,0.005L1.074,215.274z"/>
<path id="Inner_Diamond" inkscape:connector-curvature="0" sodipodi:nodetypes="ccccc" fill="none" stroke="#000000" stroke-width="2" d="
	M28.306,217.17l188.21,186.523l188.929-187.984L216.239,28.096L28.306,217.17z"/>
<g id="biohazard" transform="matrix(0.2551854,0,0,0.2551854,150.5275,63.503984)">
	<g id="use3341">
		<path id="p" d="M288.118,270.461c5.779-15.529-2.128-32.8-17.657-38.577c-1.768-0.658-3.597-1.148-5.457-1.464v-15.539
			c57.924-2.759,102.641-51.956,99.882-109.879c-2.304-48.351-37.366-88.86-84.884-98.079V1.339
			c82.102,11.044,139.708,86.556,128.664,168.66c-0.207,1.527-0.436,3.048-0.689,4.567c77.559,29.113,116.835,115.587,87.72,193.146
			c-0.54,1.441-1.102,2.874-1.688,4.298l-4.833-2.792c18.897-54.824-10.225-114.588-65.049-133.489
			c-45.762-15.776-96.38,1.778-122.552,42.499L288.118,270.461z M322.265,181.75c-36.443-29-88.085-29-124.529,0
			c-8.888-7.711-16.266-17.009-21.758-27.416c49.187-39.111,118.855-39.111,168.042,0C338.437,164.68,331.07,173.962,322.265,181.75
			z"/>
	</g>
	<g id="use3343" transform="matrix(-0.5,0.8660254,-0.8660254,-0.5,615.1666,164.8334)">
		<path id="p_1_" d="M236.883,279.121c10.56,12.766,29.471,14.556,42.237,3.995c1.458-1.202,2.794-2.541,3.999-3.995l13.455,7.769
			c-26.574,51.544-6.33,114.87,45.219,141.442c43.022,22.181,95.634,12.074,127.381-24.471l4.833,2.792
			c-50.618,65.581-144.813,77.711-210.398,27.094c-1.217-0.941-2.419-1.9-3.613-2.878c-63.989,52.612-158.515,43.387-211.127-20.604
			c-0.978-1.19-1.936-2.394-2.878-3.613l4.835-2.792c38.03,43.78,104.348,48.441,148.127,10.413
			c36.545-31.744,46.652-84.358,24.471-127.383L236.883,279.121z M296.636,353.048c43.336-17.062,69.156-61.785,62.263-107.845
			c11.121-3.842,22.862-5.581,34.622-5.134c9.28,62.152-25.556,122.487-84.019,145.529
			C303.333,375.589,298.978,364.571,296.636,353.048z"/>
	</g>
	<g id="use3345" transform="matrix(-0.5,-0.8660254,0.8660254,-0.5,164.8334,615.1666)">
		<path id="p_2_" d="M255,230.42c-16.337,2.761-27.341,18.245-24.58,34.582c0.316,1.862,0.806,3.689,1.464,5.459l-13.457,7.769
			c-31.354-48.783-96.317-62.914-145.1-31.56c-40.72,26.17-58.274,76.786-42.497,122.55l-4.835,2.792
			c-31.486-76.626,5.107-164.269,81.733-195.755c1.426-0.586,2.859-1.148,4.3-1.69C98.457,92.842,153.71,15.592,235.433,2.024
			c1.519-0.251,3.042-0.48,4.567-0.685v5.583c-56.929,11.044-94.126,66.148-83.082,123.076c9.219,47.518,49.73,82.578,98.081,84.882
			V230.42z M161.102,245.203c-6.892,46.06,18.928,90.783,62.265,107.845c-2.237,11.553-6.599,22.59-12.866,32.55
			c-58.465-23.042-93.299-83.376-84.021-145.529C138.232,239.731,149.952,241.47,161.102,245.203z"/>
	</g>
</g>
<g id="flowRoot3050" transform="matrix(5.7538033,0,0,5.7538033,-1196.2785,-738.04599)">
	<path id="path3267" d="M229.716,173.321h-0.194v-1.436h0.194V173.321z"/>
	<path id="path3269" d="M230.942,171.885h0.188v1.436h-0.218l-0.73-1.16h-0.004v1.16h-0.188v-1.436h0.23l0.718,1.16h0.004
		L230.942,171.885z"/>
	<path id="path3271" d="M232.884,172.317c-0.013-0.063-0.035-0.114-0.066-0.153c-0.031-0.039-0.065-0.07-0.103-0.091
		c-0.038-0.021-0.078-0.036-0.119-0.043c-0.041-0.007-0.079-0.011-0.114-0.011c-0.065,0-0.126,0.012-0.183,0.036
		c-0.057,0.024-0.106,0.06-0.149,0.107c-0.043,0.047-0.076,0.107-0.101,0.178c-0.025,0.071-0.037,0.154-0.037,0.249
		c0,0.084,0.008,0.163,0.024,0.236c0.016,0.073,0.043,0.137,0.08,0.19c0.037,0.053,0.086,0.095,0.147,0.126
		c0.061,0.031,0.136,0.046,0.225,0.046c0.032,0,0.068-0.005,0.108-0.015c0.04-0.01,0.08-0.029,0.119-0.057
		c0.039-0.028,0.076-0.068,0.109-0.119c0.033-0.051,0.058-0.119,0.074-0.203h0.188c-0.013,0.091-0.036,0.167-0.067,0.23
		c-0.031,0.063-0.067,0.115-0.108,0.157c-0.041,0.042-0.084,0.075-0.129,0.099c-0.045,0.024-0.089,0.042-0.131,0.054
		c-0.042,0.012-0.08,0.019-0.115,0.022c-0.035,0.003-0.061,0.004-0.078,0.004c-0.081,0-0.161-0.014-0.238-0.042
		c-0.077-0.028-0.146-0.072-0.207-0.133c-0.061-0.061-0.109-0.139-0.146-0.236c-0.037-0.097-0.055-0.214-0.055-0.353
		c0-0.111,0.015-0.212,0.046-0.303c0.031-0.091,0.075-0.17,0.132-0.236c0.057-0.066,0.128-0.117,0.211-0.154
		c0.083-0.037,0.177-0.055,0.281-0.055c0.092,0,0.173,0.013,0.244,0.04c0.071,0.027,0.13,0.062,0.179,0.105
		c0.049,0.043,0.087,0.093,0.115,0.15c0.028,0.057,0.045,0.115,0.052,0.175H232.884z"/>
	<path id="path3273" d="M233.996,172.731l-0.212-0.632h-0.004l-0.23,0.632H233.996z M233.49,172.903l-0.15,0.418h-0.2l0.54-1.436
		h0.22l0.52,1.436h-0.212l-0.142-0.418H233.49z"/>
	<path id="path3275" d="M235.406,172.305c-0.003-0.056-0.015-0.103-0.037-0.14c-0.022-0.037-0.05-0.067-0.084-0.09
		c-0.034-0.023-0.072-0.039-0.113-0.048c-0.041-0.009-0.082-0.014-0.122-0.014c-0.031,0-0.065,0.003-0.103,0.009
		c-0.038,0.006-0.074,0.018-0.107,0.036c-0.033,0.018-0.061,0.043-0.084,0.076c-0.023,0.033-0.034,0.076-0.034,0.131
		c0,0.031,0.005,0.056,0.015,0.077s0.023,0.038,0.039,0.052c0.016,0.014,0.034,0.025,0.054,0.033c0.02,0.008,0.041,0.015,0.062,0.02
		l0.41,0.094c0.047,0.011,0.09,0.026,0.13,0.046c0.04,0.02,0.074,0.046,0.103,0.077c0.029,0.031,0.051,0.068,0.068,0.111
		c0.017,0.043,0.025,0.093,0.025,0.15c0,0.085-0.018,0.156-0.053,0.212c-0.035,0.056-0.081,0.1-0.136,0.133
		c-0.055,0.033-0.116,0.056-0.182,0.069c-0.066,0.013-0.13,0.02-0.191,0.02c-0.067,0-0.124-0.004-0.171-0.013
		s-0.088-0.02-0.122-0.034c-0.034-0.014-0.062-0.029-0.084-0.045c-0.022-0.016-0.041-0.031-0.057-0.046
		c-0.061-0.056-0.101-0.114-0.119-0.173c-0.018-0.059-0.027-0.123-0.027-0.191h0.182c0,0.065,0.012,0.119,0.036,0.162
		c0.024,0.043,0.055,0.077,0.093,0.103c0.038,0.026,0.08,0.044,0.127,0.055c0.047,0.011,0.093,0.016,0.14,0.016
		c0.035,0,0.074-0.003,0.118-0.009c0.044-0.006,0.085-0.018,0.123-0.035c0.038-0.017,0.07-0.042,0.096-0.073
		c0.026-0.031,0.039-0.073,0.039-0.125c0-0.037-0.005-0.069-0.015-0.095c-0.01-0.026-0.027-0.048-0.05-0.067
		c-0.023-0.019-0.055-0.035-0.094-0.049c-0.039-0.014-0.088-0.028-0.147-0.043l-0.294-0.068c-0.024-0.005-0.053-0.014-0.088-0.027
		c-0.035-0.013-0.068-0.032-0.1-0.057c-0.032-0.025-0.06-0.058-0.083-0.099c-0.023-0.041-0.035-0.092-0.035-0.155
		c0-0.056,0.009-0.111,0.028-0.164c0.019-0.053,0.048-0.101,0.088-0.142c0.04-0.041,0.091-0.075,0.154-0.1
		c0.063-0.025,0.137-0.038,0.224-0.038c0.125,0,0.225,0.016,0.298,0.049c0.073,0.033,0.129,0.073,0.167,0.12
		c0.038,0.047,0.063,0.097,0.074,0.15c0.011,0.053,0.018,0.099,0.021,0.139H235.406z"/>
	<path id="path3277" d="M236.895,173.321h-1.06v-1.436h1.046v0.172h-0.852v0.44h0.786v0.172h-0.786v0.48h0.866V173.321z"/>
	<path id="path3279" d="M238.914,172.603c0,0.052-0.005,0.107-0.015,0.164c-0.01,0.057-0.026,0.114-0.048,0.17
		c-0.022,0.056-0.051,0.109-0.086,0.16c-0.035,0.051-0.079,0.096-0.131,0.135c-0.052,0.039-0.113,0.07-0.182,0.093
		c-0.069,0.023-0.149,0.034-0.238,0.034c-0.089,0-0.169-0.011-0.238-0.034c-0.069-0.023-0.13-0.054-0.182-0.093
		c-0.052-0.039-0.096-0.085-0.131-0.135c-0.035-0.051-0.064-0.104-0.086-0.16c-0.022-0.056-0.038-0.113-0.048-0.17
		s-0.015-0.112-0.015-0.164c0-0.052,0.005-0.107,0.015-0.164c0.01-0.057,0.026-0.114,0.048-0.17c0.022-0.056,0.051-0.109,0.086-0.16
		s0.079-0.096,0.131-0.135c0.052-0.039,0.113-0.07,0.182-0.093c0.069-0.023,0.149-0.034,0.238-0.034
		c0.089,0,0.169,0.011,0.238,0.034c0.069,0.023,0.13,0.054,0.182,0.093c0.052,0.039,0.096,0.084,0.131,0.135
		c0.035,0.051,0.064,0.104,0.086,0.16s0.038,0.113,0.048,0.17C238.909,172.496,238.914,172.551,238.914,172.603z M238.714,172.603
		c0-0.084-0.011-0.162-0.034-0.233c-0.023-0.071-0.056-0.133-0.099-0.185c-0.043-0.052-0.096-0.093-0.158-0.122
		c-0.062-0.029-0.132-0.044-0.209-0.044c-0.079,0-0.149,0.015-0.21,0.044c-0.061,0.029-0.114,0.07-0.157,0.122
		c-0.043,0.052-0.076,0.114-0.099,0.185c-0.023,0.071-0.034,0.149-0.034,0.233s0.011,0.162,0.034,0.233
		c0.023,0.071,0.056,0.133,0.099,0.185c0.043,0.052,0.096,0.093,0.157,0.122c0.061,0.029,0.131,0.044,0.21,0.044
		c0.077,0,0.147-0.015,0.209-0.044c0.062-0.029,0.115-0.07,0.158-0.122c0.043-0.052,0.076-0.114,0.099-0.185
		C238.702,172.765,238.714,172.687,238.714,172.603z"/>
	<path id="path3281" d="M239.3,173.321h-0.194v-1.436h0.994v0.172h-0.8v0.44h0.704v0.172H239.3V173.321z"/>
	<path id="path3283" d="M240.953,173.155h0.376c0.127,0,0.228-0.048,0.303-0.143c0.075-0.095,0.113-0.234,0.113-0.417
		c0-0.181-0.039-0.317-0.116-0.408c-0.077-0.091-0.182-0.136-0.314-0.136h-0.362V173.155z M240.759,171.885h0.582
		c0.093,0,0.177,0.017,0.252,0.051c0.075,0.034,0.138,0.082,0.19,0.143c0.052,0.061,0.092,0.135,0.12,0.22
		c0.028,0.086,0.042,0.18,0.042,0.284c0,0.08-0.01,0.164-0.029,0.251c-0.019,0.087-0.053,0.167-0.1,0.239s-0.11,0.131-0.189,0.178
		c-0.079,0.047-0.177,0.07-0.294,0.07h-0.574V171.885z"/>
	<path id="path3285" d="M242.87,172.731l-0.212-0.632h-0.004l-0.23,0.632H242.87z M242.364,172.903l-0.15,0.418h-0.2l0.54-1.436
		h0.22l0.52,1.436h-0.212l-0.142-0.418H242.364z"/>
	<path id="path3287" d="M244.595,173.321v-0.848c0-0.011,0-0.029,0.001-0.055c0.001-0.026,0.001-0.056,0.001-0.089
		c0-0.035,0-0.071,0.001-0.108c0.001-0.037,0.001-0.073,0.001-0.106h-0.004l-0.404,1.206h-0.192l-0.404-1.204h-0.004
		c0,0.033,0,0.069,0.001,0.106c0.001,0.037,0.001,0.073,0.001,0.106c0,0.033,0,0.063,0.001,0.089s0.001,0.044,0.001,0.055v0.848
		h-0.188v-1.436h0.278l0.41,1.214h0.004l0.408-1.214h0.276v1.436H244.595z"/>
	<path id="path3289" d="M245.752,172.731l-0.212-0.632h-0.004l-0.23,0.632H245.752z M245.246,172.903l-0.15,0.418h-0.2l0.54-1.436
		h0.22l0.52,1.436h-0.212l-0.142-0.418H245.246z"/>
	<path id="path3291" d="M246.921,172.553h0.63v0.768h-0.126l-0.046-0.186c-0.049,0.068-0.116,0.122-0.2,0.163
		c-0.084,0.041-0.175,0.061-0.274,0.061c-0.061,0-0.115-0.005-0.162-0.015c-0.047-0.01-0.088-0.023-0.123-0.039
		c-0.035-0.016-0.065-0.033-0.09-0.052c-0.025-0.019-0.046-0.037-0.065-0.056c-0.055-0.052-0.097-0.106-0.128-0.161
		c-0.031-0.055-0.053-0.11-0.068-0.163c-0.015-0.053-0.023-0.104-0.026-0.152c-0.003-0.048-0.004-0.091-0.004-0.13
		c0-0.088,0.013-0.176,0.04-0.264c0.027-0.088,0.068-0.168,0.124-0.239c0.056-0.071,0.127-0.13,0.212-0.174
		c0.085-0.045,0.187-0.067,0.304-0.067c0.067,0,0.134,0.01,0.202,0.029c0.068,0.019,0.13,0.048,0.187,0.087
		c0.057,0.039,0.105,0.088,0.144,0.148c0.039,0.06,0.064,0.13,0.075,0.21h-0.188c-0.016-0.063-0.04-0.114-0.072-0.153
		c-0.032-0.039-0.068-0.07-0.108-0.092c-0.04-0.022-0.082-0.037-0.125-0.045c-0.043-0.008-0.085-0.012-0.125-0.012
		c-0.064,0-0.125,0.013-0.182,0.038c-0.057,0.025-0.107,0.063-0.15,0.112c-0.043,0.049-0.076,0.11-0.101,0.183
		c-0.025,0.073-0.037,0.156-0.037,0.249c0,0.073,0.007,0.145,0.021,0.216c0.014,0.071,0.039,0.134,0.075,0.19
		c0.036,0.056,0.085,0.101,0.146,0.135c0.061,0.034,0.14,0.051,0.236,0.051c0.017,0,0.038-0.001,0.061-0.003
		c0.023-0.002,0.048-0.006,0.073-0.012c0.025-0.006,0.052-0.015,0.079-0.027c0.027-0.012,0.054-0.029,0.081-0.05
		c0.063-0.049,0.105-0.106,0.126-0.17c0.021-0.064,0.032-0.135,0.032-0.212h-0.448L246.921,172.553z"/>
	<path id="path3293" d="M248.873,173.321h-1.06v-1.436h1.046v0.172h-0.852v0.44h0.786v0.172h-0.786v0.48h0.866V173.321z"/>
	<path id="path3295" d="M250.892,172.603c0,0.052-0.005,0.107-0.015,0.164c-0.01,0.057-0.026,0.114-0.048,0.17
		c-0.022,0.056-0.051,0.109-0.086,0.16c-0.035,0.051-0.079,0.096-0.131,0.135c-0.052,0.039-0.113,0.07-0.182,0.093
		c-0.069,0.023-0.149,0.034-0.238,0.034s-0.169-0.011-0.238-0.034c-0.069-0.023-0.13-0.054-0.182-0.093
		c-0.052-0.039-0.096-0.085-0.131-0.135c-0.035-0.051-0.064-0.104-0.086-0.16c-0.022-0.056-0.038-0.113-0.048-0.17
		c-0.01-0.057-0.015-0.112-0.015-0.164c0-0.052,0.005-0.107,0.015-0.164c0.01-0.057,0.026-0.114,0.048-0.17
		c0.022-0.056,0.051-0.109,0.086-0.16c0.035-0.051,0.079-0.096,0.131-0.135c0.052-0.039,0.113-0.07,0.182-0.093
		c0.069-0.023,0.149-0.034,0.238-0.034s0.169,0.011,0.238,0.034c0.069,0.023,0.13,0.054,0.182,0.093
		c0.052,0.039,0.096,0.084,0.131,0.135c0.035,0.051,0.064,0.104,0.086,0.16c0.022,0.056,0.038,0.113,0.048,0.17
		C250.887,172.496,250.892,172.551,250.892,172.603z M250.692,172.603c0-0.084-0.011-0.162-0.034-0.233
		c-0.023-0.071-0.056-0.133-0.099-0.185c-0.043-0.052-0.096-0.093-0.158-0.122c-0.062-0.029-0.132-0.044-0.209-0.044
		c-0.079,0-0.149,0.015-0.21,0.044c-0.061,0.029-0.114,0.07-0.157,0.122c-0.043,0.052-0.076,0.114-0.099,0.185
		c-0.023,0.071-0.034,0.149-0.034,0.233s0.011,0.162,0.034,0.233c0.023,0.071,0.056,0.133,0.099,0.185
		c0.043,0.052,0.096,0.093,0.157,0.122c0.061,0.029,0.131,0.044,0.21,0.044c0.077,0,0.147-0.015,0.209-0.044
		c0.062-0.029,0.115-0.07,0.158-0.122c0.043-0.052,0.076-0.114,0.099-0.185C250.681,172.765,250.692,172.687,250.692,172.603z"/>
	<path id="path3297" d="M251.282,172.539h0.45c0.036,0,0.071-0.003,0.106-0.009c0.035-0.006,0.066-0.018,0.093-0.036
		c0.027-0.018,0.05-0.043,0.067-0.075c0.017-0.032,0.026-0.075,0.026-0.128c0-0.056-0.009-0.1-0.027-0.132
		c-0.018-0.032-0.04-0.056-0.066-0.072c-0.026-0.016-0.054-0.026-0.084-0.03c-0.03-0.004-0.057-0.006-0.081-0.006h-0.484V172.539z
		 M251.282,173.321h-0.194v-1.436h0.664c0.059,0,0.116,0.006,0.173,0.018c0.057,0.012,0.107,0.032,0.151,0.061
		c0.044,0.029,0.079,0.068,0.107,0.118c0.027,0.05,0.041,0.113,0.041,0.189c0,0.053-0.006,0.099-0.018,0.136
		c-0.012,0.037-0.028,0.069-0.047,0.095c-0.019,0.026-0.041,0.048-0.065,0.066c-0.024,0.018-0.047,0.034-0.07,0.047
		c0.02,0.008,0.04,0.017,0.06,0.028c0.02,0.011,0.038,0.026,0.054,0.045c0.016,0.019,0.029,0.045,0.039,0.076
		c0.01,0.031,0.016,0.072,0.019,0.121l0.012,0.26c0,0.02,0.001,0.037,0.003,0.051c0.002,0.014,0.006,0.027,0.011,0.038
		c0.005,0.011,0.013,0.021,0.022,0.03c0.009,0.009,0.021,0.017,0.036,0.025v0.032h-0.238c-0.007-0.021-0.012-0.05-0.017-0.085
		c-0.005-0.035-0.008-0.071-0.011-0.107c-0.003-0.036-0.004-0.07-0.005-0.101c-0.001-0.032-0.001-0.054-0.001-0.067
		c0-0.029-0.002-0.059-0.007-0.09c-0.005-0.031-0.016-0.058-0.034-0.083c-0.018-0.025-0.044-0.045-0.078-0.06
		s-0.08-0.023-0.137-0.023h-0.47L251.282,173.321z"/>
	<path id="path3299" d="M253.144,173.149h0.728v0.172h-0.922v-1.436h0.194V173.149z"/>
	<path id="path3301" d="M255.087,173.321h-1.06v-1.436h1.046v0.172h-0.852v0.44h0.786v0.172h-0.786v0.48h0.866V173.321z"/>
	<path id="path3303" d="M256.014,172.731l-0.212-0.632h-0.004l-0.23,0.632H256.014z M255.508,172.903l-0.15,0.418h-0.2l0.54-1.436
		h0.22l0.52,1.436h-0.212l-0.142-0.418H255.508z"/>
	<path id="path3305" d="M256.751,173.321h-0.194v-1.436h0.194v0.696l0.696-0.696h0.268l-0.598,0.58l0.614,0.856h-0.252l-0.502-0.72
		l-0.226,0.216V173.321z"/>
	<path id="path3307" d="M258.564,172.731l-0.212-0.632h-0.004l-0.23,0.632H258.564z M258.058,172.903l-0.15,0.418h-0.2l0.54-1.436
		h0.22l0.52,1.436h-0.212l-0.142-0.418H258.058z"/>
	<path id="path3309" d="M259.733,172.553h0.63v0.768h-0.126l-0.046-0.186c-0.049,0.068-0.116,0.122-0.2,0.163
		c-0.084,0.041-0.175,0.061-0.274,0.061c-0.061,0-0.115-0.005-0.162-0.015c-0.047-0.01-0.088-0.023-0.123-0.039
		c-0.035-0.016-0.065-0.033-0.09-0.052c-0.025-0.019-0.046-0.037-0.065-0.056c-0.055-0.052-0.097-0.106-0.128-0.161
		c-0.031-0.055-0.053-0.11-0.068-0.163c-0.015-0.053-0.023-0.104-0.026-0.152c-0.003-0.048-0.004-0.091-0.004-0.13
		c0-0.088,0.013-0.176,0.04-0.264c0.027-0.088,0.068-0.168,0.124-0.239c0.056-0.071,0.127-0.13,0.212-0.174
		c0.085-0.045,0.187-0.067,0.304-0.067c0.067,0,0.134,0.01,0.202,0.029c0.068,0.019,0.13,0.048,0.187,0.087
		c0.057,0.039,0.105,0.088,0.144,0.148c0.039,0.06,0.065,0.13,0.075,0.21h-0.188c-0.016-0.063-0.04-0.114-0.072-0.153
		c-0.032-0.039-0.068-0.07-0.108-0.092c-0.04-0.022-0.082-0.037-0.125-0.045c-0.043-0.008-0.085-0.012-0.125-0.012
		c-0.064,0-0.125,0.013-0.182,0.038c-0.057,0.025-0.107,0.063-0.15,0.112c-0.043,0.049-0.076,0.11-0.101,0.183
		c-0.025,0.073-0.037,0.156-0.037,0.249c0,0.073,0.007,0.145,0.021,0.216c0.014,0.071,0.039,0.134,0.075,0.19
		c0.036,0.056,0.085,0.101,0.146,0.135c0.061,0.034,0.14,0.051,0.236,0.051c0.017,0,0.038-0.001,0.061-0.003
		c0.023-0.002,0.048-0.006,0.073-0.012c0.025-0.006,0.052-0.015,0.079-0.027c0.027-0.012,0.054-0.029,0.081-0.05
		c0.063-0.049,0.105-0.106,0.126-0.17c0.021-0.064,0.032-0.135,0.032-0.212h-0.448V172.553z"/>
	<path id="path3311" d="M261.685,173.321h-1.06v-1.436h1.046v0.172h-0.852v0.44h0.786v0.172h-0.786v0.48h0.866V173.321z"/>
	<path id="path3313" d="M235.705,175.321h-0.194v-1.436h0.194V175.321z"/>
	<path id="path3315" d="M237.161,175.321v-0.848c0-0.011,0-0.029,0.001-0.055c0.001-0.026,0.001-0.056,0.001-0.089
		c0-0.035,0-0.071,0.001-0.108c0.001-0.037,0.001-0.073,0.001-0.106h-0.004l-0.404,1.206h-0.192l-0.404-1.204h-0.004
		c0,0.033,0,0.069,0.001,0.106c0.001,0.037,0.001,0.073,0.001,0.106c0,0.033,0,0.063,0.001,0.089
		c0.001,0.026,0.001,0.044,0.001,0.055v0.848h-0.188v-1.436h0.278l0.41,1.214h0.004l0.408-1.214h0.276v1.436H237.161z"/>
	<path id="path3317" d="M238.768,175.321v-0.848c0-0.011,0-0.029,0.001-0.055c0.001-0.026,0.001-0.056,0.001-0.089
		c0-0.035,0-0.071,0.001-0.108c0.001-0.037,0.001-0.073,0.001-0.106h-0.004l-0.404,1.206h-0.192l-0.404-1.204h-0.004
		c0,0.033,0,0.069,0.001,0.106c0.001,0.037,0.001,0.073,0.001,0.106c0,0.033,0,0.063,0.001,0.089
		c0.001,0.026,0.001,0.044,0.001,0.055v0.848h-0.188v-1.436h0.278l0.41,1.214h0.004l0.408-1.214h0.276v1.436H238.768z"/>
	<path id="path3319" d="M240.273,175.321h-1.06v-1.436h1.046v0.172h-0.852v0.44h0.786v0.172h-0.786v0.48h0.866V175.321z"/>
	<path id="path3321" d="M240.672,175.155h0.376c0.127,0,0.228-0.048,0.303-0.143c0.075-0.095,0.113-0.234,0.113-0.417
		c0-0.181-0.039-0.317-0.116-0.408c-0.077-0.091-0.182-0.136-0.314-0.136h-0.362V175.155z M240.478,173.885h0.582
		c0.093,0,0.177,0.017,0.252,0.051c0.075,0.034,0.138,0.082,0.19,0.143c0.052,0.061,0.092,0.135,0.12,0.22
		c0.028,0.085,0.042,0.18,0.042,0.284c0,0.08-0.01,0.164-0.029,0.251c-0.019,0.087-0.053,0.167-0.1,0.239
		c-0.047,0.072-0.11,0.131-0.189,0.178c-0.079,0.047-0.177,0.07-0.294,0.07h-0.574V173.885z"/>
	<path id="path3323" d="M242.081,175.321h-0.194v-1.436h0.194V175.321z"/>
	<path id="path3325" d="M243.087,174.731l-0.212-0.632h-0.004l-0.23,0.632H243.087z M242.581,174.903l-0.15,0.418h-0.2l0.54-1.436
		h0.22l0.52,1.436h-0.212l-0.142-0.418H242.581z"/>
	<path id="path3327" d="M243.506,173.885h1.166v0.172h-0.486v1.264h-0.194v-1.264h-0.486V173.885z"/>
	<path id="path3329" d="M245.876,175.321h-1.06v-1.436h1.046v0.172h-0.852v0.44h0.786v0.172h-0.786v0.48h0.866V175.321z"/>
	<path id="path3331" d="M246.265,175.149h0.728v0.172h-0.922v-1.436h0.194V175.149z"/>
	<path id="path3333" d="M247.739,175.321h-0.194v-0.578l-0.542-0.858h0.226l0.412,0.69l0.412-0.69h0.228l-0.542,0.858V175.321z"/>
	<path id="path3335" d="M249.852,173.885h0.188v1.436h-0.218l-0.73-1.16h-0.004v1.16H248.9v-1.436h0.23l0.718,1.16h0.004V173.885z"
		/>
	<path id="path3337" d="M251.615,174.603c0,0.052-0.005,0.107-0.015,0.164c-0.01,0.057-0.026,0.114-0.048,0.17
		c-0.022,0.056-0.051,0.109-0.086,0.16c-0.035,0.051-0.079,0.096-0.131,0.135c-0.052,0.039-0.113,0.07-0.182,0.093
		c-0.069,0.023-0.149,0.034-0.238,0.034s-0.169-0.011-0.238-0.034c-0.069-0.023-0.13-0.054-0.182-0.093
		c-0.052-0.039-0.096-0.084-0.131-0.135c-0.035-0.051-0.064-0.104-0.086-0.16c-0.022-0.056-0.038-0.113-0.048-0.17
		c-0.01-0.057-0.015-0.112-0.015-0.164c0-0.052,0.005-0.107,0.015-0.164c0.01-0.057,0.026-0.114,0.048-0.17
		c0.022-0.056,0.051-0.109,0.086-0.16c0.035-0.051,0.079-0.096,0.131-0.135c0.052-0.039,0.113-0.07,0.182-0.093
		c0.069-0.023,0.149-0.034,0.238-0.034s0.169,0.011,0.238,0.034c0.069,0.023,0.13,0.054,0.182,0.093
		c0.052,0.039,0.096,0.084,0.131,0.135c0.035,0.051,0.064,0.104,0.086,0.16c0.022,0.056,0.038,0.113,0.048,0.17
		C251.61,174.496,251.615,174.551,251.615,174.603z M251.415,174.603c0-0.084-0.011-0.162-0.034-0.233
		c-0.023-0.071-0.056-0.133-0.099-0.185c-0.043-0.052-0.096-0.093-0.158-0.122c-0.062-0.029-0.132-0.044-0.209-0.044
		c-0.079,0-0.149,0.015-0.21,0.044c-0.061,0.029-0.114,0.07-0.157,0.122c-0.043,0.052-0.076,0.114-0.099,0.185
		c-0.023,0.071-0.034,0.149-0.034,0.233c0,0.084,0.011,0.162,0.034,0.233c0.023,0.071,0.056,0.133,0.099,0.185
		c0.043,0.052,0.096,0.093,0.157,0.122c0.061,0.029,0.131,0.044,0.21,0.044c0.077,0,0.147-0.015,0.209-0.044
		c0.062-0.029,0.115-0.07,0.158-0.122c0.043-0.052,0.076-0.114,0.099-0.185C251.404,174.765,251.415,174.687,251.415,174.603z"/>
	<path id="path3339" d="M251.663,173.885h1.166v0.172h-0.486v1.264h-0.194v-1.264h-0.486V173.885z"/>
	<path id="path3341" d="M253.176,175.321h-0.194v-1.436h0.194V175.321z"/>
	<path id="path3343" d="M253.664,175.321h-0.194v-1.436h0.994v0.172h-0.8v0.44h0.704v0.172h-0.704V175.321z"/>
	<path id="path3345" d="M255.228,175.321h-0.194v-0.578l-0.542-0.858h0.226l0.412,0.69l0.412-0.69h0.228l-0.542,0.858V175.321z"/>
	<path id="path3347" d="M232.416,177.321h-0.194v-1.436h0.646c0.067,0,0.126,0.011,0.179,0.031s0.097,0.049,0.134,0.085
		c0.037,0.036,0.065,0.079,0.084,0.128c0.019,0.049,0.029,0.103,0.029,0.16c0,0.051-0.008,0.101-0.023,0.151
		c-0.015,0.05-0.04,0.096-0.073,0.137c-0.033,0.041-0.077,0.075-0.132,0.1c-0.055,0.025-0.121,0.038-0.198,0.038h-0.452V177.321z
		 M232.416,176.549h0.386c0.044,0,0.084-0.004,0.119-0.013c0.035-0.009,0.066-0.023,0.092-0.043c0.026-0.02,0.046-0.047,0.06-0.08
		c0.014-0.033,0.021-0.074,0.021-0.122c0-0.045-0.007-0.083-0.022-0.114c-0.015-0.031-0.035-0.055-0.06-0.074
		c-0.025-0.019-0.055-0.032-0.09-0.04c-0.035-0.008-0.072-0.012-0.112-0.012h-0.394V176.549z"/>
	<path id="path3349" d="M234.614,175.885v0.932c0,0.073-0.012,0.143-0.035,0.209c-0.023,0.066-0.059,0.124-0.106,0.173
		c-0.047,0.049-0.107,0.088-0.18,0.117c-0.073,0.029-0.158,0.043-0.257,0.043c-0.096,0-0.179-0.014-0.249-0.043
		c-0.07-0.029-0.127-0.067-0.172-0.115c-0.045-0.048-0.078-0.103-0.099-0.165c-0.021-0.062-0.032-0.126-0.032-0.193v-0.958h0.194
		v0.904c0,0.079,0.011,0.143,0.032,0.194c0.021,0.051,0.049,0.091,0.084,0.122c0.035,0.031,0.074,0.052,0.117,0.064
		c0.043,0.012,0.087,0.018,0.131,0.018c0.044,0,0.089-0.006,0.134-0.018c0.045-0.012,0.086-0.033,0.122-0.062
		c0.036-0.029,0.065-0.069,0.088-0.12c0.023-0.051,0.034-0.115,0.034-0.194v-0.908H234.614z"/>
	<path id="path3351" d="M235.056,177.155h0.414c0.101,0,0.177-0.024,0.228-0.071c0.051-0.047,0.076-0.111,0.076-0.191
		c0-0.051-0.01-0.092-0.03-0.123c-0.02-0.031-0.046-0.056-0.078-0.074s-0.068-0.03-0.108-0.036c-0.04-0.006-0.08-0.009-0.12-0.009
		h-0.382L235.056,177.155z M234.862,175.885h0.632c0.067,0,0.125,0.01,0.176,0.029c0.051,0.019,0.093,0.046,0.127,0.079
		c0.034,0.033,0.06,0.072,0.077,0.115c0.017,0.043,0.026,0.09,0.026,0.139c0,0.024-0.003,0.05-0.008,0.077
		c-0.005,0.027-0.015,0.054-0.029,0.081c-0.014,0.027-0.033,0.052-0.058,0.077c-0.025,0.025-0.057,0.046-0.097,0.065
		c0.024,0.009,0.051,0.021,0.081,0.036c0.03,0.015,0.058,0.035,0.085,0.061c0.027,0.026,0.049,0.059,0.067,0.1
		c0.018,0.041,0.027,0.092,0.027,0.153c0,0.057-0.011,0.112-0.032,0.163c-0.021,0.051-0.052,0.096-0.093,0.135
		s-0.091,0.069-0.152,0.092c-0.061,0.023-0.131,0.034-0.211,0.034h-0.618V175.885z M235.056,176.493h0.35
		c0.093,0,0.167-0.017,0.22-0.05c0.053-0.033,0.08-0.094,0.08-0.182c0-0.068-0.023-0.12-0.068-0.156
		c-0.045-0.036-0.122-0.054-0.23-0.054h-0.352V176.493z"/>
	<path id="path3353" d="M236.335,177.149h0.728v0.172h-0.922v-1.436h0.194V177.149z"/>
	<path id="path3355" d="M237.422,177.321h-0.194v-1.436h0.194V177.321z"/>
	<path id="path3357" d="M238.703,176.317c-0.013-0.063-0.035-0.114-0.066-0.153c-0.031-0.039-0.065-0.07-0.103-0.091
		c-0.038-0.021-0.078-0.036-0.119-0.043c-0.041-0.007-0.079-0.011-0.114-0.011c-0.065,0-0.126,0.012-0.183,0.036
		c-0.057,0.024-0.106,0.06-0.149,0.107c-0.043,0.047-0.076,0.107-0.101,0.178c-0.025,0.071-0.037,0.154-0.037,0.249
		c0,0.084,0.008,0.163,0.024,0.236c0.016,0.073,0.043,0.137,0.08,0.19c0.037,0.053,0.086,0.095,0.147,0.126
		c0.061,0.031,0.136,0.046,0.225,0.046c0.032,0,0.068-0.005,0.108-0.015c0.04-0.01,0.08-0.029,0.119-0.057
		c0.039-0.028,0.076-0.068,0.109-0.119c0.033-0.051,0.058-0.119,0.074-0.203h0.188c-0.013,0.091-0.036,0.167-0.067,0.23
		c-0.031,0.063-0.067,0.115-0.108,0.157c-0.041,0.042-0.084,0.075-0.129,0.099c-0.045,0.024-0.089,0.042-0.131,0.054
		c-0.042,0.012-0.08,0.019-0.115,0.022c-0.035,0.003-0.061,0.004-0.078,0.004c-0.081,0-0.161-0.014-0.238-0.042
		c-0.077-0.028-0.146-0.072-0.207-0.133c-0.061-0.061-0.109-0.139-0.146-0.236c-0.037-0.097-0.055-0.214-0.055-0.353
		c0-0.111,0.015-0.212,0.046-0.303c0.031-0.091,0.075-0.17,0.132-0.236c0.057-0.066,0.128-0.117,0.211-0.154
		c0.083-0.037,0.177-0.055,0.281-0.055c0.092,0,0.173,0.013,0.244,0.04c0.071,0.027,0.13,0.062,0.179,0.105
		c0.049,0.043,0.087,0.093,0.115,0.15c0.028,0.057,0.045,0.115,0.052,0.175H238.703z"/>
	<path id="path3359" d="M240.528,175.885h0.194v1.436h-0.194v-0.67h-0.75v0.67h-0.194v-1.436h0.194v0.594h0.75V175.885z"/>
	<path id="path3361" d="M242.05,177.321h-1.06v-1.436h1.046v0.172h-0.852v0.44h0.786v0.172h-0.786v0.48h0.866V177.321z"/>
	<path id="path3363" d="M242.977,176.731l-0.212-0.632h-0.004l-0.23,0.632H242.977z M242.471,176.903l-0.15,0.418h-0.2l0.54-1.436
		h0.22l0.52,1.436h-0.212l-0.142-0.418H242.471z"/>
	<path id="path3365" d="M243.715,177.149h0.728v0.172h-0.922v-1.436h0.194V177.149z"/>
	<path id="path3367" d="M244.453,175.885h1.166v0.172h-0.486v1.264h-0.194v-1.264h-0.486V175.885z"/>
	<path id="path3369" d="M246.689,175.885h0.194v1.436h-0.194v-0.67h-0.75v0.67h-0.194v-1.436h0.194v0.594h0.75V175.885z"/>
	<path id="path3371" d="M248.361,176.731l-0.212-0.632h-0.004l-0.23,0.632H248.361z M247.855,176.903l-0.15,0.418h-0.2l0.54-1.436
		h0.22l0.52,1.436h-0.212l-0.142-0.418H247.855z"/>
	<path id="path3373" d="M250.04,175.885v0.932c0,0.073-0.012,0.143-0.035,0.209c-0.023,0.066-0.059,0.124-0.106,0.173
		c-0.047,0.049-0.107,0.088-0.18,0.117c-0.073,0.029-0.158,0.043-0.257,0.043c-0.096,0-0.179-0.014-0.249-0.043
		c-0.07-0.029-0.127-0.067-0.172-0.115c-0.045-0.048-0.078-0.103-0.099-0.165c-0.021-0.062-0.032-0.126-0.032-0.193v-0.958h0.194
		v0.904c0,0.079,0.011,0.143,0.032,0.194c0.021,0.051,0.049,0.091,0.084,0.122c0.035,0.031,0.074,0.052,0.117,0.064
		c0.043,0.012,0.087,0.018,0.131,0.018s0.089-0.006,0.134-0.018c0.045-0.012,0.086-0.033,0.122-0.062
		c0.036-0.029,0.065-0.069,0.088-0.12c0.023-0.051,0.034-0.115,0.034-0.194v-0.908H250.04z"/>
	<path id="path3375" d="M250.169,175.885h1.166v0.172h-0.486v1.264h-0.194v-1.264h-0.486V175.885z"/>
	<path id="path3377" d="M252.405,175.885h0.194v1.436h-0.194v-0.67h-0.75v0.67h-0.194v-1.436h0.194v0.594h0.75V175.885z"/>
	<path id="path3379" d="M254.173,176.603c0,0.052-0.005,0.107-0.015,0.164c-0.01,0.057-0.026,0.114-0.048,0.17
		c-0.022,0.056-0.051,0.109-0.086,0.16c-0.035,0.051-0.079,0.096-0.131,0.135c-0.052,0.039-0.113,0.07-0.182,0.093
		c-0.069,0.023-0.149,0.034-0.238,0.034c-0.089,0-0.169-0.011-0.238-0.034c-0.069-0.023-0.13-0.054-0.182-0.093
		c-0.052-0.039-0.096-0.084-0.131-0.135c-0.035-0.051-0.064-0.104-0.086-0.16c-0.022-0.056-0.038-0.113-0.048-0.17
		c-0.01-0.057-0.015-0.112-0.015-0.164s0.005-0.107,0.015-0.164c0.01-0.057,0.026-0.114,0.048-0.17
		c0.022-0.056,0.051-0.109,0.086-0.16c0.035-0.051,0.079-0.096,0.131-0.135c0.052-0.039,0.113-0.07,0.182-0.093
		c0.069-0.023,0.149-0.034,0.238-0.034c0.089,0,0.169,0.011,0.238,0.034c0.069,0.023,0.13,0.054,0.182,0.093
		c0.052,0.039,0.096,0.084,0.131,0.135c0.035,0.051,0.064,0.104,0.086,0.16c0.022,0.056,0.038,0.113,0.048,0.17
		C254.168,176.496,254.173,176.551,254.173,176.603z M253.973,176.603c0-0.084-0.011-0.162-0.034-0.233
		c-0.023-0.071-0.056-0.133-0.099-0.185c-0.043-0.052-0.096-0.093-0.158-0.122c-0.062-0.029-0.132-0.044-0.209-0.044
		c-0.079,0-0.149,0.015-0.21,0.044c-0.061,0.029-0.114,0.07-0.157,0.122c-0.043,0.052-0.076,0.114-0.099,0.185
		c-0.023,0.071-0.034,0.149-0.034,0.233s0.011,0.162,0.034,0.233c0.023,0.071,0.056,0.133,0.099,0.185
		c0.043,0.052,0.096,0.093,0.157,0.122c0.061,0.029,0.131,0.044,0.21,0.044c0.077,0,0.147-0.015,0.209-0.044
		c0.062-0.029,0.115-0.07,0.158-0.122c0.043-0.052,0.076-0.114,0.099-0.185C253.962,176.765,253.973,176.687,253.973,176.603z"/>
	<path id="path3381" d="M254.563,176.539h0.45c0.036,0,0.071-0.003,0.106-0.009c0.035-0.006,0.066-0.018,0.093-0.036
		c0.027-0.018,0.05-0.043,0.067-0.075c0.017-0.032,0.026-0.075,0.026-0.128c0-0.056-0.009-0.1-0.027-0.132
		c-0.018-0.032-0.04-0.056-0.066-0.072c-0.026-0.016-0.054-0.026-0.084-0.03s-0.057-0.006-0.081-0.006h-0.484V176.539z
		 M254.563,177.321h-0.194v-1.436h0.664c0.059,0,0.116,0.006,0.173,0.018c0.057,0.012,0.107,0.032,0.151,0.061
		c0.044,0.029,0.08,0.068,0.107,0.118c0.027,0.05,0.041,0.113,0.041,0.189c0,0.053-0.006,0.099-0.018,0.136
		c-0.012,0.037-0.028,0.069-0.047,0.095c-0.019,0.026-0.041,0.048-0.065,0.066c-0.024,0.018-0.047,0.034-0.07,0.047
		c0.02,0.008,0.04,0.017,0.06,0.028c0.02,0.011,0.038,0.026,0.054,0.045c0.016,0.019,0.029,0.045,0.039,0.076
		c0.01,0.031,0.016,0.072,0.019,0.121l0.012,0.26c0,0.02,0.001,0.037,0.003,0.051c0.002,0.014,0.006,0.027,0.011,0.038
		c0.005,0.011,0.013,0.021,0.022,0.03c0.009,0.009,0.021,0.017,0.036,0.025v0.032h-0.238c-0.007-0.021-0.012-0.05-0.017-0.085
		c-0.005-0.035-0.008-0.071-0.011-0.107c-0.003-0.036-0.004-0.07-0.005-0.101c-0.001-0.031-0.001-0.054-0.001-0.067
		c0-0.029-0.002-0.059-0.007-0.09c-0.005-0.031-0.016-0.058-0.034-0.083s-0.044-0.045-0.078-0.06
		c-0.034-0.015-0.08-0.023-0.137-0.023h-0.47V177.321z"/>
	<path id="path3383" d="M255.957,177.321h-0.194v-1.436h0.194V177.321z"/>
	<path id="path3385" d="M256.107,175.885h1.166v0.172h-0.486v1.264h-0.194v-1.264h-0.486V175.885z"/>
	<path id="path3387" d="M258.009,177.321h-0.194v-0.578l-0.542-0.858h0.226l0.412,0.69l0.412-0.69h0.228l-0.542,0.858V177.321z"/>
	<path id="path3389" d="M258.902,177.321h-0.208v-0.212h0.208V177.321z"/>
</g>
<g id="_x36_" transform="scale(0.9955493,1.0044705)">
	<path id="path3264" d="M229.533,354.982l-7.528,0.83c-0.184-1.55-0.664-2.695-1.439-3.432c-0.775-0.739-1.78-1.107-3.016-1.107
		c-1.642,0-3.031,0.738-4.165,2.214c-1.135,1.476-1.85,4.548-2.145,9.216c1.937-2.288,4.345-3.431,7.223-3.431
		c3.247,0,6.028,1.236,8.344,3.708c2.316,2.471,3.473,5.664,3.473,9.575c0,4.15-1.218,7.481-3.653,9.991
		c-2.436,2.509-5.563,3.763-9.382,3.763c-4.096,0-7.463-1.591-10.101-4.774c-2.638-3.183-3.958-8.4-3.958-15.651
		c0-7.435,1.375-12.794,4.123-16.079c2.749-3.284,6.319-4.925,10.711-4.925c3.08,0,5.631,0.861,7.651,2.587
		C227.693,349.193,228.98,351.697,229.533,354.982L229.533,354.982z M211.905,371.945c0,2.528,0.581,4.48,1.744,5.854
		c1.162,1.375,2.491,2.062,3.985,2.062c1.44,0,2.639-0.563,3.598-1.688c0.959-1.126,1.439-2.971,1.439-5.536
		c0-2.639-0.517-4.571-1.549-5.797c-1.034-1.227-2.325-1.84-3.875-1.84c-1.494,0-2.758,0.585-3.791,1.758
		C212.421,367.928,211.905,369.658,211.905,371.945L211.905,371.945z"/>
</g>
<g id="flowRoot3058" transform="matrix(13.481989,0,0,13.481989,-5073.7113,-2273.5927)">
	<path id="path3225" d="M380.413,185.366h0.314v-1.428h-0.314V185.366z"/>
	<path id="path3227" d="M380.958,185.366h0.294v-0.956h0.004l0.595,0.956h0.313v-1.428h-0.294v0.958h-0.004l-0.596-0.958h-0.313
		V185.366z"/>
	<path id="path3229" d="M382.394,185.366h0.314v-0.59h0.598v-0.244h-0.598v-0.33h0.689v-0.264h-1.004V185.366z"/>
	<path id="path3231" d="M383.537,185.366h1.084v-0.264h-0.77v-0.351h0.691v-0.244h-0.691v-0.306h0.754v-0.264h-1.068V185.366z"/>
	<path id="path3233" d="M386.046,184.417c-0.021-0.167-0.089-0.294-0.204-0.382c-0.113-0.087-0.25-0.131-0.411-0.132
		c-0.221,0.003-0.394,0.075-0.517,0.216c-0.122,0.141-0.184,0.321-0.186,0.538c0.001,0.211,0.063,0.386,0.186,0.524
		c0.123,0.143,0.295,0.215,0.517,0.218c0.368-0.01,0.577-0.204,0.628-0.584h-0.305c-0.012,0.096-0.044,0.172-0.098,0.229
		c-0.055,0.059-0.13,0.089-0.226,0.09c-0.139-0.003-0.238-0.052-0.299-0.149c-0.061-0.096-0.091-0.206-0.09-0.328
		c-0.001-0.131,0.029-0.244,0.09-0.34c0.061-0.098,0.16-0.148,0.299-0.15c0.079,0.001,0.149,0.025,0.208,0.07
		c0.057,0.047,0.092,0.107,0.104,0.18L386.046,184.417z"/>
	<path id="path3235" d="M386.542,185.366h0.313v-1.164h0.429v-0.264h-1.17v0.264h0.428V185.366z"/>
	<path id="path3237" d="M387.404,185.366h0.314v-1.428h-0.314V185.366z"/>
	<path id="path3239" d="M387.888,184.658c0.001,0.211,0.063,0.386,0.186,0.524c0.123,0.143,0.295,0.215,0.517,0.218
		c0.224-0.003,0.396-0.075,0.518-0.218c0.121-0.139,0.182-0.313,0.184-0.524c-0.001-0.217-0.063-0.397-0.184-0.538
		c-0.121-0.141-0.294-0.213-0.518-0.216c-0.221,0.003-0.394,0.075-0.517,0.216C387.951,184.261,387.889,184.44,387.888,184.658z
		 M388.201,184.658c-0.001-0.131,0.029-0.244,0.09-0.34c0.06-0.098,0.16-0.148,0.299-0.15c0.141,0.003,0.242,0.053,0.302,0.15
		c0.057,0.096,0.086,0.209,0.086,0.34c0,0.122-0.029,0.232-0.086,0.328c-0.06,0.097-0.161,0.147-0.302,0.149
		c-0.139-0.003-0.238-0.052-0.299-0.149C388.23,184.889,388.2,184.78,388.201,184.658z"/>
	<path id="path3241" d="M390.671,183.938h-0.313v0.888c0,0.105-0.022,0.183-0.065,0.232c-0.044,0.051-0.121,0.077-0.231,0.077
		c-0.061,0-0.111-0.009-0.15-0.027c-0.04-0.019-0.07-0.042-0.092-0.07c-0.019-0.031-0.032-0.064-0.04-0.1
		c-0.008-0.036-0.012-0.074-0.012-0.112v-0.888h-0.314v0.888c0.005,0.384,0.208,0.576,0.608,0.574c0.4,0,0.603-0.191,0.609-0.574
		V183.938z"/>
	<path id="path3243" d="M390.805,184.892c0.004,0.174,0.066,0.302,0.187,0.384c0.117,0.083,0.258,0.124,0.422,0.124
		c0.195-0.001,0.342-0.045,0.443-0.132c0.1-0.085,0.15-0.194,0.15-0.326c-0.001-0.081-0.018-0.148-0.05-0.2
		c-0.033-0.052-0.074-0.093-0.122-0.122c-0.048-0.031-0.095-0.052-0.141-0.065c-0.046-0.014-0.083-0.023-0.111-0.028
		c-0.173-0.043-0.289-0.078-0.347-0.104c-0.029-0.014-0.05-0.03-0.062-0.048c-0.012-0.017-0.018-0.038-0.018-0.063
		c0.001-0.06,0.025-0.103,0.071-0.128c0.043-0.023,0.091-0.034,0.145-0.034c0.077-0.001,0.143,0.013,0.195,0.042
		c0.052,0.032,0.081,0.09,0.086,0.174h0.305c-0.003-0.165-0.06-0.284-0.172-0.355c-0.111-0.07-0.244-0.104-0.4-0.104
		c-0.135,0-0.256,0.035-0.362,0.106c-0.112,0.072-0.169,0.18-0.172,0.325c0,0.066,0.013,0.121,0.038,0.166
		c0.024,0.046,0.056,0.084,0.097,0.114c0.041,0.029,0.087,0.054,0.138,0.074c0.051,0.022,0.102,0.039,0.153,0.052
		c0.111,0.024,0.208,0.051,0.292,0.08c0.042,0.015,0.074,0.034,0.099,0.058c0.023,0.025,0.034,0.058,0.034,0.099
		c0,0.036-0.009,0.065-0.026,0.086c-0.019,0.024-0.042,0.043-0.07,0.056c-0.028,0.014-0.058,0.023-0.09,0.028
		c-0.032,0.005-0.063,0.008-0.092,0.008c-0.087,0-0.16-0.021-0.22-0.063c-0.063-0.041-0.095-0.108-0.097-0.201L390.805,184.892z"/>
	<path id="path3245" d="M392.568,184.892c0.004,0.174,0.066,0.302,0.187,0.384c0.117,0.083,0.258,0.124,0.422,0.124
		c0.195-0.001,0.342-0.045,0.443-0.132c0.1-0.085,0.15-0.194,0.15-0.326c-0.001-0.081-0.018-0.148-0.05-0.2
		c-0.033-0.052-0.074-0.093-0.122-0.122c-0.048-0.031-0.095-0.052-0.141-0.065c-0.046-0.014-0.083-0.023-0.111-0.028
		c-0.173-0.043-0.289-0.078-0.347-0.104c-0.029-0.014-0.05-0.03-0.062-0.048c-0.012-0.017-0.018-0.038-0.018-0.063
		c0.001-0.06,0.025-0.103,0.071-0.128c0.043-0.023,0.091-0.034,0.145-0.034c0.078-0.001,0.143,0.013,0.195,0.042
		c0.052,0.032,0.081,0.09,0.086,0.174h0.305c-0.003-0.165-0.06-0.284-0.172-0.355c-0.111-0.07-0.244-0.104-0.4-0.104
		c-0.135,0-0.256,0.035-0.362,0.106c-0.112,0.072-0.169,0.18-0.172,0.325c0,0.066,0.013,0.121,0.038,0.166
		c0.024,0.046,0.056,0.084,0.097,0.114c0.041,0.029,0.087,0.054,0.138,0.074c0.051,0.022,0.102,0.039,0.153,0.052
		c0.111,0.024,0.208,0.051,0.292,0.08c0.042,0.015,0.074,0.034,0.099,0.058c0.023,0.025,0.034,0.058,0.034,0.099
		c0,0.036-0.009,0.065-0.026,0.086c-0.019,0.024-0.042,0.043-0.07,0.056c-0.028,0.014-0.058,0.023-0.09,0.028
		c-0.032,0.005-0.062,0.008-0.092,0.008c-0.087,0-0.16-0.021-0.22-0.063c-0.063-0.041-0.095-0.108-0.097-0.201L392.568,184.892z"/>
	<path id="path3247" d="M395.122,183.938h-0.313v0.888c0,0.105-0.022,0.183-0.065,0.232c-0.044,0.051-0.121,0.077-0.231,0.077
		c-0.061,0-0.111-0.009-0.15-0.027c-0.04-0.019-0.07-0.042-0.092-0.07c-0.019-0.031-0.032-0.064-0.04-0.1
		c-0.008-0.036-0.012-0.074-0.012-0.112v-0.888h-0.314v0.888c0.005,0.384,0.208,0.576,0.608,0.574c0.4,0,0.603-0.191,0.609-0.574
		V183.938z"/>
	<path id="path3249" d="M395.661,184.73h0.342c0.069,0,0.124,0.015,0.164,0.046c0.041,0.032,0.061,0.085,0.061,0.158
		c-0.001,0.072-0.024,0.121-0.067,0.147c-0.046,0.028-0.1,0.041-0.164,0.04h-0.336V184.73z M395.346,185.366h0.692
		c0.135,0,0.251-0.033,0.35-0.1c0.1-0.066,0.152-0.171,0.154-0.314c0-0.186-0.087-0.306-0.262-0.362
		c0.063-0.031,0.111-0.07,0.146-0.119c0.032-0.049,0.048-0.109,0.048-0.179c-0.001-0.132-0.043-0.224-0.126-0.277
		c-0.081-0.051-0.191-0.076-0.33-0.076h-0.672L395.346,185.366z M395.661,184.182h0.294c0.059-0.001,0.108,0.008,0.149,0.029
		c0.043,0.023,0.065,0.068,0.066,0.135c-0.001,0.06-0.019,0.103-0.054,0.128c-0.035,0.028-0.081,0.042-0.139,0.042h-0.317V184.182z"
		/>
	<path id="path3251" d="M396.622,184.892c0.004,0.174,0.066,0.302,0.187,0.384c0.117,0.083,0.258,0.124,0.422,0.124
		c0.195-0.001,0.342-0.045,0.443-0.132c0.1-0.085,0.15-0.194,0.15-0.326c-0.001-0.081-0.018-0.148-0.05-0.2
		c-0.033-0.052-0.074-0.093-0.122-0.122c-0.048-0.031-0.095-0.052-0.141-0.065c-0.046-0.014-0.083-0.023-0.111-0.028
		c-0.173-0.043-0.289-0.078-0.347-0.104c-0.029-0.014-0.05-0.03-0.061-0.048c-0.012-0.017-0.018-0.038-0.018-0.063
		c0.001-0.06,0.025-0.103,0.071-0.128c0.043-0.023,0.091-0.034,0.145-0.034c0.077-0.001,0.143,0.013,0.195,0.042
		c0.052,0.032,0.081,0.09,0.086,0.174h0.305c-0.003-0.165-0.06-0.284-0.172-0.355c-0.111-0.07-0.244-0.104-0.4-0.104
		c-0.135,0-0.256,0.035-0.362,0.106c-0.112,0.072-0.169,0.18-0.172,0.325c0,0.066,0.013,0.121,0.038,0.166
		c0.024,0.046,0.056,0.084,0.097,0.114c0.041,0.029,0.087,0.054,0.138,0.074c0.051,0.022,0.102,0.039,0.153,0.052
		c0.111,0.024,0.208,0.051,0.292,0.08c0.042,0.015,0.074,0.034,0.099,0.058c0.023,0.025,0.034,0.058,0.034,0.099
		c0,0.036-0.009,0.065-0.026,0.086c-0.019,0.024-0.042,0.043-0.07,0.056c-0.028,0.014-0.058,0.023-0.09,0.028
		c-0.032,0.005-0.062,0.008-0.092,0.008c-0.087,0-0.16-0.021-0.22-0.063c-0.063-0.041-0.095-0.108-0.097-0.201L396.622,184.892z"/>
	<path id="path3253" d="M398.281,185.366h0.314v-1.164h0.429v-0.264h-1.17v0.264h0.428V185.366z"/>
	<path id="path3255" d="M398.991,185.366h0.317l0.112-0.318h0.534l0.107,0.318h0.326l-0.534-1.428h-0.321L398.991,185.366z
		 M399.688,184.29h0.004l0.181,0.524h-0.37L399.688,184.29z"/>
	<path id="path3257" d="M400.469,185.366h0.294v-0.956h0.004l0.595,0.956h0.313v-1.428h-0.294v0.958h-0.004l-0.596-0.958h-0.313
		V185.366z"/>
	<path id="path3259" d="M403.161,184.417c-0.021-0.167-0.089-0.294-0.204-0.382c-0.113-0.087-0.25-0.131-0.411-0.132
		c-0.221,0.003-0.394,0.075-0.517,0.216c-0.122,0.141-0.184,0.321-0.186,0.538c0.001,0.211,0.063,0.386,0.186,0.524
		c0.123,0.143,0.295,0.215,0.517,0.218c0.368-0.01,0.577-0.204,0.628-0.584h-0.305c-0.012,0.096-0.044,0.172-0.098,0.229
		c-0.055,0.059-0.13,0.089-0.226,0.09c-0.139-0.003-0.238-0.052-0.299-0.149c-0.061-0.096-0.091-0.206-0.09-0.328
		c-0.001-0.131,0.029-0.244,0.09-0.34c0.061-0.098,0.16-0.148,0.299-0.15c0.079,0.001,0.149,0.025,0.208,0.07
		c0.057,0.047,0.092,0.107,0.104,0.18L403.161,184.417z"/>
	<path id="path3261" d="M403.341,185.366h1.084v-0.264h-0.77v-0.351h0.691v-0.244h-0.691v-0.306h0.754v-0.264h-1.068V185.366z"/>
</g>
<g id="flowRoot3070" transform="matrix(4.173222,0,0,4.173222,-808.05441,-416.76541)">
	<path id="path3134" d="M242.606,173.321h-0.194v-1.436h0.194V173.321z"/>
	<path id="path3136" d="M243.889,171.885h0.188v1.436h-0.218l-0.73-1.16h-0.004v1.16h-0.188v-1.436h0.23l0.718,1.16h0.004V171.885z"
		/>
	<path id="path3138" d="M246.073,171.885v0.932c0,0.073-0.012,0.143-0.035,0.209c-0.023,0.066-0.059,0.124-0.106,0.173
		s-0.107,0.088-0.18,0.117c-0.073,0.029-0.158,0.043-0.257,0.043c-0.096,0-0.179-0.014-0.249-0.043s-0.127-0.067-0.172-0.115
		c-0.045-0.048-0.078-0.103-0.099-0.165c-0.021-0.062-0.032-0.126-0.032-0.193v-0.958h0.194v0.904c0,0.079,0.011,0.143,0.032,0.194
		c0.021,0.051,0.049,0.091,0.084,0.122c0.035,0.03,0.074,0.052,0.117,0.064c0.043,0.012,0.087,0.018,0.131,0.018
		c0.044,0,0.089-0.006,0.134-0.018c0.045-0.012,0.086-0.033,0.122-0.062c0.036-0.029,0.065-0.069,0.088-0.12
		s0.034-0.115,0.034-0.194v-0.908H246.073z"/>
	<path id="path3140" d="M247.249,172.305c-0.003-0.056-0.015-0.103-0.037-0.14c-0.022-0.037-0.05-0.067-0.084-0.09
		c-0.034-0.023-0.072-0.039-0.113-0.048c-0.041-0.009-0.082-0.014-0.122-0.014c-0.031,0-0.065,0.003-0.103,0.009
		c-0.038,0.006-0.074,0.018-0.107,0.036c-0.033,0.018-0.061,0.043-0.084,0.076c-0.023,0.033-0.034,0.076-0.034,0.131
		c0,0.031,0.005,0.056,0.015,0.077c0.01,0.021,0.023,0.038,0.039,0.052c0.016,0.014,0.034,0.025,0.054,0.033
		c0.02,0.008,0.041,0.015,0.062,0.02l0.41,0.094c0.047,0.011,0.09,0.026,0.13,0.046c0.04,0.02,0.074,0.046,0.103,0.077
		c0.029,0.031,0.051,0.068,0.068,0.111c0.017,0.043,0.025,0.093,0.025,0.15c0,0.085-0.018,0.156-0.053,0.212
		c-0.035,0.056-0.081,0.1-0.136,0.133c-0.055,0.033-0.116,0.056-0.182,0.069c-0.066,0.013-0.13,0.02-0.191,0.02
		c-0.067,0-0.124-0.004-0.171-0.013c-0.047-0.009-0.088-0.02-0.122-0.034c-0.034-0.014-0.062-0.029-0.084-0.045
		c-0.022-0.016-0.041-0.031-0.057-0.046c-0.062-0.056-0.101-0.114-0.119-0.173c-0.018-0.059-0.027-0.123-0.027-0.191h0.182
		c0,0.065,0.012,0.119,0.036,0.162c0.024,0.043,0.055,0.077,0.093,0.103s0.08,0.044,0.127,0.055c0.047,0.011,0.093,0.016,0.14,0.016
		c0.035,0,0.074-0.003,0.118-0.009c0.044-0.006,0.085-0.018,0.123-0.035c0.038-0.017,0.07-0.042,0.096-0.073
		c0.026-0.031,0.039-0.073,0.039-0.125c0-0.037-0.005-0.069-0.015-0.095c-0.01-0.026-0.027-0.048-0.05-0.067
		c-0.023-0.019-0.055-0.035-0.094-0.049c-0.039-0.014-0.088-0.029-0.147-0.043l-0.294-0.068c-0.024-0.005-0.053-0.015-0.088-0.027
		c-0.035-0.013-0.068-0.032-0.1-0.057c-0.032-0.025-0.059-0.058-0.083-0.099c-0.023-0.041-0.035-0.092-0.035-0.155
		c0-0.056,0.009-0.111,0.028-0.164c0.019-0.053,0.048-0.101,0.088-0.142c0.04-0.041,0.091-0.075,0.154-0.1
		c0.063-0.025,0.137-0.038,0.224-0.038c0.125,0,0.225,0.016,0.298,0.049c0.073,0.033,0.129,0.073,0.167,0.12s0.063,0.097,0.074,0.15
		c0.011,0.053,0.018,0.099,0.021,0.139H247.249z"/>
	<path id="path3142" d="M248.446,172.731l-0.212-0.632h-0.004l-0.23,0.632H248.446z M247.94,172.903l-0.15,0.418h-0.2l0.54-1.436
		h0.22l0.52,1.436h-0.212l-0.142-0.418H247.94z"/>
	<path id="path3144" d="M234.446,173.885h0.188v1.436h-0.218l-0.73-1.16h-0.004v1.16h-0.188v-1.436h0.23l0.718,1.16h0.004V173.885z"
		/>
	<path id="path3146" d="M236.265,174.603c0,0.052-0.005,0.107-0.015,0.164c-0.01,0.057-0.026,0.114-0.048,0.17
		c-0.022,0.056-0.051,0.109-0.086,0.16c-0.035,0.051-0.079,0.096-0.131,0.135c-0.052,0.039-0.113,0.07-0.182,0.093
		c-0.069,0.023-0.149,0.034-0.238,0.034c-0.089,0-0.169-0.011-0.238-0.034c-0.069-0.022-0.13-0.054-0.182-0.093
		c-0.052-0.039-0.096-0.084-0.131-0.135s-0.064-0.104-0.086-0.16c-0.022-0.056-0.038-0.113-0.048-0.17
		c-0.01-0.057-0.015-0.112-0.015-0.164c0-0.052,0.005-0.107,0.015-0.164c0.01-0.057,0.026-0.114,0.048-0.17
		c0.022-0.056,0.051-0.109,0.086-0.16c0.035-0.051,0.079-0.096,0.131-0.135c0.052-0.039,0.113-0.07,0.182-0.093
		c0.069-0.023,0.149-0.034,0.238-0.034c0.089,0,0.169,0.011,0.238,0.034c0.069,0.022,0.13,0.054,0.182,0.093
		c0.052,0.039,0.096,0.084,0.131,0.135c0.035,0.051,0.064,0.104,0.086,0.16c0.022,0.056,0.038,0.113,0.048,0.17
		C236.26,174.496,236.265,174.551,236.265,174.603z M236.065,174.603c0-0.084-0.011-0.162-0.034-0.233
		c-0.023-0.072-0.056-0.133-0.099-0.185c-0.043-0.052-0.096-0.093-0.158-0.122c-0.062-0.029-0.132-0.044-0.209-0.044
		c-0.079,0-0.149,0.015-0.21,0.044c-0.061,0.029-0.114,0.07-0.157,0.122c-0.043,0.052-0.076,0.113-0.099,0.185
		c-0.023,0.071-0.034,0.149-0.034,0.233s0.011,0.162,0.034,0.233c0.023,0.071,0.056,0.133,0.099,0.185
		c0.043,0.052,0.096,0.093,0.157,0.122s0.131,0.044,0.21,0.044c0.077,0,0.147-0.015,0.209-0.044s0.115-0.07,0.158-0.122
		c0.043-0.052,0.076-0.114,0.099-0.185C236.054,174.765,236.065,174.687,236.065,174.603z"/>
	<path id="path3148" d="M236.37,173.885h1.166v0.172h-0.486v1.264h-0.194v-1.264h-0.486V173.885z"/>
	<path id="path3150" d="M237.94,175.321h-0.194v-1.436h0.194V175.321z"/>
	<path id="path3152" d="M238.485,175.321h-0.194v-1.436h0.994v0.172h-0.8v0.44h0.704v0.172h-0.704V175.321z"/>
	<path id="path3154" d="M240.106,175.321h-0.194v-0.578l-0.542-0.858h0.226l0.412,0.69l0.412-0.69h0.228l-0.542,0.858V175.321z"/>
	<path id="path3156" d="M241.584,175.155h0.376c0.127,0,0.228-0.048,0.303-0.143c0.075-0.095,0.113-0.234,0.113-0.417
		c0-0.181-0.039-0.317-0.116-0.408c-0.077-0.091-0.182-0.136-0.314-0.136h-0.362V175.155z M241.391,173.885h0.582
		c0.093,0,0.177,0.017,0.252,0.051c0.075,0.034,0.138,0.082,0.19,0.143c0.052,0.061,0.092,0.135,0.12,0.22
		c0.028,0.085,0.042,0.18,0.042,0.284c0,0.08-0.01,0.164-0.029,0.251c-0.019,0.087-0.053,0.167-0.1,0.239
		c-0.047,0.072-0.11,0.131-0.189,0.178c-0.079,0.047-0.177,0.07-0.294,0.07h-0.574V173.885z"/>
	<path id="path3158" d="M243.05,175.321h-0.194v-1.436h0.194V175.321z"/>
	<path id="path3160" d="M243.598,174.539h0.45c0.036,0,0.071-0.003,0.106-0.009c0.035-0.006,0.066-0.018,0.093-0.036
		c0.027-0.018,0.049-0.043,0.067-0.075c0.017-0.032,0.026-0.075,0.026-0.128c0-0.056-0.009-0.1-0.027-0.132
		c-0.018-0.032-0.04-0.056-0.066-0.072c-0.026-0.016-0.054-0.026-0.084-0.03c-0.03-0.004-0.057-0.006-0.081-0.006h-0.484
		L243.598,174.539z M243.598,175.321h-0.194v-1.436h0.664c0.059,0,0.116,0.006,0.173,0.018c0.057,0.012,0.107,0.032,0.151,0.061
		c0.044,0.029,0.08,0.068,0.107,0.118c0.027,0.05,0.041,0.113,0.041,0.189c0,0.053-0.006,0.099-0.018,0.136
		c-0.012,0.037-0.028,0.069-0.047,0.095c-0.019,0.026-0.041,0.048-0.065,0.066c-0.024,0.018-0.047,0.034-0.07,0.047
		c0.02,0.008,0.04,0.017,0.06,0.028c0.02,0.011,0.038,0.026,0.054,0.045c0.016,0.019,0.029,0.045,0.039,0.076
		c0.01,0.031,0.016,0.072,0.019,0.121l0.012,0.26c0,0.02,0.001,0.037,0.003,0.051c0.002,0.014,0.006,0.027,0.011,0.038
		s0.013,0.021,0.022,0.03c0.009,0.009,0.021,0.017,0.036,0.025v0.032h-0.238c-0.007-0.022-0.012-0.05-0.017-0.085
		c-0.005-0.035-0.008-0.071-0.011-0.107c-0.003-0.036-0.004-0.07-0.005-0.101c-0.001-0.032-0.001-0.054-0.001-0.067
		c0-0.029-0.002-0.059-0.007-0.09c-0.005-0.031-0.016-0.058-0.034-0.083c-0.018-0.025-0.044-0.045-0.078-0.06
		c-0.034-0.015-0.08-0.023-0.137-0.023h-0.47V175.321z"/>
	<path id="path3162" d="M245.906,175.321h-1.06v-1.436h1.046v0.172h-0.852v0.44h0.786v0.172h-0.786v0.48h0.866V175.321z"/>
	<path id="path3164" d="M247.166,174.317c-0.013-0.062-0.035-0.113-0.066-0.153c-0.031-0.039-0.065-0.07-0.103-0.091
		c-0.038-0.021-0.078-0.036-0.119-0.043c-0.041-0.007-0.079-0.011-0.114-0.011c-0.066,0-0.126,0.012-0.183,0.036
		c-0.057,0.024-0.106,0.06-0.149,0.107c-0.043,0.047-0.076,0.107-0.101,0.178c-0.025,0.071-0.037,0.154-0.037,0.249
		c0,0.084,0.008,0.163,0.024,0.236c0.016,0.073,0.043,0.137,0.08,0.19c0.037,0.053,0.086,0.095,0.147,0.126
		c0.061,0.031,0.136,0.046,0.225,0.046c0.032,0,0.068-0.005,0.108-0.015c0.04-0.01,0.08-0.029,0.119-0.057
		c0.039-0.028,0.076-0.068,0.109-0.119c0.033-0.051,0.058-0.119,0.074-0.203h0.188c-0.013,0.091-0.036,0.168-0.067,0.23
		c-0.031,0.063-0.067,0.115-0.108,0.157c-0.04,0.042-0.084,0.075-0.129,0.099c-0.045,0.024-0.089,0.042-0.131,0.054
		c-0.042,0.012-0.08,0.019-0.115,0.022c-0.035,0.003-0.061,0.004-0.078,0.004c-0.081,0-0.161-0.014-0.238-0.042
		c-0.077-0.028-0.146-0.073-0.207-0.133c-0.061-0.061-0.109-0.139-0.146-0.236c-0.037-0.097-0.055-0.214-0.055-0.353
		c0-0.11,0.015-0.212,0.046-0.303c0.03-0.091,0.074-0.17,0.132-0.236c0.057-0.066,0.128-0.117,0.211-0.154
		c0.083-0.037,0.177-0.055,0.281-0.055c0.092,0,0.173,0.013,0.244,0.04c0.071,0.027,0.131,0.062,0.179,0.105
		c0.049,0.043,0.087,0.093,0.115,0.15c0.028,0.057,0.045,0.115,0.052,0.175H247.166z"/>
	<path id="path3166" d="M247.479,173.885h1.166v0.172h-0.486v1.264h-0.194v-1.264h-0.486V173.885z"/>
	<path id="path3168" d="M250.152,174.603c0,0.052-0.005,0.107-0.015,0.164c-0.01,0.057-0.026,0.114-0.048,0.17
		c-0.022,0.056-0.051,0.109-0.086,0.16c-0.036,0.051-0.079,0.096-0.131,0.135c-0.052,0.039-0.113,0.07-0.182,0.093
		c-0.069,0.023-0.149,0.034-0.238,0.034c-0.089,0-0.168-0.011-0.238-0.034c-0.069-0.022-0.13-0.054-0.182-0.093
		s-0.095-0.084-0.131-0.135c-0.035-0.051-0.064-0.104-0.086-0.16c-0.022-0.056-0.038-0.113-0.048-0.17
		c-0.01-0.057-0.015-0.112-0.015-0.164c0-0.052,0.005-0.107,0.015-0.164c0.01-0.057,0.026-0.114,0.048-0.17
		c0.022-0.056,0.051-0.109,0.086-0.16c0.035-0.051,0.079-0.096,0.131-0.135s0.113-0.07,0.182-0.093
		c0.069-0.023,0.149-0.034,0.238-0.034c0.089,0,0.169,0.011,0.238,0.034c0.069,0.022,0.13,0.054,0.182,0.093
		c0.052,0.039,0.095,0.084,0.131,0.135c0.035,0.051,0.064,0.104,0.086,0.16c0.022,0.056,0.038,0.113,0.048,0.17
		C250.147,174.496,250.152,174.551,250.152,174.603z M249.952,174.603c0-0.084-0.011-0.162-0.034-0.233
		c-0.023-0.072-0.056-0.133-0.099-0.185c-0.043-0.052-0.096-0.093-0.158-0.122c-0.062-0.029-0.132-0.044-0.209-0.044
		c-0.079,0-0.149,0.015-0.21,0.044c-0.061,0.029-0.113,0.07-0.157,0.122c-0.043,0.052-0.076,0.113-0.099,0.185
		c-0.023,0.071-0.034,0.149-0.034,0.233s0.011,0.162,0.034,0.233c0.023,0.071,0.056,0.133,0.099,0.185
		c0.044,0.052,0.096,0.093,0.157,0.122s0.131,0.044,0.21,0.044c0.077,0,0.147-0.015,0.209-0.044c0.062-0.029,0.115-0.07,0.158-0.122
		c0.043-0.052,0.076-0.114,0.099-0.185C249.941,174.765,249.952,174.687,249.952,174.603z"/>
	<path id="path3170" d="M250.599,174.539h0.45c0.036,0,0.071-0.003,0.106-0.009c0.035-0.006,0.066-0.018,0.093-0.036
		c0.027-0.018,0.05-0.043,0.067-0.075s0.026-0.075,0.026-0.128c0-0.056-0.009-0.1-0.027-0.132c-0.018-0.032-0.04-0.056-0.066-0.072
		c-0.026-0.016-0.054-0.026-0.084-0.03c-0.03-0.004-0.057-0.006-0.081-0.006h-0.484V174.539z M250.599,175.321h-0.194v-1.436h0.664
		c0.059,0,0.116,0.006,0.173,0.018c0.057,0.012,0.107,0.032,0.151,0.061c0.044,0.029,0.08,0.068,0.107,0.118
		c0.027,0.05,0.041,0.113,0.041,0.189c0,0.053-0.006,0.099-0.018,0.136c-0.012,0.037-0.028,0.069-0.047,0.095
		c-0.019,0.026-0.041,0.048-0.065,0.066s-0.048,0.034-0.07,0.047c0.02,0.008,0.04,0.017,0.06,0.028
		c0.02,0.011,0.038,0.026,0.054,0.045c0.016,0.019,0.029,0.045,0.039,0.076c0.01,0.031,0.016,0.072,0.019,0.121l0.012,0.26
		c0,0.02,0.001,0.037,0.003,0.051c0.002,0.014,0.006,0.027,0.011,0.038c0.005,0.011,0.013,0.021,0.022,0.03
		c0.009,0.009,0.021,0.017,0.036,0.025v0.032h-0.238c-0.007-0.022-0.012-0.05-0.017-0.085c-0.005-0.035-0.008-0.071-0.011-0.107
		s-0.004-0.07-0.005-0.101c-0.001-0.032-0.001-0.054-0.001-0.067c0-0.029-0.002-0.059-0.007-0.09
		c-0.005-0.031-0.016-0.058-0.034-0.083c-0.018-0.025-0.044-0.045-0.078-0.06c-0.034-0.015-0.08-0.023-0.137-0.023h-0.47
		L250.599,175.321z"/>
	<path id="path3172" d="M252.806,174.857h-0.49v-0.18h0.49V174.857z"/>
	<path id="path3174" d="M254.607,174.317c-0.013-0.062-0.035-0.113-0.066-0.153c-0.031-0.039-0.065-0.07-0.103-0.091
		c-0.038-0.021-0.078-0.036-0.119-0.043c-0.041-0.007-0.079-0.011-0.114-0.011c-0.066,0-0.126,0.012-0.183,0.036
		c-0.057,0.024-0.106,0.06-0.149,0.107c-0.043,0.047-0.076,0.107-0.101,0.178c-0.025,0.071-0.037,0.154-0.037,0.249
		c0,0.084,0.008,0.163,0.024,0.236c0.016,0.073,0.043,0.137,0.08,0.19c0.037,0.053,0.086,0.095,0.147,0.126
		c0.061,0.031,0.136,0.046,0.225,0.046c0.032,0,0.068-0.005,0.108-0.015c0.04-0.01,0.08-0.029,0.119-0.057
		c0.039-0.028,0.076-0.068,0.109-0.119c0.033-0.051,0.058-0.119,0.074-0.203h0.188c-0.013,0.091-0.036,0.168-0.067,0.23
		c-0.031,0.063-0.067,0.115-0.108,0.157c-0.041,0.042-0.084,0.075-0.129,0.099c-0.045,0.024-0.089,0.042-0.131,0.054
		c-0.042,0.012-0.08,0.019-0.115,0.022c-0.035,0.003-0.06,0.004-0.078,0.004c-0.081,0-0.161-0.014-0.238-0.042
		c-0.077-0.028-0.146-0.073-0.207-0.133c-0.061-0.061-0.11-0.139-0.146-0.236c-0.037-0.097-0.055-0.214-0.055-0.353
		c0-0.11,0.015-0.212,0.046-0.303c0.03-0.091,0.074-0.17,0.132-0.236c0.057-0.066,0.128-0.117,0.211-0.154
		c0.083-0.037,0.177-0.055,0.281-0.055c0.092,0,0.173,0.013,0.244,0.04c0.071,0.027,0.131,0.062,0.179,0.105
		c0.049,0.043,0.087,0.093,0.115,0.15c0.028,0.057,0.045,0.115,0.052,0.175H254.607z"/>
	<path id="path3176" d="M255.249,175.155h0.376c0.127,0,0.228-0.048,0.303-0.143c0.075-0.095,0.113-0.234,0.113-0.417
		c0-0.181-0.039-0.317-0.116-0.408c-0.077-0.091-0.182-0.136-0.314-0.136h-0.362V175.155z M255.055,173.885h0.582
		c0.093,0,0.177,0.017,0.252,0.051c0.075,0.034,0.138,0.082,0.19,0.143c0.052,0.061,0.092,0.135,0.12,0.22
		c0.028,0.085,0.042,0.18,0.042,0.284c0,0.08-0.01,0.164-0.029,0.251c-0.02,0.087-0.053,0.167-0.1,0.239
		c-0.047,0.072-0.11,0.131-0.189,0.178c-0.079,0.047-0.176,0.07-0.294,0.07h-0.574V173.885z"/>
	<path id="path3178" d="M257.498,174.317c-0.013-0.062-0.035-0.113-0.066-0.153c-0.031-0.039-0.065-0.07-0.103-0.091
		c-0.038-0.021-0.078-0.036-0.119-0.043c-0.041-0.007-0.08-0.011-0.114-0.011c-0.065,0-0.126,0.012-0.183,0.036
		c-0.057,0.024-0.106,0.06-0.149,0.107c-0.043,0.047-0.076,0.107-0.101,0.178c-0.025,0.071-0.037,0.154-0.037,0.249
		c0,0.084,0.008,0.163,0.024,0.236c0.016,0.073,0.043,0.137,0.08,0.19c0.037,0.053,0.086,0.095,0.147,0.126
		c0.061,0.031,0.136,0.046,0.225,0.046c0.032,0,0.068-0.005,0.108-0.015c0.04-0.01,0.08-0.029,0.119-0.057
		c0.039-0.028,0.076-0.068,0.109-0.119c0.033-0.051,0.058-0.119,0.074-0.203h0.188c-0.014,0.091-0.036,0.168-0.067,0.23
		c-0.031,0.063-0.067,0.115-0.108,0.157c-0.041,0.042-0.084,0.075-0.129,0.099c-0.045,0.024-0.089,0.042-0.131,0.054
		c-0.042,0.012-0.08,0.019-0.115,0.022c-0.035,0.003-0.061,0.004-0.078,0.004c-0.081,0-0.161-0.014-0.238-0.042
		c-0.077-0.028-0.146-0.073-0.207-0.133c-0.061-0.061-0.109-0.139-0.146-0.236c-0.036-0.097-0.055-0.214-0.055-0.353
		c0-0.11,0.015-0.212,0.046-0.303c0.031-0.091,0.075-0.17,0.132-0.236c0.057-0.066,0.128-0.117,0.211-0.154
		c0.083-0.037,0.177-0.055,0.281-0.055c0.092,0,0.173,0.013,0.244,0.04c0.071,0.027,0.13,0.062,0.179,0.105
		c0.049,0.043,0.087,0.093,0.115,0.15c0.028,0.057,0.045,0.115,0.052,0.175H257.498z"/>
	<path id="path3180" d="M239.948,176.731l-0.212-0.632h-0.004l-0.23,0.632H239.948z M239.442,176.903l-0.15,0.418h-0.2l0.54-1.436
		h0.22l0.52,1.436h-0.212l-0.142-0.418H239.442z"/>
	<path id="path3182" d="M240.425,175.885h1.166v0.172h-0.486v1.264h-0.194v-1.264h-0.486V175.885z"/>
	<path id="path3184" d="M241.965,177.149h0.728v0.172h-0.922v-1.436h0.194V177.149z"/>
	<path id="path3186" d="M243.616,176.731l-0.212-0.632H243.4l-0.23,0.632H243.616z M243.11,176.903l-0.15,0.418h-0.2l0.54-1.436
		h0.22l0.52,1.436h-0.212l-0.142-0.418H243.11z"/>
	<path id="path3188" d="M245.168,175.885h0.188v1.436h-0.218l-0.73-1.16h-0.004v1.16h-0.188v-1.436h0.23l0.718,1.16h0.004V175.885z"
		/>
	<path id="path3190" d="M245.538,175.885h1.166v0.172h-0.486v1.264h-0.194v-1.264h-0.486V175.885z"/>
	<path id="path3192" d="M247.616,176.731l-0.212-0.632H247.4l-0.23,0.632H247.616z M247.11,176.903l-0.15,0.418h-0.2l0.54-1.436
		h0.22l0.52,1.436h-0.212l-0.142-0.418H247.11z"/>
	<path id="path3194" d="M248.239,177.109h0.208v0.196c0,0.068-0.009,0.122-0.027,0.162c-0.018,0.04-0.039,0.071-0.062,0.092
		s-0.047,0.036-0.07,0.043c-0.023,0.007-0.04,0.012-0.049,0.013v-0.092c0.021-0.001,0.038-0.008,0.052-0.021
		c0.013-0.013,0.024-0.029,0.032-0.048c0.008-0.019,0.014-0.04,0.017-0.063c0.003-0.023,0.005-0.046,0.005-0.07h-0.106V177.109z"/>
	<path id="path3196" d="M249.952,176.553h0.63v0.768h-0.126l-0.046-0.186c-0.049,0.068-0.116,0.122-0.2,0.163
		c-0.084,0.041-0.176,0.061-0.274,0.061c-0.062,0-0.115-0.005-0.162-0.015c-0.046-0.01-0.088-0.023-0.123-0.039
		c-0.035-0.016-0.065-0.033-0.09-0.052c-0.025-0.019-0.046-0.037-0.065-0.056c-0.055-0.052-0.097-0.106-0.128-0.161
		c-0.031-0.055-0.053-0.11-0.068-0.163c-0.015-0.053-0.023-0.104-0.026-0.152c-0.003-0.048-0.004-0.091-0.004-0.13
		c0-0.088,0.014-0.176,0.04-0.264s0.068-0.168,0.124-0.239c0.056-0.071,0.126-0.129,0.212-0.174
		c0.085-0.045,0.187-0.067,0.304-0.067c0.067,0,0.134,0.01,0.202,0.029c0.068,0.019,0.13,0.048,0.187,0.087
		c0.057,0.039,0.105,0.088,0.144,0.148c0.039,0.06,0.064,0.13,0.075,0.21h-0.188c-0.016-0.063-0.04-0.114-0.072-0.153
		c-0.032-0.039-0.068-0.07-0.108-0.092s-0.082-0.037-0.125-0.045c-0.043-0.008-0.085-0.012-0.125-0.012
		c-0.064,0-0.125,0.013-0.182,0.038c-0.057,0.025-0.107,0.063-0.15,0.112c-0.043,0.049-0.076,0.11-0.101,0.183
		c-0.025,0.073-0.037,0.156-0.037,0.249c0,0.073,0.007,0.145,0.021,0.216c0.014,0.071,0.039,0.134,0.075,0.19
		c0.036,0.056,0.084,0.101,0.146,0.135c0.061,0.034,0.14,0.051,0.236,0.051c0.017,0,0.038-0.001,0.061-0.003
		c0.023-0.002,0.048-0.006,0.073-0.012c0.025-0.006,0.052-0.015,0.079-0.027c0.027-0.012,0.054-0.029,0.081-0.05
		c0.063-0.049,0.105-0.106,0.126-0.17c0.021-0.064,0.032-0.135,0.032-0.212h-0.448L249.952,176.553z"/>
	<path id="path3198" d="M251.613,176.731l-0.212-0.632h-0.004l-0.23,0.632H251.613z M251.107,176.903l-0.15,0.418h-0.2l0.54-1.436
		h0.22l0.52,1.436h-0.212l-0.142-0.418H251.107z"/>
	<path id="path3200" d="M239.599,178.827h0.452v-0.638h-0.004L239.599,178.827z M240.227,178.979v0.342h-0.176v-0.342h-0.614v-0.172
		l0.644-0.892h0.146v0.912h0.206v0.152H240.227z"/>
	<path id="path3202" d="M241.538,178.637c0,0.073-0.006,0.152-0.019,0.236c-0.013,0.084-0.036,0.162-0.071,0.234
		c-0.035,0.072-0.083,0.132-0.146,0.18c-0.063,0.048-0.145,0.072-0.246,0.072c-0.101,0-0.183-0.024-0.246-0.072
		c-0.063-0.048-0.112-0.108-0.147-0.18c-0.035-0.072-0.059-0.15-0.071-0.234c-0.012-0.084-0.018-0.163-0.018-0.236
		c0-0.073,0.006-0.152,0.018-0.236c0.012-0.084,0.036-0.162,0.071-0.234c0.035-0.072,0.084-0.132,0.147-0.18
		s0.145-0.072,0.246-0.072c0.101,0,0.183,0.024,0.246,0.072s0.111,0.108,0.146,0.18c0.035,0.072,0.058,0.15,0.071,0.234
		C241.532,178.485,241.538,178.564,241.538,178.637z M241.35,178.637c0-0.176-0.024-0.314-0.071-0.414
		c-0.047-0.1-0.122-0.15-0.223-0.15s-0.176,0.05-0.223,0.15c-0.047,0.1-0.071,0.238-0.071,0.414s0.024,0.314,0.071,0.414
		c0.047,0.1,0.122,0.15,0.223,0.15s0.176-0.05,0.223-0.15C241.326,178.951,241.35,178.813,241.35,178.637z"/>
	<path id="path3204" d="M241.825,178.827h0.452v-0.638h-0.004L241.825,178.827z M242.453,178.979v0.342h-0.176v-0.342h-0.614v-0.172
		l0.644-0.892h0.146v0.912h0.206v0.152H242.453z"/>
	<path id="path3206" d="M242.826,179.359h-0.134l0.492-1.512h0.132L242.826,179.359z"/>
	<path id="path3208" d="M243.563,178.889c0,0.037,0.006,0.075,0.017,0.112c0.011,0.037,0.029,0.071,0.053,0.1
		c0.024,0.029,0.055,0.053,0.092,0.072s0.082,0.028,0.134,0.028c0.041,0,0.079-0.008,0.113-0.024
		c0.034-0.016,0.063-0.038,0.087-0.066c0.024-0.028,0.043-0.062,0.056-0.101c0.013-0.039,0.02-0.083,0.02-0.131
		c0-0.03-0.005-0.063-0.014-0.098c-0.009-0.035-0.025-0.067-0.047-0.096s-0.051-0.054-0.087-0.073
		c-0.036-0.019-0.081-0.029-0.136-0.029c-0.048,0-0.09,0.008-0.126,0.024c-0.036,0.016-0.066,0.038-0.09,0.066
		s-0.042,0.061-0.054,0.098C243.569,178.808,243.563,178.848,243.563,178.889L243.563,178.889z M244.115,178.289
		c-0.011-0.063-0.035-0.114-0.072-0.155c-0.037-0.041-0.094-0.061-0.17-0.061c-0.069,0-0.126,0.02-0.169,0.06
		c-0.043,0.04-0.077,0.088-0.102,0.144c-0.025,0.056-0.041,0.113-0.05,0.172c-0.009,0.059-0.013,0.107-0.013,0.144l0.004,0.004
		c0.011-0.019,0.025-0.038,0.043-0.059c0.018-0.021,0.041-0.039,0.068-0.056c0.027-0.017,0.059-0.03,0.096-0.041
		c0.037-0.011,0.079-0.016,0.127-0.016c0.043,0,0.09,0.007,0.141,0.022c0.051,0.014,0.099,0.04,0.143,0.075
		c0.044,0.035,0.081,0.081,0.111,0.138c0.03,0.057,0.045,0.127,0.045,0.211c0,0.072-0.01,0.136-0.031,0.191
		c-0.021,0.055-0.055,0.109-0.103,0.161c-0.019,0.02-0.038,0.038-0.059,0.055c-0.021,0.017-0.045,0.031-0.072,0.043
		c-0.027,0.012-0.059,0.022-0.096,0.028c-0.037,0.007-0.08,0.01-0.129,0.01c-0.027,0-0.056-0.003-0.088-0.01
		c-0.032-0.007-0.064-0.018-0.096-0.034c-0.032-0.016-0.063-0.037-0.094-0.063c-0.031-0.026-0.059-0.058-0.084-0.097
		c-0.043-0.067-0.071-0.142-0.086-0.225c-0.015-0.083-0.022-0.171-0.022-0.263c0-0.052,0.003-0.106,0.009-0.163
		c0.006-0.057,0.017-0.113,0.032-0.169c0.015-0.056,0.036-0.109,0.061-0.16c0.025-0.051,0.057-0.095,0.096-0.134
		c0.039-0.039,0.084-0.07,0.137-0.092c0.053-0.023,0.114-0.034,0.185-0.034c0.04,0,0.083,0.006,0.129,0.018s0.089,0.033,0.129,0.062
		c0.04,0.029,0.074,0.068,0.103,0.115c0.029,0.047,0.045,0.107,0.049,0.179L244.115,178.289z"/>
	<path id="path3210" d="M244.843,178.521c0.015,0.001,0.03,0.002,0.046,0.003c0.016,0.001,0.031,0.001,0.046,0.001
		c0.033,0,0.066-0.004,0.099-0.011c0.033-0.007,0.061-0.02,0.086-0.038c0.025-0.018,0.045-0.042,0.06-0.071
		c0.015-0.029,0.023-0.066,0.023-0.11c0-0.021-0.004-0.044-0.011-0.07c-0.007-0.025-0.021-0.049-0.04-0.072
		c-0.019-0.023-0.046-0.042-0.08-0.057c-0.034-0.015-0.077-0.023-0.129-0.023c-0.063,0-0.112,0.011-0.147,0.033
		c-0.035,0.022-0.062,0.049-0.08,0.081s-0.03,0.065-0.036,0.1c-0.006,0.035-0.01,0.064-0.011,0.088h-0.172
		c0-0.052,0.006-0.105,0.019-0.159c0.013-0.054,0.036-0.103,0.069-0.148c0.033-0.045,0.08-0.081,0.139-0.11
		c0.059-0.029,0.135-0.043,0.227-0.043c0.068,0,0.129,0.009,0.183,0.028c0.054,0.019,0.099,0.044,0.136,0.077
		c0.037,0.033,0.065,0.072,0.085,0.117c0.02,0.045,0.03,0.095,0.03,0.148c0,0.045-0.006,0.085-0.017,0.118
		c-0.011,0.033-0.026,0.062-0.044,0.085c-0.018,0.023-0.038,0.042-0.059,0.057c-0.021,0.015-0.041,0.025-0.06,0.03v0.004
		c0.068,0.023,0.124,0.059,0.168,0.11c0.044,0.051,0.066,0.123,0.066,0.218c0,0.057-0.01,0.113-0.029,0.168
		c-0.019,0.055-0.049,0.103-0.09,0.145c-0.041,0.042-0.093,0.076-0.157,0.101c-0.064,0.026-0.141,0.038-0.23,0.038
		c-0.052,0-0.1-0.006-0.143-0.017s-0.082-0.026-0.117-0.045c-0.039-0.02-0.071-0.045-0.097-0.075
		c-0.026-0.03-0.047-0.063-0.062-0.098c-0.015-0.035-0.027-0.073-0.035-0.113c-0.008-0.04-0.013-0.08-0.016-0.12h0.182
		c0.001,0.033,0.005,0.068,0.012,0.104s0.021,0.069,0.042,0.1c0.021,0.031,0.051,0.056,0.09,0.076c0.039,0.02,0.091,0.03,0.156,0.03
		c0.045,0,0.087-0.007,0.124-0.02c0.037-0.013,0.069-0.032,0.096-0.056c0.027-0.024,0.048-0.053,0.063-0.086
		c0.015-0.033,0.023-0.07,0.023-0.11c0-0.059-0.011-0.105-0.034-0.14c-0.023-0.035-0.051-0.061-0.085-0.078
		c-0.034-0.017-0.07-0.028-0.108-0.033c-0.038-0.005-0.072-0.007-0.101-0.007c-0.013,0-0.027,0-0.04,0.001
		c-0.013,0-0.027,0.001-0.04,0.001L244.843,178.521z"/>
	<path id="path3212" d="M245.956,178.521c0.015,0.001,0.03,0.002,0.046,0.003c0.016,0.001,0.031,0.001,0.046,0.001
		c0.033,0,0.066-0.004,0.099-0.011c0.033-0.007,0.061-0.02,0.086-0.038c0.025-0.018,0.045-0.042,0.06-0.071
		c0.015-0.029,0.023-0.066,0.023-0.11c0-0.021-0.004-0.044-0.011-0.07c-0.007-0.025-0.021-0.049-0.04-0.072
		c-0.019-0.023-0.046-0.042-0.08-0.057c-0.034-0.015-0.077-0.023-0.129-0.023c-0.063,0-0.112,0.011-0.147,0.033
		c-0.035,0.022-0.062,0.049-0.08,0.081c-0.018,0.032-0.03,0.065-0.036,0.1c-0.006,0.035-0.01,0.064-0.011,0.088h-0.172
		c0-0.052,0.006-0.105,0.019-0.159c0.013-0.054,0.036-0.103,0.069-0.148c0.033-0.045,0.08-0.081,0.139-0.11
		c0.059-0.029,0.135-0.043,0.227-0.043c0.068,0,0.129,0.009,0.183,0.028c0.054,0.019,0.099,0.044,0.136,0.077
		c0.037,0.033,0.065,0.072,0.085,0.117c0.02,0.045,0.03,0.095,0.03,0.148c0,0.045-0.006,0.085-0.017,0.118
		c-0.011,0.033-0.026,0.062-0.044,0.085c-0.018,0.023-0.037,0.042-0.059,0.057c-0.021,0.015-0.041,0.025-0.06,0.03v0.004
		c0.068,0.023,0.124,0.059,0.168,0.11c0.044,0.051,0.066,0.123,0.066,0.218c0,0.057-0.01,0.113-0.029,0.168
		c-0.019,0.055-0.049,0.103-0.09,0.145c-0.04,0.042-0.093,0.076-0.157,0.101c-0.064,0.026-0.141,0.038-0.23,0.038
		c-0.052,0-0.1-0.006-0.143-0.017c-0.043-0.011-0.082-0.026-0.117-0.045c-0.039-0.02-0.071-0.045-0.097-0.075
		c-0.026-0.03-0.047-0.063-0.062-0.098c-0.015-0.035-0.027-0.073-0.035-0.113c-0.008-0.04-0.014-0.08-0.016-0.12h0.182
		c0.001,0.033,0.005,0.068,0.012,0.104s0.021,0.069,0.042,0.1c0.021,0.031,0.051,0.056,0.09,0.076c0.039,0.02,0.091,0.03,0.156,0.03
		c0.045,0,0.087-0.007,0.124-0.02c0.037-0.013,0.069-0.032,0.096-0.056c0.027-0.024,0.048-0.053,0.063-0.086
		c0.015-0.033,0.023-0.07,0.023-0.11c0-0.059-0.011-0.105-0.034-0.14c-0.023-0.035-0.051-0.061-0.085-0.078
		c-0.034-0.017-0.07-0.028-0.108-0.033c-0.038-0.005-0.072-0.007-0.101-0.007c-0.013,0-0.027,0-0.04,0.001
		c-0.013,0-0.027,0.001-0.04,0.001L245.956,178.521z"/>
	<path id="path3214" d="M247.199,178.857h-0.49v-0.18h0.49V178.857z"/>
	<path id="path3216" d="M247.579,178.503c0.031-0.023,0.068-0.043,0.111-0.061c0.044-0.018,0.097-0.027,0.161-0.027
		c0.057,0,0.114,0.01,0.169,0.03c0.055,0.02,0.105,0.049,0.148,0.087c0.043,0.038,0.078,0.085,0.105,0.141
		c0.027,0.056,0.04,0.12,0.04,0.192c0,0.039-0.006,0.086-0.018,0.143c-0.012,0.057-0.036,0.111-0.072,0.163
		c-0.036,0.052-0.088,0.096-0.155,0.133c-0.067,0.037-0.156,0.055-0.265,0.055c-0.047,0-0.095-0.005-0.144-0.016
		c-0.049-0.011-0.096-0.031-0.139-0.06c-0.043-0.029-0.081-0.069-0.112-0.119c-0.031-0.05-0.051-0.114-0.059-0.193h0.182
		c0.009,0.083,0.042,0.143,0.096,0.18c0.055,0.037,0.122,0.056,0.202,0.056c0.045,0,0.086-0.009,0.123-0.026
		c0.037-0.017,0.068-0.04,0.093-0.069c0.025-0.029,0.045-0.063,0.059-0.102c0.014-0.039,0.021-0.081,0.021-0.125
		c0-0.051-0.008-0.095-0.024-0.134c-0.016-0.039-0.038-0.071-0.066-0.098c-0.028-0.027-0.061-0.047-0.099-0.06
		c-0.038-0.013-0.079-0.02-0.123-0.02c-0.051,0-0.098,0.012-0.143,0.035c-0.044,0.023-0.084,0.056-0.117,0.099l-0.152-0.008
		l0.106-0.754h0.728v0.172h-0.596L247.579,178.503z"/>
	<path id="path3218" d="M248.847,178.521c0.015,0.001,0.03,0.002,0.046,0.003c0.016,0.001,0.031,0.001,0.046,0.001
		c0.034,0,0.066-0.004,0.099-0.011c0.033-0.007,0.061-0.02,0.086-0.038c0.025-0.018,0.044-0.042,0.06-0.071
		c0.015-0.029,0.023-0.066,0.023-0.11c0-0.021-0.004-0.044-0.011-0.07c-0.007-0.025-0.021-0.049-0.04-0.072
		c-0.019-0.023-0.046-0.042-0.08-0.057c-0.034-0.015-0.077-0.023-0.129-0.023c-0.063,0-0.112,0.011-0.147,0.033
		c-0.035,0.022-0.062,0.049-0.08,0.081c-0.018,0.032-0.03,0.065-0.036,0.1c-0.006,0.035-0.01,0.064-0.011,0.088H248.5
		c0-0.052,0.006-0.105,0.019-0.159c0.013-0.054,0.036-0.103,0.069-0.148c0.033-0.045,0.08-0.081,0.139-0.11
		c0.059-0.029,0.135-0.043,0.227-0.043c0.068,0,0.129,0.009,0.183,0.028c0.054,0.019,0.099,0.044,0.136,0.077
		c0.037,0.033,0.065,0.072,0.085,0.117c0.02,0.045,0.03,0.095,0.03,0.148c0,0.045-0.006,0.085-0.017,0.118
		c-0.011,0.033-0.026,0.062-0.044,0.085c-0.018,0.023-0.038,0.042-0.059,0.057c-0.021,0.015-0.041,0.025-0.06,0.03v0.004
		c0.068,0.023,0.124,0.059,0.168,0.11c0.044,0.051,0.066,0.123,0.066,0.218c0,0.057-0.01,0.113-0.029,0.168
		c-0.019,0.055-0.049,0.103-0.09,0.145c-0.041,0.042-0.093,0.076-0.157,0.101c-0.064,0.026-0.141,0.038-0.23,0.038
		c-0.052,0-0.1-0.006-0.143-0.017c-0.043-0.011-0.082-0.026-0.117-0.045c-0.039-0.02-0.071-0.045-0.097-0.075
		c-0.026-0.03-0.046-0.063-0.062-0.098c-0.015-0.035-0.027-0.073-0.035-0.113c-0.008-0.04-0.013-0.08-0.016-0.12h0.182
		c0.001,0.033,0.005,0.068,0.012,0.104s0.021,0.069,0.042,0.1c0.021,0.031,0.051,0.056,0.09,0.076c0.039,0.02,0.091,0.03,0.156,0.03
		c0.045,0,0.087-0.007,0.124-0.02c0.037-0.013,0.069-0.032,0.096-0.056c0.027-0.024,0.048-0.053,0.063-0.086
		c0.015-0.033,0.023-0.07,0.023-0.11c0-0.059-0.011-0.105-0.034-0.14c-0.023-0.035-0.051-0.061-0.085-0.078
		c-0.034-0.017-0.07-0.028-0.108-0.033c-0.038-0.005-0.072-0.007-0.101-0.007c-0.013,0-0.027,0-0.04,0.001
		c-0.013,0-0.027,0.001-0.04,0.001V178.521z"/>
	<path id="path3220" d="M250.23,179.321h-0.188v-0.998h-0.328v-0.14c0.057-0.004,0.107-0.009,0.148-0.016
		c0.041-0.007,0.077-0.019,0.106-0.037s0.054-0.044,0.073-0.078c0.019-0.034,0.036-0.08,0.051-0.137h0.138L250.23,179.321z"/>
	<path id="path3222" d="M251.073,178.521c0.015,0.001,0.03,0.002,0.046,0.003c0.016,0.001,0.031,0.001,0.046,0.001
		c0.033,0,0.066-0.004,0.099-0.011c0.033-0.007,0.061-0.02,0.086-0.038c0.025-0.018,0.045-0.042,0.06-0.071
		c0.015-0.029,0.023-0.066,0.023-0.11c0-0.021-0.004-0.044-0.011-0.07c-0.007-0.025-0.021-0.049-0.04-0.072
		c-0.019-0.023-0.046-0.042-0.08-0.057c-0.034-0.015-0.077-0.023-0.129-0.023c-0.063,0-0.112,0.011-0.147,0.033
		c-0.035,0.022-0.062,0.049-0.08,0.081c-0.018,0.032-0.03,0.065-0.036,0.1c-0.006,0.035-0.01,0.064-0.011,0.088h-0.172
		c0-0.052,0.006-0.105,0.019-0.159c0.013-0.054,0.036-0.103,0.069-0.148s0.08-0.081,0.139-0.11c0.059-0.029,0.135-0.043,0.227-0.043
		c0.068,0,0.129,0.009,0.183,0.028c0.054,0.019,0.099,0.044,0.136,0.077c0.037,0.033,0.065,0.072,0.085,0.117
		c0.02,0.045,0.03,0.095,0.03,0.148c0,0.045-0.006,0.085-0.017,0.118c-0.011,0.033-0.026,0.062-0.044,0.085
		c-0.018,0.023-0.038,0.042-0.059,0.057c-0.021,0.015-0.041,0.025-0.06,0.03v0.004c0.068,0.023,0.124,0.059,0.168,0.11
		c0.044,0.051,0.066,0.123,0.066,0.218c0,0.057-0.01,0.113-0.029,0.168c-0.019,0.055-0.049,0.103-0.09,0.145
		c-0.041,0.042-0.093,0.076-0.157,0.101c-0.064,0.026-0.141,0.038-0.23,0.038c-0.052,0-0.1-0.006-0.143-0.017
		c-0.043-0.011-0.082-0.026-0.117-0.045c-0.039-0.02-0.071-0.045-0.097-0.075c-0.026-0.03-0.047-0.063-0.062-0.098
		c-0.015-0.035-0.027-0.073-0.035-0.113c-0.008-0.04-0.013-0.08-0.016-0.12h0.182c0.001,0.033,0.005,0.068,0.012,0.104
		s0.021,0.069,0.042,0.1c0.021,0.031,0.051,0.056,0.09,0.076c0.039,0.02,0.091,0.03,0.156,0.03c0.045,0,0.087-0.007,0.124-0.02
		c0.037-0.013,0.069-0.032,0.096-0.056c0.027-0.024,0.048-0.053,0.063-0.086c0.015-0.033,0.023-0.07,0.023-0.11
		c0-0.059-0.011-0.105-0.034-0.14c-0.022-0.035-0.051-0.061-0.085-0.078c-0.034-0.017-0.07-0.028-0.108-0.033
		c-0.038-0.005-0.072-0.007-0.101-0.007c-0.013,0-0.027,0-0.04,0.001c-0.013,0-0.027,0.001-0.04,0.001V178.521z"/>
</g>
<g id="flowRoot3093" transform="matrix(2.9509136,2.9509136,-2.9509136,2.9509136,-27.660937,-848.2831)">
	<path id="path3117" d="M241.017,171.885v0.932c0,0.073-0.012,0.143-0.035,0.209c-0.023,0.066-0.059,0.124-0.106,0.173
		s-0.107,0.088-0.18,0.117c-0.073,0.028-0.158,0.043-0.257,0.043c-0.096,0-0.179-0.014-0.249-0.043
		c-0.07-0.029-0.127-0.067-0.172-0.115c-0.045-0.048-0.078-0.103-0.099-0.165c-0.021-0.062-0.032-0.126-0.032-0.193v-0.958h0.194
		l0,0.904c0,0.079,0.011,0.143,0.032,0.194c0.021,0.051,0.049,0.091,0.084,0.122s0.074,0.052,0.117,0.064
		c0.043,0.012,0.087,0.018,0.131,0.018s0.089-0.006,0.134-0.018c0.045-0.012,0.086-0.033,0.122-0.062
		c0.036-0.029,0.065-0.069,0.088-0.12c0.023-0.051,0.034-0.115,0.034-0.194l0-0.908L241.017,171.885z"/>
	<path id="path3119" d="M242.278,171.885l0.188,0l0,1.436l-0.218,0l-0.73-1.16h-0.004v1.16h-0.188v-1.436h0.23l0.718,1.16h0.004
		L242.278,171.885z"/>
	<path id="path3121" d="M244.334,172.317c-0.013-0.063-0.035-0.114-0.066-0.153c-0.031-0.039-0.065-0.07-0.103-0.091
		c-0.038-0.021-0.078-0.036-0.119-0.043c-0.041-0.007-0.079-0.011-0.114-0.011c-0.065,0-0.126,0.012-0.183,0.036
		s-0.106,0.06-0.149,0.107c-0.043,0.047-0.076,0.107-0.101,0.178c-0.025,0.071-0.037,0.154-0.037,0.249
		c0,0.084,0.008,0.163,0.024,0.236c0.016,0.073,0.043,0.137,0.08,0.19c0.037,0.053,0.086,0.095,0.147,0.126
		c0.061,0.031,0.136,0.046,0.225,0.046c0.032,0,0.068-0.005,0.108-0.015c0.04-0.01,0.08-0.029,0.119-0.057
		c0.039-0.028,0.076-0.068,0.109-0.119c0.033-0.051,0.058-0.119,0.074-0.203l0.188,0c-0.013,0.091-0.036,0.167-0.067,0.23
		c-0.031,0.063-0.067,0.115-0.108,0.157c-0.041,0.042-0.084,0.075-0.129,0.099c-0.045,0.024-0.089,0.042-0.131,0.054
		c-0.042,0.012-0.08,0.019-0.115,0.022c-0.035,0.003-0.061,0.004-0.078,0.004c-0.081,0-0.161-0.014-0.238-0.042
		c-0.077-0.028-0.146-0.072-0.207-0.133c-0.061-0.061-0.109-0.139-0.146-0.236s-0.055-0.214-0.055-0.353
		c0-0.111,0.015-0.212,0.046-0.303c0.031-0.091,0.075-0.17,0.132-0.236c0.057-0.066,0.128-0.117,0.211-0.154
		c0.083-0.036,0.177-0.055,0.281-0.055c0.092,0,0.173,0.013,0.244,0.04c0.071,0.027,0.13,0.062,0.179,0.105
		c0.049,0.043,0.087,0.093,0.115,0.15c0.028,0.057,0.045,0.115,0.052,0.175L244.334,172.317z"/>
	<path id="path3123" d="M244.965,173.149h0.728v0.172h-0.922l0-1.436h0.194L244.965,173.149z"/>
	<path id="path3125" d="M246.616,172.731l-0.212-0.632H246.4l-0.23,0.632H246.616z M246.111,172.903l-0.15,0.418l-0.2,0l0.54-1.436
		h0.22l0.52,1.436l-0.212,0l-0.142-0.418L246.111,172.903z"/>
	<path id="path3127" d="M248.082,172.305c-0.003-0.056-0.015-0.103-0.037-0.14c-0.022-0.037-0.05-0.067-0.084-0.09
		s-0.072-0.039-0.113-0.048c-0.041-0.009-0.082-0.014-0.122-0.014c-0.031,0-0.065,0.003-0.103,0.009
		c-0.038,0.006-0.074,0.018-0.107,0.036c-0.033,0.018-0.061,0.043-0.084,0.076c-0.023,0.033-0.034,0.076-0.034,0.131
		c0,0.031,0.005,0.056,0.015,0.077c0.01,0.021,0.023,0.038,0.039,0.052s0.034,0.025,0.054,0.033c0.02,0.008,0.041,0.015,0.062,0.02
		l0.41,0.094c0.047,0.011,0.09,0.026,0.13,0.046c0.04,0.02,0.074,0.046,0.103,0.077c0.029,0.031,0.051,0.068,0.068,0.111
		c0.017,0.043,0.025,0.093,0.025,0.15c0,0.085-0.018,0.156-0.053,0.212c-0.035,0.056-0.081,0.1-0.136,0.133
		c-0.055,0.033-0.116,0.056-0.182,0.069c-0.066,0.013-0.13,0.02-0.191,0.02c-0.067,0-0.124-0.004-0.171-0.013
		c-0.047-0.009-0.088-0.02-0.122-0.034c-0.034-0.014-0.062-0.029-0.084-0.045c-0.022-0.016-0.041-0.031-0.057-0.046
		c-0.061-0.056-0.101-0.114-0.119-0.173c-0.018-0.059-0.027-0.123-0.027-0.191h0.182c0,0.065,0.012,0.119,0.036,0.162
		c0.024,0.043,0.055,0.077,0.093,0.103c0.038,0.026,0.08,0.044,0.127,0.055c0.047,0.011,0.093,0.016,0.14,0.016
		c0.035,0,0.074-0.003,0.118-0.009c0.044-0.006,0.085-0.018,0.123-0.035c0.038-0.017,0.07-0.042,0.096-0.073
		c0.026-0.031,0.039-0.073,0.039-0.125c0-0.037-0.005-0.069-0.015-0.095c-0.01-0.026-0.027-0.048-0.05-0.067
		c-0.023-0.019-0.055-0.035-0.094-0.049c-0.039-0.014-0.088-0.028-0.147-0.043l-0.294-0.068c-0.024-0.005-0.053-0.014-0.088-0.027
		c-0.035-0.013-0.068-0.032-0.1-0.057c-0.032-0.025-0.06-0.058-0.083-0.099c-0.023-0.04-0.035-0.092-0.035-0.155
		c0-0.056,0.009-0.111,0.028-0.164c0.019-0.053,0.048-0.101,0.088-0.142c0.04-0.041,0.091-0.075,0.154-0.1
		c0.063-0.025,0.137-0.038,0.224-0.038c0.125,0,0.225,0.016,0.298,0.049c0.073,0.033,0.129,0.073,0.167,0.12
		c0.038,0.047,0.063,0.097,0.074,0.15c0.011,0.053,0.018,0.099,0.021,0.139H248.082z"/>
	<path id="path3129" d="M249.414,172.305c-0.003-0.056-0.015-0.103-0.037-0.14c-0.022-0.037-0.05-0.067-0.084-0.09
		c-0.034-0.023-0.072-0.039-0.113-0.048c-0.041-0.009-0.082-0.014-0.122-0.014c-0.031,0-0.065,0.003-0.103,0.009
		c-0.038,0.006-0.074,0.018-0.107,0.036c-0.033,0.018-0.061,0.043-0.084,0.076c-0.023,0.033-0.034,0.076-0.034,0.131
		c0,0.031,0.005,0.056,0.015,0.077c0.01,0.021,0.023,0.038,0.039,0.052c0.016,0.014,0.034,0.025,0.054,0.033
		c0.02,0.008,0.041,0.015,0.062,0.02l0.41,0.094c0.047,0.011,0.09,0.026,0.13,0.046c0.04,0.02,0.074,0.046,0.103,0.077
		c0.029,0.031,0.051,0.068,0.068,0.111c0.017,0.043,0.025,0.093,0.025,0.15c0,0.085-0.018,0.156-0.053,0.212
		c-0.035,0.056-0.081,0.101-0.136,0.133c-0.055,0.033-0.116,0.056-0.182,0.069c-0.066,0.013-0.13,0.02-0.191,0.02
		c-0.067,0-0.124-0.004-0.171-0.013c-0.047-0.009-0.088-0.02-0.122-0.034c-0.034-0.014-0.062-0.029-0.084-0.045
		c-0.022-0.016-0.041-0.031-0.057-0.046c-0.061-0.056-0.101-0.114-0.119-0.173c-0.018-0.059-0.027-0.123-0.027-0.191h0.182
		c0,0.065,0.012,0.119,0.036,0.162c0.024,0.043,0.055,0.077,0.093,0.103c0.038,0.026,0.08,0.044,0.127,0.055
		c0.047,0.011,0.093,0.016,0.14,0.016c0.035,0,0.074-0.003,0.118-0.009c0.044-0.006,0.085-0.018,0.123-0.035
		c0.038-0.017,0.07-0.042,0.096-0.073c0.026-0.031,0.039-0.073,0.039-0.125c0-0.037-0.005-0.069-0.015-0.095
		s-0.027-0.048-0.05-0.067s-0.055-0.035-0.094-0.049c-0.039-0.014-0.088-0.028-0.147-0.043l-0.294-0.068
		c-0.024-0.005-0.053-0.014-0.088-0.027c-0.035-0.013-0.068-0.032-0.1-0.057c-0.032-0.025-0.06-0.059-0.083-0.099
		c-0.023-0.041-0.035-0.092-0.035-0.155c0-0.056,0.009-0.111,0.028-0.164c0.019-0.053,0.048-0.101,0.088-0.142
		c0.04-0.041,0.091-0.075,0.154-0.1c0.063-0.025,0.137-0.038,0.224-0.038c0.125,0,0.225,0.016,0.298,0.049
		c0.073,0.033,0.129,0.073,0.167,0.12c0.038,0.047,0.063,0.097,0.074,0.15c0.011,0.053,0.018,0.099,0.021,0.139L249.414,172.305z"/>
	<path id="path3131" d="M250.565,172.889c0,0.037,0.006,0.075,0.017,0.112c0.011,0.037,0.029,0.071,0.053,0.1
		c0.024,0.029,0.055,0.053,0.092,0.072c0.037,0.019,0.082,0.028,0.134,0.028c0.041,0,0.079-0.008,0.113-0.024
		c0.034-0.016,0.063-0.038,0.087-0.066c0.024-0.028,0.043-0.062,0.056-0.101c0.013-0.039,0.02-0.083,0.02-0.131
		c0-0.031-0.005-0.063-0.014-0.098c-0.009-0.035-0.025-0.067-0.047-0.096c-0.022-0.029-0.051-0.054-0.087-0.073
		c-0.036-0.019-0.081-0.029-0.136-0.029c-0.048,0-0.09,0.008-0.126,0.024c-0.036,0.016-0.066,0.038-0.09,0.066
		c-0.024,0.028-0.042,0.061-0.054,0.098C250.571,172.808,250.565,172.848,250.565,172.889L250.565,172.889z M251.117,172.289
		c-0.011-0.063-0.035-0.115-0.072-0.155c-0.037-0.041-0.094-0.061-0.17-0.061c-0.069,0-0.126,0.02-0.169,0.06
		c-0.043,0.04-0.077,0.088-0.102,0.144c-0.025,0.056-0.041,0.113-0.05,0.172c-0.009,0.059-0.013,0.107-0.013,0.144l0.004,0.004
		c0.011-0.019,0.025-0.038,0.043-0.059c0.018-0.021,0.04-0.039,0.068-0.056c0.027-0.017,0.059-0.03,0.096-0.041
		c0.037-0.011,0.079-0.016,0.127-0.016c0.043,0,0.09,0.007,0.141,0.022c0.051,0.015,0.099,0.04,0.143,0.075
		c0.044,0.035,0.081,0.081,0.111,0.138s0.045,0.127,0.045,0.211c0,0.072-0.01,0.136-0.031,0.191
		c-0.021,0.055-0.055,0.109-0.103,0.161c-0.019,0.02-0.038,0.038-0.059,0.055c-0.021,0.017-0.045,0.031-0.072,0.043
		c-0.027,0.012-0.059,0.021-0.096,0.028c-0.037,0.007-0.08,0.01-0.129,0.01c-0.027,0-0.056-0.003-0.088-0.01
		s-0.064-0.018-0.096-0.034c-0.032-0.016-0.063-0.037-0.094-0.063c-0.031-0.026-0.059-0.058-0.084-0.097
		c-0.043-0.067-0.071-0.142-0.086-0.225c-0.015-0.083-0.022-0.171-0.022-0.263c0-0.052,0.003-0.106,0.009-0.163
		c0.006-0.057,0.017-0.113,0.032-0.169c0.015-0.056,0.036-0.109,0.061-0.16c0.025-0.051,0.057-0.095,0.096-0.134
		c0.039-0.039,0.084-0.069,0.137-0.092c0.053-0.023,0.114-0.034,0.185-0.034c0.04,0,0.083,0.006,0.129,0.018
		c0.046,0.012,0.089,0.033,0.129,0.062c0.04,0.029,0.074,0.068,0.103,0.115c0.029,0.047,0.045,0.107,0.049,0.179L251.117,172.289z"
		/>
</g>
</svg>
