<?xml version="1.0" encoding="UTF-8" standalone="no"?>
<!-- Created with Inkscape (http://www.inkscape.org/) -->
<svg
   xmlns:svg="http://www.w3.org/2000/svg"
   xmlns="http://www.w3.org/2000/svg"
   version="1.0"
   width="435.71701"
   height="435.715"
   viewBox="0 0 435.717 435.715"
   id="Layer_3"
   xml:space="preserve"><defs
   id="defs34" />
<rect
   width="306.09799"
   height="306.09799"
   x="64.808998"
   y="64.808998"
   transform="matrix(0.7071,-0.7071,0.7071,0.7071,-90.2396,217.8569)"
   style="fill:#ffffff;stroke:#000000;stroke-width:2"
   id="rect3" />
<g
   id="g5">
	<polygon
   points="1.414,217.857 1.415,217.857 1.415,217.857 1.414,217.857 "
   style="fill:#ff683f"
   id="polygon7" />
	<polygon
   points="401.002,217.857 434.302,217.857 401.002,184.558 401.002,217.857 "
   id="polygon9" />
	<polygon
   points="334.404,117.96 334.404,217.857 367.704,217.857 367.704,151.26 334.404,117.96 "
   id="polygon11" />
	<polygon
   points="267.806,51.362 267.806,217.857 301.105,217.857 301.105,84.662 267.806,51.362 "
   id="polygon13" />
	<polygon
   points="217.858,1.414 201.209,18.063 201.209,217.857 234.508,217.857 234.508,18.064 217.858,1.414 "
   id="polygon15" />
	<polygon
   points="134.611,84.661 134.611,217.857 167.91,217.857 167.91,51.362 134.611,84.661 "
   id="polygon17" />
	<polygon
   points="68.013,151.259 68.013,217.857 101.312,217.857 101.312,117.959 68.013,151.259 "
   id="polygon19" />
	<polygon
   points="34.713,184.558 1.415,217.857 1.415,217.857 34.713,217.857 34.713,184.558 "
   id="polygon21" />
</g>
<rect
   width="268.69901"
   height="268.70001"
   x="83.509003"
   y="83.508003"
   transform="matrix(0.7071,-0.7071,0.7071,0.7071,-90.2399,217.8568)"
   style="fill:none;stroke:#000000;stroke-width:3"
   id="rect23" />
<line
   fill="none"
   stroke="#000000"
   stroke-width="2"
   x1="1.414"
   y1="217.85699"
   x2="434.30301"
   y2="217.85699"
   id="line25"
   style="fill:none;stroke:#000000;stroke-width:2" />
<g
   id="g27">
	<path
   d="M 206.372,370.154 L 213.142,369.407 C 213.307,370.784 213.739,371.804 214.436,372.468 C 215.132,373.133 216.054,373.464 217.199,373.464 C 218.642,373.464 219.87,372.801 220.883,371.474 C 221.895,370.146 222.541,367.391 222.824,363.21 C 221.064,365.25 218.866,366.271 216.227,366.271 C 213.356,366.271 210.88,365.164 208.798,362.949 C 206.715,360.734 205.674,357.85 205.674,354.301 C 205.674,350.6 206.773,347.617 208.971,345.352 C 211.17,343.087 213.971,341.956 217.372,341.956 C 221.073,341.956 224.109,343.387 226.482,346.25 C 228.854,349.111 230.042,353.82 230.042,360.374 C 230.042,367.044 228.806,371.856 226.333,374.81 C 223.86,377.764 220.642,379.241 216.675,379.241 C 213.821,379.241 211.514,378.482 209.756,376.964 C 207.998,375.446 206.869,373.173 206.372,370.154 z M 222.201,354.872 C 222.201,352.615 221.682,350.864 220.646,349.619 C 219.609,348.376 218.409,347.753 217.048,347.753 C 215.754,347.753 214.679,348.263 213.825,349.284 C 212.971,350.305 212.544,351.975 212.544,354.3 C 212.544,356.656 213.008,358.385 213.938,359.488 C 214.867,360.592 216.029,361.143 217.422,361.143 C 218.766,361.143 219.899,360.612 220.819,359.55 C 221.741,358.489 222.201,356.929 222.201,354.872 z "
   id="path29" />
</g>
<line
   fill="none"
   stroke="#000000"
   stroke-width="0.8"
   x1="208.23599"
   y1="385.27301"
   x2="227.479"
   y2="385.27301"
   id="line31"
   style="fill:none;stroke:#000000;stroke-width:0.80000001" />
</svg>