<?xml version="1.0" encoding="UTF-8" standalone="no"?>
<svg
   xmlns:svg="http://www.w3.org/2000/svg"
   xmlns="http://www.w3.org/2000/svg"
   version="1.0"
   width="750"
   height="750"
   viewBox="0 0 750 750"
   id="svg2">
  <defs
     id="defs4">
    <linearGradient
       id="linearGradient7078">
      <stop
         id="stop7080"
         style="stop-color:#ff0000;stop-opacity:1"
         offset="0" />
      <stop
         id="stop7082"
         style="stop-color:#ffff00;stop-opacity:1"
         offset="1" />
    </linearGradient>
    <linearGradient
       id="linearGradient6101">
      <stop
         id="stop6103"
         style="stop-color:#ff0000;stop-opacity:1"
         offset="0" />
      <stop
         id="stop6105"
         style="stop-color:#ff0000;stop-opacity:0"
         offset="1" />
    </linearGradient>
    <linearGradient
       id="linearGradient5090">
      <stop
         id="stop5092"
         style="stop-color:#ff0000;stop-opacity:1"
         offset="0" />
      <stop
         id="stop5094"
         style="stop-color:#ffff00;stop-opacity:1"
         offset="1" />
    </linearGradient>
  </defs>
  <g
     id="layer1">
    <rect
       width="525.59741"
       height="525.59741"
       x="265.13391"
       y="-261.87106"
       transform="matrix(0.7071068,0.7071068,-0.7071068,0.7071068,0,0)"
       id="rect3134"
       style="fill:#ff0000;fill-opacity:1;stroke:none" />
    <path
       d="M 0.9954855,373.94888 372.65173,745.60587 744.30798,373.94888 l -743.3124945,0 z"
       id="rect8089"
       style="fill:#ffff00;fill-opacity:1;stroke:none;stroke-width:2;marker-start:none" />
    <rect
       width="525.59741"
       height="525.59741"
       x="265.13864"
       y="-261.87299"
       transform="matrix(0.7071068,0.7071068,-0.7071068,0.7071068,0,0)"
       id="rect21684"
       style="fill:none;stroke:#000000;stroke-width:2;stroke-linecap:butt;stroke-linejoin:miter;stroke-miterlimit:4;stroke-opacity:1;stroke-dasharray:none" />
    <rect
       width="453.66608"
       height="453.66608"
       x="301.02673"
       y="-225.82556"
       transform="matrix(0.7071068,0.7071068,-0.7071068,0.7071068,0,0)"
       id="rect27502"
       style="fill:none;stroke:#000000;stroke-width:8;stroke-linecap:butt;stroke-linejoin:miter;stroke-miterlimit:16;stroke-opacity:1;stroke-dasharray:none" />
    <path
       d="m 326.47546,624.98133 9.84375,-1.01953 c 0.28124,2.22658 1.11327,3.99025 2.49609,5.29102 1.3828,1.30079 2.97655,1.95118 4.78125,1.95117 2.06248,10e-6 3.80857,-0.83788 5.23828,-2.51367 1.42966,-1.67577 2.14451,-4.20116 2.14454,-7.57617 -3e-5,-3.16405 -0.70902,-5.53709 -2.12696,-7.11914 -1.41799,-1.58201 -3.26369,-2.37302 -5.53711,-2.37305 -2.83595,3e-5 -5.37892,1.25393 -7.6289,3.76172 l -8.01563,-1.16016 5.0625,-26.82422 26.1211,0 0,9.2461 -18.63282,0 -1.54687,8.7539 c 2.2031,-1.10153 4.4531,-1.65231 6.75,-1.65234 4.38278,3e-5 8.09762,1.59378 11.14453,4.78125 3.04684,3.18753 4.57027,7.32424 4.57031,12.41016 -4e-5,4.2422 -1.2305,8.02735 -3.6914,11.35546 -3.3516,4.54688 -8.00394,6.82032 -13.95704,6.82032 -4.75782,0 -8.63673,-1.27735 -11.63671,-3.83203 -3.00001,-2.55469 -4.79298,-5.98828 -5.37891,-10.30079 l 0,0 z m 42.04687,13.25391 0,-9.87891 9.87891,0 0,9.87891 -9.87891,0 z m 51.22266,-9.17578 0,9.17578 -34.62891,0 c 0.375,-3.46875 1.5,-6.75585 3.375,-9.86133 1.875,-3.10545 5.57812,-7.22459 11.10938,-12.35742 4.4531,-4.14841 7.18357,-6.96091 8.19141,-8.4375 1.35934,-2.03903 2.03903,-4.05465 2.03906,-6.04687 -3e-5,-2.20309 -0.59183,-3.89645 -1.77539,-5.08008 -1.18362,-1.18355 -2.81838,-1.77535 -4.9043,-1.77539 -2.06252,4e-5 -3.70314,0.62113 -4.92187,1.86328 -1.21877,1.24223 -1.92189,3.30472 -2.10938,6.1875 l -9.84375,-0.98438 c 0.58593,-5.43746 2.42578,-9.3398 5.51953,-11.70703 3.09374,-2.36714 6.96092,-3.55073 11.60156,-3.55078 5.08592,5e-5 9.08201,1.37114 11.98829,4.11328 2.90621,2.74223 4.35933,6.15239 4.35937,10.23047 -4e-5,2.32035 -0.41605,4.52933 -1.24805,6.62695 -0.83206,2.09769 -2.15042,4.29495 -3.95507,6.5918 -1.19535,1.52346 -3.3516,3.71486 -6.46875,6.57422 -3.11721,2.85939 -5.09182,4.75782 -5.92383,5.69531 -0.83205,0.93751 -1.50588,1.85157 -2.02149,2.74219 l 19.61719,0 z"
       id="flowRoot29442"
       style="font-size:72px;text-align:center;text-anchor:middle;font-family:Arial" />
    <rect
       width="105"
       height="13.7"
       x="325.99576"
       y="280.06134"
       id="rect29484"
       style="fill:#000000;fill-opacity:1;stroke:none" />
    <g
       transform="matrix(6006.3826,0,0,5307.2039,-1486.3532,-1190.579)"
       id="g23363"
       style="stroke:none">
      <path
         d="m 0.30822699,0.27545723 c -0.004895,0.001348 -0.007682,-0.002905 -0.00809,-0.007274 -2.9514e-4,-0.002535 8.5069e-4,-0.003576 -3.472e-5,-0.006024 7.4652e-4,3.6458e-4 0.001389,0.001059 0.001719,0.001649 5.0347e-4,-0.002639 8.1597e-4,-0.005451 5.7292e-4,-0.007951 0.001111,2.7777e-4 0.001875,0.002222 0.002344,0.003142 0.00125,-0.00375 0.00158,-0.007135 6.9444e-4,-0.009149 0.001128,1.2153e-4 0.001788,0.001441 0.002552,0.002934 7.4652e-4,-9.8958e-4 6.25e-4,-0.003038 6.25e-4,-0.005156 1.2152e-4,-0.001007 2.9513e-4,-0.002135 9.2013e-4,-0.002674 6.0763e-4,0.00474 0.002934,0.00434 0.004236,0.009618 4.6875e-4,-0.001042 5.5556e-4,-0.00217 4.3403e-4,-0.003594 0.001528,8.8541e-4 0.002865,0.004201 0.003576,0.008941 6.7708e-4,-3.4722e-4 9.8958e-4,-0.001684 0.00125,-0.003194 0.001476,0.002101 0.001997,0.004722 0.00125,0.007847 -3.8194e-4,8.8541e-4 -6.25e-4,0.001788 -5.0347e-4,0.002795 6.2499e-4,-3.8194e-4 8.3333e-4,-0.001302 0.001198,-0.002066 2.6041e-4,0.001128 5.2083e-4,0.002465 2.9514e-4,0.003437 -7.4653e-4,0.005625 -0.006927,0.00816 -0.0106249,0.006458 0.002622,-0.001667 0.00533,-0.002309 0.006007,-0.007621 -3.8194e-4,3.6458e-4 -0.001059,6.9444e-4 -0.001441,8.1597e-4 5.7291e-4,-0.001806 7.4652e-4,-0.00342 6.944e-5,-0.004323 -7.118e-4,0.001875 -0.001701,0.002986 -0.002465,0.003194 9.0277e-4,-0.001493 0.001076,-0.003872 -0.001545,-0.007743 5.0347e-4,0.004618 0,0.006753 -0.001198,0.008351 -7.4652e-4,-8.8541e-4 -0.001545,-0.00217 -0.001927,-0.003924 -7.4652e-4,0.001875 -8.1597e-4,0.004132 1.0417e-4,0.006875 -9.375e-4,-2.6042e-4 -0.001684,-0.001163 -0.002674,-0.006806 -0.00125,0.002575 4.4775e-4,0.005153 -0.002396,0.003837 7.4653e-4,0.004497 0.002656,0.006858 0.005052,0.007604 z"
         id="path23326"
         style="font-style:normal;font-variant:normal;font-weight:normal;font-stretch:normal;letter-spacing:normal;word-spacing:normal;text-anchor:start;fill:#000000;fill-opacity:1;fill-rule:evenodd;stroke:none" />
    </g>
  </g>
</svg>
