<?xml version="1.0" encoding="utf-8"?>
<!-- Generator: Adobe Illustrator 16.0.3, SVG Export Plug-In . SVG Version: 6.00 Build 0)  -->
<!DOCTYPE svg PUBLIC "-//W3C//DTD SVG 1.1//EN" "http://www.w3.org/Graphics/SVG/1.1/DTD/svg11.dtd">
<svg version="1.1" id="Layer_1" xmlns="http://www.w3.org/2000/svg" xmlns:xlink="http://www.w3.org/1999/xlink" x="0px" y="0px"
	 width="91.211px" height="90.945px" viewBox="0 0 91.211 90.945" enable-background="new 0 0 91.211 90.945" xml:space="preserve">
<g>
	<line fill="none" x1="90.524" y1="45.472" x2="45.522" y2="90.341"/>
	<line fill="none" stroke="#000000" stroke-width="0.3381" x1="90.524" y1="45.472" x2="45.522" y2="90.341"/>
	<polygon fill="#FFFFFF" points="90.524,45.472 45.522,0.604 0.524,45.472 45.522,90.341 	"/>
	<path fill="none" stroke="#000000" stroke-width="0.856" d="M84.221,45.684L45.342,6.92L6.461,45.684l38.88,38.765L84.221,45.684z
		 M90.524,45.472L45.522,0.604L0.524,45.472l44.998,44.868L90.524,45.472z"/>
	<path d="M50.883,18.567c0.482,0.764,1.016,1.589,0.805,2.603c-0.338,1.205-1.061,2.286-1.061,3.64
		c-0.043,1.08-0.471,2.049-0.936,2.896c1.611-1.057,3.33-1.947,4.941-2.896c0.426-0.128,0.893-0.189,1.273,0.061
		c0.785,0.807-0.889,1.439-0.105,2.393c-0.488,1.144-1.822,0.085-2.799,0.697c-1.357,0.487-2.717,1.248-4.072,1.884
		c-0.082,0.082-0.021,0.231-0.045,0.358c1.209,0.591,2.463,1.099,3.82,1.312c0.762,0.783,2.059,0.273,2.5,1.375
		c0.215,0.825-0.314,1.503-0.865,2.029c-0.109,0.295-0.361,0.53-0.658,0.617c-0.723-0.024-1.17-0.636-1.785-0.869
		c-0.699-0.973-1.4-2.034-2.605-2.286c-0.852-0.127-1.762-1.523-2.588-0.359c-0.701,0.486-1.486,0.636-2.354,0.402
		c-0.598-0.105-1.086-0.886-1.719-0.444c-1.211,0.994-3.019,0.994-3.525,2.687c-0.575,0.358-1.25,0.507-1.82,0.869
		c-0.766,0.146-1.129-0.636-1.783-0.721c-0.295-0.295-0.28-0.74-0.407-1.121c0.274-0.616,0.638-1.016,1.104-1.458
		c2.079,0.04,3.82-0.721,5.412-1.84c0.318-1.46-1.382-1.06-2.102-1.526c-1.425-0.378-2.8-0.631-4.223-0.949
		c-0.32-0.254-0.193-0.678-0.403-0.973c-0.274-0.295-0.528-0.786-0.361-1.27c0.063-0.254,0.341-0.341,0.572-0.402
		c2.018-0.104,3.462,1.479,5.284,1.988c-1.04-0.846,0.023-2.688-0.954-3.617c-0.635-0.845-1.101-1.882-0.765-2.982
		c0.471-2.919,3.564-3.935,5.9-4.738C46.911,16.074,49.163,16.854,50.883,18.567"/>
	<path fill="#FFFFFF" d="M50.965,20.091c0.045,0.615,0,1.313-0.336,1.843c-0.193-0.657,0.037-1.566-0.621-1.949
		c-0.146,0.278,0.023,0.657,0.047,0.974c-0.234,1.568-0.234,3.425-0.297,5.077c-0.299,1.586-2.355,0.952-2.652,2.538
		c-0.783,0.742-1.974,0.613-2.907,0.403c-0.658-0.38-0.721-1.397-1.528-1.713c-0.739-0.358-1.82-0.441-2.079-1.373
		c0.065-1.802,0.742-3.597,0.193-5.396c-0.255,0-0.193,0.297-0.343,0.423l-0.315,2.182c-0.485-0.553-0.766-1.162-0.699-1.925
		c0.509-2.623,3.268-4.274,5.685-4.675C47.446,16.771,50.032,17.851,50.965,20.091"/>
	<path d="M44.092,24.11c0,0.826-0.933,1.142-1.526,1.46c-0.424,0.147-0.807-0.361-1.02-0.697c-0.106-0.36-0.487-0.763-0.189-1.163
		c0.786-0.214,1.847-0.105,2.584,0.25L44.092,24.11z"/>
	<path d="M49.034,24.3c0.127,0.512-0.357,0.911-0.762,1.018c-0.426,0.146-0.896,0.21-1.273-0.085
		c-0.316-0.337-0.703-0.636-0.764-1.081c0.02-0.212,0.17-0.399,0.357-0.504C47.401,23.563,48.567,23.476,49.034,24.3"/>
	<path fill="#FFFFFF" d="M54.85,25.231c0,0.72,0.357,1.354,0.293,2.029c-0.762,0.147-1.717-0.169-2.438,0.296
		c-1.145,0.466-2.248,1.077-3.414,1.525c-0.023-0.232,0.043-0.553,0.213-0.765C51.176,27.176,53.047,26.118,54.85,25.231"/>
	<path fill="#FFFFFF" d="M55.547,25.379v0.147c-0.041-0.021-0.061,0.023-0.082,0.042c-0.129-0.042-0.152-0.212-0.064-0.295
		C55.487,25.252,55.569,25.294,55.547,25.379"/>
	<path fill="#FFFFFF" d="M35.289,25.822c0.105,0.17,0.043,0.402-0.042,0.572h-0.149C35.011,26.205,34.995,25.847,35.289,25.822"/>
	<path d="M46.235,26.65c-0.021,0.466,0.32,1.119-0.107,1.415c-0.339,0.127-0.591-0.212-0.697-0.464
		c0.018-0.064-0.063-0.085-0.108-0.149c-0.255,0.255-0.509,0.613-0.87,0.467c-0.256-0.636,0.214-1.208,0.469-1.735
		c0.125-0.167,0.293-0.273,0.509-0.293C45.895,25.866,46.151,26.266,46.235,26.65"/>
	<path fill="#FFFFFF" d="M41.04,28.318l0.104,0.398c-1.719-0.355-3.669-0.819-5.496-1.309c-0.107-0.526,0.358-0.952,0.401-1.48
		C37.897,26.288,39.36,27.599,41.04,28.318"/>
	<path fill="#FFFFFF" d="M42.987,28.424c-0.061,0.127-0.061,0.173-0.061,0.36l-0.702-0.972
		C42.566,27.875,42.883,28.043,42.987,28.424"/>
	<path fill="#FFFFFF" d="M47.975,28.572c-0.086-0.254,0.107-0.466,0.299-0.549h0.102L47.975,28.572z"/>
	<path fill="#FFFFFF" d="M42.82,30.14c0.976,0.865,2.544,0.886,3.669,0.761c0.676-0.236,1.186-0.7,1.633-1.272
		c-0.063,1.209-1.482,1.779-2.438,2.202c-1.168,0.169-2.102-0.505-3.016-1.079c-0.445-0.634-0.509-1.438-0.613-2.221
		C42.478,28.913,42.712,29.545,42.82,30.14"/>
	<path fill="#FFFFFF" d="M53.868,32.781c-0.25,0.657-0.127,1.46-0.291,2.136c-1.85-0.147-1.996-2.557-3.883-2.896l-1.57-0.806
		l0.467-0.571C50.223,31.662,52.258,31.704,53.868,32.781"/>
	<path fill="#FFFFFF" d="M42.224,31.473c-1.167,0.97-3.203,0.991-3.52,2.79c-0.661,0.146-1.19,0.739-1.892,0.656
		c0.191-0.803-0.273-1.373-0.612-1.987c0.783-0.295,1.695-0.213,2.504-0.445c1.098-0.274,2.081-0.846,3.054-1.415
		C41.93,31.132,42.056,31.323,42.224,31.473"/>
	<path fill="#FFFFFF" d="M54.702,33.249c-0.066,0.21-0.09,0.445-0.26,0.612c-0.188-0.127-0.188-0.464-0.104-0.674
		C54.403,33.014,54.676,33.058,54.702,33.249"/>
	<path fill="#FFFFFF" d="M36.115,34.2l-0.063,0.208c-0.169,0-0.295-0.188-0.356-0.292C35.567,33.609,36.201,33.967,36.115,34.2"/>
	<path d="M42.981,73.794c0-2.361,1.728-2.564,2.372-2.564c1.394,0,2.495,0.815,2.495,2.29c0,1.249-0.808,1.881-1.511,2.364
		c-0.964,0.673-1.462,0.999-1.628,1.337h3.149v1.269h-4.959c0.05-0.85,0.114-1.738,1.69-2.886c1.303-0.949,1.826-1.315,1.826-2.136
		c0-0.479-0.305-1.028-1.001-1.028c-1.001,0-1.03,0.821-1.042,1.354H42.981z"/>
</g>
<g>
	<path d="M27.513,43.455c-0.547,0.457-1.33,0.686-2.346,0.686h-1.948v3.364h-1.942v-9.356h4.018c0.926,0,1.665,0.241,2.215,0.724
		c0.551,0.482,0.826,1.229,0.826,2.241C28.334,42.217,28.061,42.998,27.513,43.455z M26.021,40.084
		c-0.248-0.208-0.594-0.311-1.041-0.311h-1.762v2.755h1.762c0.446,0,0.793-0.112,1.041-0.336s0.372-0.58,0.372-1.066
		S26.268,40.292,26.021,40.084z"/>
	<path d="M37.107,46.674c-0.707,0.728-1.729,1.092-3.066,1.092s-2.359-0.364-3.066-1.092c-0.948-0.894-1.422-2.18-1.422-3.86
		c0-1.714,0.474-3,1.422-3.859c0.707-0.728,1.729-1.092,3.066-1.092s2.359,0.364,3.066,1.092c0.944,0.859,1.416,2.146,1.416,3.859
		C38.522,44.494,38.051,45.78,37.107,46.674z M35.885,45.251c0.455-0.571,0.683-1.384,0.683-2.438c0-1.049-0.228-1.861-0.683-2.434
		c-0.455-0.574-1.069-0.86-1.844-0.86s-1.392,0.286-1.854,0.857s-0.692,1.384-0.692,2.438s0.23,1.866,0.692,2.438
		s1.079,0.857,1.854,0.857S35.43,45.823,35.885,45.251z"/>
	<path d="M41.798,47.505h-1.942v-9.356h1.942V47.505z"/>
	<path d="M45.035,44.616c0.061,0.427,0.179,0.747,0.356,0.958c0.324,0.385,0.879,0.577,1.666,0.577c0.471,0,0.854-0.051,1.147-0.152
		c0.558-0.194,0.836-0.556,0.836-1.085c0-0.309-0.137-0.548-0.409-0.717c-0.273-0.165-0.707-0.311-1.299-0.438l-1.014-0.222
		c-0.996-0.22-1.679-0.459-2.052-0.717c-0.63-0.432-0.946-1.106-0.946-2.025c0-0.838,0.309-1.534,0.925-2.088
		s1.523-0.832,2.719-0.832c0.998,0,1.849,0.261,2.554,0.784c0.704,0.523,1.074,1.281,1.108,2.276h-1.879
		c-0.035-0.563-0.286-0.963-0.755-1.2c-0.313-0.157-0.7-0.235-1.165-0.235c-0.516,0-0.928,0.102-1.236,0.305
		s-0.462,0.487-0.462,0.851c0,0.334,0.152,0.584,0.456,0.749c0.195,0.11,0.61,0.239,1.243,0.387l1.643,0.387
		c0.719,0.169,1.259,0.396,1.618,0.679c0.558,0.44,0.837,1.077,0.837,1.911c0,0.855-0.331,1.565-0.992,2.129
		c-0.66,0.565-1.594,0.848-2.801,0.848c-1.231,0-2.2-0.278-2.906-0.835c-0.706-0.556-1.059-1.321-1.059-2.294H45.035z"/>
	<path d="M59.501,46.674c-0.706,0.728-1.729,1.092-3.065,1.092c-1.338,0-2.359-0.364-3.066-1.092
		c-0.947-0.894-1.422-2.18-1.422-3.86c0-1.714,0.475-3,1.422-3.859c0.707-0.728,1.729-1.092,3.066-1.092
		c1.337,0,2.359,0.364,3.065,1.092c0.944,0.859,1.415,2.146,1.415,3.859C60.917,44.494,60.446,45.78,59.501,46.674z M58.28,45.251
		c0.455-0.571,0.682-1.384,0.682-2.438c0-1.049-0.227-1.861-0.682-2.434c-0.455-0.574-1.07-0.86-1.844-0.86
		c-0.775,0-1.393,0.286-1.854,0.857c-0.462,0.571-0.692,1.384-0.692,2.438s0.23,1.866,0.692,2.438
		c0.461,0.571,1.078,0.857,1.854,0.857C57.209,46.108,57.825,45.823,58.28,45.251z"/>
	<path d="M62.377,38.148h2.049l3.715,6.524v-6.524h1.821v9.356h-1.955l-3.809-6.639v6.639h-1.821V38.148z"/>
	<path d="M38.719,54.068c-0.148-0.639-0.51-1.086-1.085-1.34c-0.322-0.139-0.679-0.209-1.073-0.209
		c-0.753,0-1.372,0.284-1.857,0.852c-0.484,0.568-0.727,1.423-0.727,2.563c0,1.149,0.262,1.963,0.787,2.439
		c0.525,0.478,1.122,0.717,1.79,0.717c0.656,0,1.193-0.188,1.612-0.564c0.419-0.377,0.677-0.87,0.774-1.48h-2.165v-1.561h3.897
		v5.021h-1.295l-0.197-1.168c-0.376,0.442-0.715,0.755-1.016,0.935c-0.516,0.316-1.151,0.475-1.904,0.475
		c-1.24,0-2.255-0.43-3.047-1.287c-0.825-0.863-1.238-2.043-1.238-3.541c0-1.514,0.417-2.727,1.25-3.641s1.936-1.37,3.307-1.37
		c1.189,0,2.145,0.302,2.866,0.904c0.722,0.604,1.135,1.355,1.241,2.257H38.719z"/>
	<path d="M45.216,51.148h2.212l3.311,9.356h-2.12L48,58.582h-3.445l-0.634,1.923h-2.045L45.216,51.148z M45.087,56.969h2.396
		l-1.182-3.682L45.087,56.969z"/>
	<path d="M53.338,57.617c0.061,0.427,0.179,0.746,0.355,0.958c0.324,0.386,0.88,0.577,1.666,0.577c0.471,0,0.854-0.051,1.147-0.152
		c0.558-0.194,0.836-0.557,0.836-1.085c0-0.31-0.137-0.548-0.409-0.718c-0.273-0.164-0.707-0.311-1.299-0.438l-1.014-0.223
		c-0.996-0.22-1.68-0.459-2.052-0.717c-0.63-0.432-0.946-1.106-0.946-2.025c0-0.838,0.309-1.533,0.926-2.088
		s1.523-0.832,2.719-0.832c0.998,0,1.849,0.262,2.554,0.784c0.704,0.522,1.074,1.281,1.108,2.276h-1.879
		c-0.035-0.563-0.286-0.963-0.755-1.2c-0.313-0.157-0.7-0.235-1.165-0.235c-0.516,0-0.928,0.102-1.236,0.305
		s-0.462,0.487-0.462,0.852c0,0.334,0.151,0.584,0.456,0.748c0.195,0.11,0.609,0.24,1.242,0.388l1.643,0.388
		c0.719,0.169,1.259,0.395,1.618,0.679c0.558,0.44,0.837,1.077,0.837,1.911c0,0.854-0.331,1.564-0.992,2.129
		c-0.66,0.565-1.594,0.848-2.801,0.848c-1.23,0-2.2-0.278-2.906-0.835c-0.705-0.556-1.059-1.321-1.059-2.294H53.338z"/>
</g>
</svg>
